*
*
G04 PADS VX.2 Build Number: 5060570 generated Gerber (RS-274-X) file*
G04 PC Version=2.1*
*
%IN "board.pcb"*%
*
%MOIN*%
*
%FSLAX35Y35*%
*
*
*
*
G04 PC Standard Apertures*
*
*
G04 Thermal Relief Aperture macro.*
%AMTER*
1,1,$1,0,0*
1,0,$1-$2,0,0*
21,0,$3,$4,0,0,45*
21,0,$3,$4,0,0,135*
%
*
*
G04 Annular Aperture macro.*
%AMANN*
1,1,$1,0,0*
1,0,$2,0,0*
%
*
*
G04 Odd Aperture macro.*
%AMODD*
1,1,$1,0,0*
1,0,$1-0.005,0,0*
%
*
*
G04 PC Custom Aperture Macros*
*
*
*
*
*
*
G04 PC Aperture Table*
*
%ADD010C,0.001*%
%ADD011R,0.03X0.038*%
%ADD012R,0.07874X0.00984*%
%ADD013R,0.00984X0.07874*%
%ADD014O,0.04331X0.02362*%
%ADD015R,0.04331X0.02362*%
%ADD016R,0.038X0.03*%
%ADD017R,0.06299X0.06299*%
%ADD018C,0.06299*%
%ADD019R,0.09843X0.05906*%
%ADD020R,0.04331X0.05906*%
%ADD021R,0.039X0.039*%
%ADD022R,0.04724X0.039*%
%ADD023O,0.074X0.024*%
%ADD024R,0.06693X0.00984*%
%ADD025O,0.06693X0.00984*%
%ADD026R,0.06X0.06*%
%ADD027C,0.06*%
%ADD028R,0.01575X0.05315*%
%ADD029R,0.0748X0.0748*%
%ADD030R,0.08661X0.07874*%
%ADD031C,0.02559*%
%ADD032R,0.02756X0.07087*%
%ADD033R,0.06299X0.05512*%
%ADD034R,0.04724X0.08661*%
%ADD035C,0.04724*%
%ADD036R,0.03937X0.02362*%
%ADD037O,0.05118X0.08661*%
%ADD038R,0.0748X0.05906*%
%ADD039C,0.05906*%
%ADD044C,0.01*%
%ADD078C,0.01181*%
%ADD080C,0.00709*%
%ADD081C,0.007*%
%ADD082C,0.012*%
%ADD083C,0.00591*%
%ADD084C,0.00984*%
%ADD085C,0.00394*%
*
*
*
*
G04 PC Circuitry*
G04 Layer Name board.pcb - circuitry*
%LPD*%
*
*
G04 PC Custom Flashes*
G04 Layer Name board.pcb - flashes*
%LPD*%
*
*
G04 PC Circuitry*
G04 Layer Name board.pcb - circuitry*
%LPD*%
*
G54D10*
G01X458839Y347029D02*
X459653Y347474D01*
X428576Y347029D02*
X429928Y349501D01*
X427763Y347474D02*
X429141Y349994D01*
X461031Y356194D02*
Y359737D01*
X458275Y349994D02*
Y356194D01*
Y359737D02*
Y369186D01*
X456306Y349501D02*
Y348111D01*
X449338Y369186D02*
Y370564D01*
X448314D02*
Y369186D01*
X446779D02*
Y370564D01*
X445755D02*
Y369186D01*
X441661D02*
Y370564D01*
X440637D02*
Y369186D01*
X439102D02*
Y370564D01*
X438078D02*
Y369186D01*
X431109Y349501D02*
Y348111D01*
X429141Y369186D02*
Y359737D01*
Y356194D02*
Y349994D01*
X426385Y359737D02*
Y356194D01*
X459653Y347474D02*
X458275Y349994D01*
X457487Y349501D02*
X458839Y347029D01*
X449338Y370564D02*
X448314D01*
X446779D02*
X445755D01*
X441661D02*
X440637D01*
X439102D02*
X438078D01*
X429141Y369186D02*
X458275D01*
X461031Y359737D02*
X458275D01*
X429141D02*
X426385D01*
Y356194D02*
X429141D01*
X458275D02*
X461031D01*
X427763Y347474D02*
X428576Y347029D01*
X429928Y349501D02*
X431109D01*
X456306D02*
X457487D01*
X432291Y347029D02*
X455125D01*
X427763Y347474D02*
X428576Y347029D01*
X457487Y349501D02*
X458839Y347029D01*
X459653Y347474D02*
X458275Y349994D01*
X429141Y354323D02*
Y349994D01*
X431109Y349501D02*
Y348111D01*
X456306Y349501D02*
Y348111D01*
X458275Y349994D02*
Y354323D01*
X427763Y347474D02*
X429141Y349994D01*
X428576Y347029D02*
X429928Y349501D01*
X458839Y347029D02*
X459653Y347474D01*
X429928Y349501D02*
X431109D01*
X456306D02*
X457487D01*
X432291Y347029D02*
X455125D01*
Y347031D02*
X455136D01*
X455148Y347035*
X455160*
X455172Y347039*
X455184*
X455195Y347043*
X455207Y347047*
X455219*
X455231Y347051*
X455243*
X455254Y347055*
X455266Y347058*
X455278*
X455286Y347062*
X455298*
X455310Y347066*
X455321Y347070*
X455333*
X455345Y347074*
X455357Y347078*
X455369*
X455380Y347082*
X455392Y347086*
X455400*
X455412Y347090*
X455424Y347094*
X455436*
X455447Y347098*
X455459Y347102*
X455471Y347106*
X455479*
X455491Y347110*
X455502Y347114*
X455514Y347118*
X455522Y347121*
X455534*
X455546Y347125*
X455558Y347129*
X455565Y347133*
X455577Y347137*
X455589Y347141*
X455597*
X455609Y347145*
X455621Y347149*
X455628Y347153*
X455640Y347157*
X455652Y347161*
X455660Y347165*
X455672Y347169*
X455680Y347173*
X455691Y347177*
X455699Y347181*
X455711Y347184*
X455719Y347188*
X455731Y347196*
X455739Y347200*
X455751Y347204*
X455751D02*
X455758Y347208D01*
X455766Y347212*
X455778Y347216*
X455786Y347224*
X455798Y347228*
X455806Y347232*
X455813Y347236*
X455821Y347244*
X455821D02*
X455833Y347247D01*
X455841Y347251*
X455849Y347259*
X455857Y347263*
X455865Y347271*
X455876Y347275*
X455884Y347283*
X455892Y347287*
X455900Y347295*
X455908Y347299*
X455916Y347306*
X455924Y347314*
X455932Y347318*
X455939Y347326*
X455947Y347334*
X455955Y347338*
X455959Y347346*
X455967Y347354*
X455975Y347362*
X455983Y347369*
X455991Y347373*
X455995Y347381*
X456002Y347389*
X456010Y347397*
X456014Y347405*
X456022Y347413*
X456026Y347421*
X456034Y347429*
X456042Y347436*
X456046Y347444*
X456054Y347456*
X456058Y347464*
X456065Y347472*
X456069Y347480*
X456073Y347488*
X456081Y347499*
X456085Y347507*
X456093Y347515*
X456097Y347527*
X456101Y347535*
X456109Y347543*
X456113Y347555*
X456117Y347562*
X456121Y347570*
X456128Y347582*
X456132Y347590*
X456136Y347602*
X456140Y347610*
X456144Y347621*
X456148Y347629*
X456156Y347641*
X456160Y347649*
X456164Y347661*
X456168Y347673*
X456172Y347681*
X456176Y347692*
X456180Y347700*
X456184Y347712*
X456188Y347724*
X456191Y347732*
X456195Y347744*
X456195D02*
X456199Y347755D01*
X456203Y347763*
X456207Y347775*
X456211Y347787*
X456215Y347799*
X456219Y347806*
X456223Y347818*
X456227Y347830*
Y347842*
X456231Y347850*
X456235Y347862*
X456239Y347873*
X456243Y347885*
X456247Y347897*
X456251Y347909*
X456251D02*
Y347917D01*
X456251D02*
X456254Y347929D01*
X456258Y347940*
X456262Y347952*
X456266Y347964*
X456270Y347976*
Y347988*
X456274Y347995*
X456278Y348007*
X456282Y348019*
X456286Y348031*
Y348043*
X456290Y348055*
X456294Y348066*
X456298Y348078*
X456302Y348090*
Y348098*
X456306Y348110*
X431109D02*
X431113Y348098D01*
X431117Y348090*
X431121Y348078*
Y348066*
X431125Y348055*
X431128Y348043*
X431132Y348031*
X431136Y348019*
Y348007*
X431140Y347995*
X431144Y347988*
X431148Y347976*
X431152Y347964*
Y347952*
X431156Y347940*
X431160Y347929*
X431164Y347917*
X431168Y347909*
X431172Y347897*
Y347885*
X431176Y347873*
X431180Y347862*
X431184Y347850*
X431188Y347842*
X431191Y347830*
X431195Y347818*
X431199Y347806*
X431203Y347799*
X431207Y347787*
Y347775*
X431211Y347763*
X431215Y347755*
X431219Y347744*
X431219D02*
X431223Y347732D01*
X431227Y347724*
X431231Y347712*
X431235Y347700*
X431239Y347692*
X431243Y347681*
X431251Y347673*
X431251D02*
X431254Y347661D01*
X431258Y347649*
X431262Y347641*
X431266Y347629*
X431270Y347621*
X431274Y347610*
X431278Y347602*
X431286Y347590*
X431290Y347582*
X431294Y347570*
X431298Y347562*
X431306Y347555*
X431310Y347543*
X431313Y347535*
X431317Y347527*
X431325Y347515*
X431329Y347507*
X431337Y347499*
X431341Y347488*
X431345Y347480*
X431353Y347472*
X431357Y347464*
X431365Y347456*
X431369Y347444*
X431376Y347436*
X431380Y347429*
X431388Y347421*
X431392Y347413*
X431400Y347405*
X431408Y347397*
X431412Y347389*
X431420Y347381*
X431428Y347373*
X431436Y347369*
X431439Y347362*
X431447Y347354*
X431455Y347346*
X431463Y347338*
X431471Y347334*
X431479Y347326*
X431487Y347318*
X431495Y347314*
X431502Y347306*
X431510Y347299*
X431518Y347295*
X431526Y347287*
X431534Y347283*
X431542Y347275*
X431550Y347271*
X431558Y347263*
X431565Y347259*
X431573Y347251*
X431585Y347247*
X431593Y347244*
X431593D02*
X431601Y347236D01*
X431613Y347232*
X431621Y347228*
X431628Y347224*
X431640Y347216*
X431648Y347212*
X431656Y347208*
X431668Y347204*
X431676Y347200*
X431688Y347196*
X431695Y347188*
X431707Y347184*
X431715Y347181*
X431727Y347177*
X431735Y347173*
X431747Y347169*
X431754Y347165*
X431766Y347161*
X431774Y347157*
X431786Y347153*
X431798Y347149*
X431806Y347145*
X431817Y347141*
X431829*
X431837Y347137*
X431849Y347133*
X431861Y347129*
X431869Y347125*
X431880Y347121*
X431892*
X431904Y347118*
X431912Y347114*
X431924Y347110*
X431936Y347106*
X431947*
X431959Y347102*
X431967Y347098*
X431979Y347094*
X431991*
X432002Y347090*
X432014Y347086*
X432026*
X432038Y347082*
X432050Y347078*
X432058*
X432069Y347074*
X432081Y347070*
X432093*
X432105Y347066*
X432117Y347062*
X432128*
X432140Y347058*
X432152*
X432164Y347055*
X432176Y347051*
X432188*
X432199Y347047*
X432207*
X432219Y347043*
X432231Y347039*
X432243*
X432254Y347035*
X432266*
X432278Y347031*
X432290*
X455125D02*
X455136D01*
X455148Y347035*
X455160*
X455172Y347039*
X455184*
X455195Y347043*
X455207Y347047*
X455219*
X455231Y347051*
X455243*
X455254Y347055*
X455266Y347058*
X455278*
X455286Y347062*
X455298*
X455310Y347066*
X455321Y347070*
X455333*
X455345Y347074*
X455357Y347078*
X455369*
X455380Y347082*
X455392Y347086*
X455400*
X455412Y347090*
X455424Y347094*
X455436*
X455447Y347098*
X455459Y347102*
X455471Y347106*
X455479*
X455491Y347110*
X455502Y347114*
X455514Y347118*
X455522Y347121*
X455534*
X455546Y347125*
X455558Y347129*
X455565Y347133*
X455577Y347137*
X455589Y347141*
X455597*
X455609Y347145*
X455621Y347149*
X455628Y347153*
X455640Y347157*
X455652Y347161*
X455660Y347165*
X455672Y347169*
X455680Y347173*
X455691Y347177*
X455699Y347181*
X455711Y347184*
X455719Y347188*
X455731Y347196*
X455739Y347200*
X455751Y347204*
X455751D02*
X455758Y347208D01*
X455766Y347212*
X455778Y347216*
X455786Y347224*
X455798Y347228*
X455806Y347232*
X455813Y347236*
X455821Y347244*
X455821D02*
X455833Y347247D01*
X455841Y347251*
X455849Y347259*
X455857Y347263*
X455865Y347271*
X455876Y347275*
X455884Y347283*
X455892Y347287*
X455900Y347295*
X455908Y347299*
X455916Y347306*
X455924Y347314*
X455932Y347318*
X455939Y347326*
X455947Y347334*
X455955Y347338*
X455959Y347346*
X455967Y347354*
X455975Y347362*
X455983Y347369*
X455991Y347373*
X455995Y347381*
X456002Y347389*
X456010Y347397*
X456014Y347405*
X456022Y347413*
X456026Y347421*
X456034Y347429*
X456042Y347436*
X456046Y347444*
X456054Y347456*
X456058Y347464*
X456065Y347472*
X456069Y347480*
X456073Y347488*
X456081Y347499*
X456085Y347507*
X456093Y347515*
X456097Y347527*
X456101Y347535*
X456109Y347543*
X456113Y347555*
X456117Y347562*
X456121Y347570*
X456128Y347582*
X456132Y347590*
X456136Y347602*
X456140Y347610*
X456144Y347621*
X456148Y347629*
X456156Y347641*
X456160Y347649*
X456164Y347661*
X456168Y347673*
X456172Y347681*
X456176Y347692*
X456180Y347700*
X456184Y347712*
X456188Y347724*
X456191Y347732*
X456195Y347744*
X456195D02*
X456199Y347755D01*
X456203Y347763*
X456207Y347775*
X456211Y347787*
X456215Y347799*
X456219Y347806*
X456223Y347818*
X456227Y347830*
Y347842*
X456231Y347850*
X456235Y347862*
X456239Y347873*
X456243Y347885*
X456247Y347897*
X456251Y347909*
X456251D02*
Y347917D01*
X456251D02*
X456254Y347929D01*
X456258Y347940*
X456262Y347952*
X456266Y347964*
X456270Y347976*
Y347988*
X456274Y347995*
X456278Y348007*
X456282Y348019*
X456286Y348031*
Y348043*
X456290Y348055*
X456294Y348066*
X456298Y348078*
X456302Y348090*
Y348098*
X456306Y348110*
X431109D02*
X431113Y348098D01*
X431117Y348090*
X431121Y348078*
Y348066*
X431125Y348055*
X431128Y348043*
X431132Y348031*
X431136Y348019*
Y348007*
X431140Y347995*
X431144Y347988*
X431148Y347976*
X431152Y347964*
Y347952*
X431156Y347940*
X431160Y347929*
X431164Y347917*
X431168Y347909*
X431172Y347897*
Y347885*
X431176Y347873*
X431180Y347862*
X431184Y347850*
X431188Y347842*
X431191Y347830*
X431195Y347818*
X431199Y347806*
X431203Y347799*
X431207Y347787*
Y347775*
X431211Y347763*
X431215Y347755*
X431219Y347744*
X431219D02*
X431223Y347732D01*
X431227Y347724*
X431231Y347712*
X431235Y347700*
X431239Y347692*
X431243Y347681*
X431251Y347673*
X431251D02*
X431254Y347661D01*
X431258Y347649*
X431262Y347641*
X431266Y347629*
X431270Y347621*
X431274Y347610*
X431278Y347602*
X431286Y347590*
X431290Y347582*
X431294Y347570*
X431298Y347562*
X431306Y347555*
X431310Y347543*
X431313Y347535*
X431317Y347527*
X431325Y347515*
X431329Y347507*
X431337Y347499*
X431341Y347488*
X431345Y347480*
X431353Y347472*
X431357Y347464*
X431365Y347456*
X431369Y347444*
X431376Y347436*
X431380Y347429*
X431388Y347421*
X431392Y347413*
X431400Y347405*
X431408Y347397*
X431412Y347389*
X431420Y347381*
X431428Y347373*
X431436Y347369*
X431439Y347362*
X431447Y347354*
X431455Y347346*
X431463Y347338*
X431471Y347334*
X431479Y347326*
X431487Y347318*
X431495Y347314*
X431502Y347306*
X431510Y347299*
X431518Y347295*
X431526Y347287*
X431534Y347283*
X431542Y347275*
X431550Y347271*
X431558Y347263*
X431565Y347259*
X431573Y347251*
X431585Y347247*
X431593Y347244*
X431593D02*
X431601Y347236D01*
X431613Y347232*
X431621Y347228*
X431628Y347224*
X431640Y347216*
X431648Y347212*
X431656Y347208*
X431668Y347204*
X431676Y347200*
X431688Y347196*
X431695Y347188*
X431707Y347184*
X431715Y347181*
X431727Y347177*
X431735Y347173*
X431747Y347169*
X431754Y347165*
X431766Y347161*
X431774Y347157*
X431786Y347153*
X431798Y347149*
X431806Y347145*
X431817Y347141*
X431829*
X431837Y347137*
X431849Y347133*
X431861Y347129*
X431869Y347125*
X431880Y347121*
X431892*
X431904Y347118*
X431912Y347114*
X431924Y347110*
X431936Y347106*
X431947*
X431959Y347102*
X431967Y347098*
X431979Y347094*
X431991*
X432002Y347090*
X432014Y347086*
X432026*
X432038Y347082*
X432050Y347078*
X432058*
X432069Y347074*
X432081Y347070*
X432093*
X432105Y347066*
X432117Y347062*
X432128*
X432140Y347058*
X432152*
X432164Y347055*
X432176Y347051*
X432188*
X432199Y347047*
X432207*
X432219Y347043*
X432231Y347039*
X432243*
X432254Y347035*
X432266*
X432278Y347031*
X432290*
G54D11*
X203069Y370725D03*
Y364525D03*
X188865Y431897D03*
Y425697D03*
X243865Y506897D03*
Y500697D03*
X233865Y443197D03*
Y449397D03*
X392882Y399428D03*
Y393228D03*
X243865Y424397D03*
Y418197D03*
X233865Y431897D03*
Y425697D03*
Y496897D03*
Y490697D03*
X138865Y384397D03*
Y378197D03*
Y404397D03*
Y398197D03*
Y426897D03*
Y420697D03*
Y456897D03*
Y450697D03*
Y491897D03*
Y485697D03*
X178865Y450697D03*
Y456897D03*
X138865Y524397D03*
Y518197D03*
X383865Y365697D03*
Y371897D03*
X243865Y489397D03*
Y483197D03*
X178865Y515697D03*
Y521897D03*
X366365Y463197D03*
Y469397D03*
X243865Y456897D03*
Y450697D03*
Y441897D03*
Y435697D03*
X178865Y439397D03*
Y433197D03*
Y424397D03*
Y418197D03*
X243865Y521897D03*
Y515697D03*
X233865Y508197D03*
Y514397D03*
X188865Y496897D03*
Y490697D03*
X178865Y489397D03*
Y483197D03*
Y504397D03*
Y498197D03*
X171365Y391897D03*
Y385697D03*
X221365Y391897D03*
Y385697D03*
X231365Y391897D03*
Y385697D03*
X376365Y463197D03*
Y469397D03*
X381365Y393197D03*
Y399397D03*
G54D12*
X360165Y442123D03*
Y440155D03*
Y438186D03*
Y436218D03*
Y434249D03*
Y432281D03*
Y430312D03*
Y428344D03*
Y426375D03*
Y424407D03*
Y422438D03*
Y420470D03*
X397566D03*
Y422438D03*
Y424407D03*
Y426375D03*
Y428344D03*
Y430312D03*
Y432281D03*
Y434249D03*
Y436218D03*
Y438186D03*
Y440155D03*
Y442123D03*
G54D13*
X368039Y412596D03*
X370007D03*
X371976D03*
X373944D03*
X375913D03*
X377881D03*
X379850D03*
X381818D03*
X383787D03*
X385755D03*
X387724D03*
X389692D03*
Y449997D03*
X387724D03*
X385755D03*
X383787D03*
X381818D03*
X379850D03*
X377881D03*
X375913D03*
X373944D03*
X371976D03*
X370007D03*
X368039D03*
G54D14*
X148865Y403797D03*
Y426297D03*
Y383797D03*
Y456297D03*
Y523797D03*
Y491297D03*
G54D15*
Y399860D03*
Y395923D03*
X159889D03*
Y399860D03*
Y403797D03*
X148865Y422360D03*
Y418423D03*
X159889D03*
Y422360D03*
Y426297D03*
X148865Y379860D03*
Y375923D03*
X159889D03*
Y379860D03*
Y383797D03*
X148865Y452360D03*
Y448423D03*
X159889D03*
Y452360D03*
Y456297D03*
X148865Y519860D03*
Y515923D03*
X159889D03*
Y519860D03*
Y523797D03*
X148865Y487360D03*
Y483423D03*
X159889D03*
Y487360D03*
Y491297D03*
G54D16*
X340717Y454307D03*
X334517D03*
X336965Y536297D03*
X330765D03*
X275330Y426936D03*
X281530D03*
X275743Y491717D03*
X281943D03*
X275765Y511297D03*
X281965D03*
X275765Y478797D03*
X281965D03*
X402098Y450854D03*
X408298D03*
X340765Y421297D03*
X346965D03*
X185765Y371297D03*
X191965D03*
X440765Y378797D03*
X446965D03*
X340765Y436297D03*
X346965D03*
Y443797D03*
X340765D03*
X301965Y413797D03*
X295765D03*
X301965Y486297D03*
X295765D03*
X301965Y511297D03*
X295765D03*
X301965Y518797D03*
X295765D03*
X275765D03*
X281965D03*
X301965Y421297D03*
X295765D03*
X275765Y413797D03*
X281965D03*
X174465Y371297D03*
X168265D03*
X150765Y366297D03*
X156965D03*
X346965Y428797D03*
X340765D03*
X336965Y526297D03*
X330765D03*
X336965Y516297D03*
X330765D03*
X336965Y506297D03*
X330765D03*
X336965Y496297D03*
X330765D03*
X301965Y446297D03*
X295765D03*
X301965Y453797D03*
X295765D03*
X275765Y446297D03*
X281965D03*
X275765Y453797D03*
X281965D03*
X301965Y478797D03*
X295765D03*
G54D17*
X434944Y536699D03*
X434936Y511670D03*
G54D18*
X444787Y536699D03*
X444778Y511670D03*
G54D19*
X371365Y376277D03*
Y361316D03*
X418865Y368777D03*
Y353816D03*
G54D20*
X310352Y356757D03*
X324919D03*
X310352Y378804D03*
X324919D03*
X339473Y356611D03*
X354040D03*
X339473Y378658D03*
X354040D03*
G54D21*
X257550Y449481D03*
Y441881D03*
X257827Y514732D03*
Y507132D03*
X263515Y414997D03*
Y422597D03*
Y479997D03*
Y487597D03*
G54D22*
X266456Y445681D03*
X266733Y510932D03*
X254609Y418797D03*
Y483797D03*
G54D23*
X222665D03*
Y488797D03*
Y493797D03*
Y498797D03*
Y503797D03*
Y508797D03*
Y513797D03*
X200065D03*
Y508797D03*
Y503797D03*
Y498797D03*
Y493797D03*
Y488797D03*
Y483797D03*
X222665Y418797D03*
Y423797D03*
Y428797D03*
Y433797D03*
Y438797D03*
Y443797D03*
Y448797D03*
X200065D03*
Y443797D03*
Y438797D03*
Y433797D03*
Y428797D03*
Y423797D03*
Y418797D03*
X207665Y381297D03*
Y386297D03*
Y391297D03*
Y396297D03*
X185065D03*
Y391297D03*
Y386297D03*
Y381297D03*
G54D24*
X345027Y462360D03*
G54D25*
Y464328D03*
Y466297D03*
Y468265D03*
Y470234D03*
X327704D03*
Y468265D03*
Y466297D03*
Y464328D03*
Y462360D03*
G54D26*
X241365Y358797D03*
X413865Y406297D03*
X433865Y491297D03*
G54D27*
X231365Y368797D03*
X221365Y358797D03*
X403865Y396297D03*
X413865Y386297D03*
X443865Y491297D03*
Y481297D03*
X433865D03*
X443865Y471297D03*
X433865D03*
X443865Y461297D03*
X433865D03*
X443865Y451297D03*
X433865D03*
X443865Y441297D03*
X433865D03*
X443865Y431297D03*
X433865D03*
X443865Y421297D03*
X433865D03*
X443865Y411297D03*
X433865D03*
G54D28*
X438747Y368797D03*
X441306D03*
X443865D03*
X446424D03*
X448983D03*
G54D29*
X439141Y357970D03*
X448590D03*
G54D30*
X454987D03*
X432743D03*
G54D31*
X435991Y366434D03*
X451739D03*
G54D32*
X372704Y491297D03*
X377035D03*
X381365D03*
X385696D03*
X390027D03*
X394358D03*
X398688D03*
X403019D03*
X407350D03*
G54D33*
X413649Y493265D03*
X354397D03*
G54D34*
X411483Y531060D03*
X351247D03*
G54D35*
X369358Y532635D03*
X400854D03*
G54D36*
X404771Y364860D03*
Y368797D03*
Y372734D03*
X392960D03*
Y364860D03*
G54D37*
X290569Y357247D03*
X269309Y357641D03*
G54D38*
X292341Y368074D03*
Y387956D03*
X265963Y383625D03*
Y391696D03*
G54D39*
X278758Y387759D03*
G54D44*
X206569Y368825D02*
Y374625D01*
X199569*
Y368825*
X206569Y366425D02*
Y360625D01*
X199569*
Y366425*
X192365Y429997D02*
Y435797D01*
X185365*
Y429997*
X192365Y427597D02*
Y421797D01*
X185365*
Y427597*
X338817Y450807D02*
X344617D01*
Y457807*
X338817*
X336417Y450807D02*
X330617D01*
Y457807*
X336417*
X247365Y504997D02*
Y510797D01*
X240365*
Y504997*
X247365Y502597D02*
Y496797D01*
X240365*
Y502597*
X335065Y532797D02*
X340865D01*
Y539797*
X335065*
X332665Y532797D02*
X326865D01*
Y539797*
X332665*
X230365Y445097D02*
Y439297D01*
X237365*
Y445097*
X230365Y447497D02*
Y453297D01*
X237365*
Y447497*
X277230Y430436D02*
X271430D01*
Y423436*
X277230*
X279630Y430436D02*
X285430D01*
Y423436*
X279630*
X277643Y495217D02*
X271843D01*
Y488217*
X277643*
X280043Y495217D02*
X285843D01*
Y488217*
X280043*
X277665Y514797D02*
X271865D01*
Y507797*
X277665*
X280065Y514797D02*
X285865D01*
Y507797*
X280065*
X277665Y482297D02*
X271865D01*
Y475297*
X277665*
X280065Y482297D02*
X285865D01*
Y475297*
X280065*
X396382Y397528D02*
Y403328D01*
X396382D02*
X389382D01*
X389382D02*
Y397528D01*
X396382Y395128D02*
Y389328D01*
X396382D02*
X389382D01*
X389382D02*
Y395128D01*
X403998Y454354D02*
X398198D01*
Y447354*
X403998*
X406398Y454354D02*
X412198D01*
Y447354*
X406398*
X247365Y422497D02*
Y428297D01*
X240365*
Y422497*
X247365Y420097D02*
Y414297D01*
X240365*
Y420097*
X342665Y424797D02*
X336865D01*
Y417797*
X342665*
X345065Y424797D02*
X350865D01*
Y417797*
X345065*
X237365Y429997D02*
Y435797D01*
X230365*
Y429997*
X237365Y427597D02*
Y421797D01*
X230365*
Y427597*
X237365Y494997D02*
Y500797D01*
X230365*
Y494997*
X237365Y492597D02*
Y486797D01*
X230365*
Y492597*
X187665Y374797D02*
X181865D01*
Y367797*
X187665*
X190065Y374797D02*
X195865D01*
Y367797*
X190065*
X142365Y382497D02*
Y388297D01*
X135365*
Y382497*
X142365Y380097D02*
Y374297D01*
X135365*
Y380097*
X142365Y402497D02*
Y408297D01*
X135365*
Y402497*
X142365Y400097D02*
Y394297D01*
X135365*
Y400097*
X142365Y424997D02*
Y430797D01*
X135365*
Y424997*
X142365Y422597D02*
Y416797D01*
X135365*
Y422597*
X142365Y454997D02*
Y460797D01*
X135365*
Y454997*
X142365Y452597D02*
Y446797D01*
X135365*
Y452597*
X142365Y489997D02*
Y495797D01*
X135365*
Y489997*
X142365Y487597D02*
Y481797D01*
X135365*
Y487597*
X175365Y452597D02*
Y446797D01*
X182365*
Y452597*
X175365Y454997D02*
Y460797D01*
X182365*
Y454997*
X142365Y522497D02*
Y528297D01*
X135365*
Y522497*
X142365Y520097D02*
Y514297D01*
X135365*
Y520097*
X442665Y382297D02*
X436865D01*
Y375297*
X442665*
X445065Y382297D02*
X450865D01*
Y375297*
X445065*
X380365Y367597D02*
Y361797D01*
X387365*
Y367597*
X380365Y369997D02*
Y375797D01*
X387365*
Y369997*
X247365Y487497D02*
Y493297D01*
X240365*
Y487497*
X247365Y485097D02*
Y479297D01*
X240365*
Y485097*
X175365Y517597D02*
Y511797D01*
X182365*
Y517597*
X175365Y519997D02*
Y525797D01*
X182365*
Y519997*
X342665Y439797D02*
X336865D01*
Y432797*
X342665*
X345065Y439797D02*
X350865D01*
Y432797*
X345065*
X362865Y465097D02*
Y459297D01*
X369865*
Y465097*
X362865Y467497D02*
Y473297D01*
X369865*
Y467497*
X345065Y440297D02*
X350865D01*
Y447297*
X345065*
X342665Y440297D02*
X336865D01*
Y447297*
X342665*
X300065Y410297D02*
X305865D01*
Y417297*
X300065*
X297665Y410297D02*
X291865D01*
Y417297*
X297665*
X300065Y482797D02*
X305865D01*
Y489797*
X300065*
X297665Y482797D02*
X291865D01*
Y489797*
X297665*
X300065Y507797D02*
X305865D01*
Y514797*
X300065*
X297665Y507797D02*
X291865D01*
Y514797*
X297665*
X300065Y515297D02*
X305865D01*
Y522297*
X300065*
X297665Y515297D02*
X291865D01*
Y522297*
X297665*
X277665D02*
X271865D01*
Y515297*
X277665*
X280065Y522297D02*
X285865D01*
Y515297*
X280065*
X247365Y454997D02*
Y460797D01*
X240365*
Y454997*
X247365Y452597D02*
Y446797D01*
X240365*
Y452597*
X247365Y439997D02*
Y445797D01*
X240365*
Y439997*
X247365Y437597D02*
Y431797D01*
X240365*
Y437597*
X300065Y417797D02*
X305865D01*
Y424797*
X300065*
X297665Y417797D02*
X291865D01*
Y424797*
X297665*
X182365Y437497D02*
Y443297D01*
X175365*
Y437497*
X182365Y435097D02*
Y429297D01*
X175365*
Y435097*
X182365Y422497D02*
Y428297D01*
X175365*
Y422497*
X182365Y420097D02*
Y414297D01*
X175365*
Y420097*
X247365Y519997D02*
Y525797D01*
X240365*
Y519997*
X247365Y517597D02*
Y511797D01*
X240365*
Y517597*
X230365Y510097D02*
Y504297D01*
X237365*
Y510097*
X230365Y512497D02*
Y518297D01*
X237365*
Y512497*
X192365Y494997D02*
Y500797D01*
X185365*
Y494997*
X192365Y492597D02*
Y486797D01*
X185365*
Y492597*
X182365Y487497D02*
Y493297D01*
X175365*
Y487497*
X182365Y485097D02*
Y479297D01*
X175365*
Y485097*
X182365Y502497D02*
Y508297D01*
X175365*
Y502497*
X182365Y500097D02*
Y494297D01*
X175365*
Y500097*
X277665Y417297D02*
X271865D01*
Y410297*
X277665*
X280065Y417297D02*
X285865D01*
Y410297*
X280065*
X174865Y389997D02*
Y395797D01*
X167865*
Y389997*
X174865Y387597D02*
Y381797D01*
X167865*
Y387597*
X172565Y367797D02*
X178365D01*
Y374797*
X172565*
X170165Y367797D02*
X164365D01*
Y374797*
X170165*
X152665Y369797D02*
X146865D01*
Y362797*
X152665*
X155065Y369797D02*
X160865D01*
Y362797*
X155065*
X224865Y389997D02*
Y395797D01*
X217865*
Y389997*
X224865Y387597D02*
Y381797D01*
X217865*
Y387597*
X234865Y389997D02*
Y395797D01*
X227865*
Y389997*
X234865Y387597D02*
Y381797D01*
X227865*
Y387597*
X345065Y425297D02*
X350865D01*
Y432297*
X345065*
X342665Y425297D02*
X336865D01*
Y432297*
X342665*
X372865Y465097D02*
Y459297D01*
X379865*
Y465097*
X372865Y467497D02*
Y473297D01*
X379865*
Y467497*
X377865Y395097D02*
Y389297D01*
X384865*
Y395097*
X377865Y397497D02*
Y403297D01*
X384865*
Y397497*
X335065Y522797D02*
X340865D01*
Y529797*
X335065*
X332665Y522797D02*
X326865D01*
Y529797*
X332665*
X335065Y512797D02*
X340865D01*
Y519797*
X335065*
X332665Y512797D02*
X326865D01*
Y519797*
X332665*
X335065Y502797D02*
X340865D01*
Y509797*
X335065*
X332665Y502797D02*
X326865D01*
Y509797*
X332665*
X335065Y492797D02*
X340865D01*
Y499797*
X335065*
X332665Y492797D02*
X326865D01*
Y499797*
X332665*
X300065Y442797D02*
X305865D01*
Y449797*
X300065*
X297665Y442797D02*
X291865D01*
Y449797*
X297665*
X300065Y450297D02*
X305865D01*
Y457297*
X300065*
X297665Y450297D02*
X291865D01*
Y457297*
X297665*
X277665Y449797D02*
X271865D01*
Y442797*
X277665*
X280065Y449797D02*
X285865D01*
Y442797*
X280065*
X277665Y457297D02*
X271865D01*
Y450297*
X277665*
X280065Y457297D02*
X285865D01*
Y450297*
X280065*
X300065Y475297D02*
X305865D01*
Y482297*
X300065*
X297665Y475297D02*
X291865D01*
Y482297*
X297665*
X126365Y533797D02*
Y346297D01*
X461365*
Y556297*
X148865*
X126365Y533797*
G54D78*
X424905Y523313D02*
Y546148D01*
X454826*
Y523313*
X424905*
X424897Y498284D02*
Y521119D01*
X454818*
Y498284*
X424897*
X365066Y380608D02*
X377665D01*
Y356986*
X365066*
Y380608*
X371365Y368797D02*
Y372734D01*
X374121Y370765D02*
X368609D01*
X412566Y373108D02*
X425165D01*
Y349486*
X412566*
Y373108*
X418865Y361297D02*
Y365234D01*
X421621Y363265D02*
X416109D01*
G54D80*
X306218Y373686D02*
X313108D01*
Y379198*
X322163*
Y373686*
X329053*
Y361875*
X322163*
Y356363*
X313108*
Y361875*
X306218*
Y373686*
X321769Y367780D02*
G75*
G03X321769I-4134J0D01*
G01X317635Y371914D02*
Y363843D01*
X313895Y367780D02*
X321769D01*
X335339Y373540D02*
X342229D01*
Y379052*
X351284*
Y373540*
X358174*
Y361729*
X351284*
Y356217*
X342229*
Y361729*
X335339*
Y373540*
X350890Y367635D02*
G03X350890I-4134J0D01*
G01X346756Y371769D02*
Y363698D01*
X343016Y367635D02*
X350890D01*
G54D81*
X217865Y481797D02*
Y515797D01*
X204865*
Y481797*
X217865*
Y416797D02*
Y450797D01*
X204865*
Y416797*
X217865*
X202865Y379297D02*
Y398297D01*
X189865*
Y379297*
X202865*
X193180Y357385D02*
X197117D01*
X193180D02*
Y358613D01*
X193367Y359022*
X193555Y359158*
X193930Y359295*
X194305*
X194680Y359158*
X194867Y359022*
X195055Y358613*
Y357385*
Y358340D02*
X197117Y359295D01*
X194117Y360658D02*
X193930D01*
X193555Y360795*
X193367Y360931*
X193180Y361204*
Y361749*
X193367Y362022*
X193555Y362158*
X193930Y362295*
X194305*
X194680Y362158*
X195242Y361885*
X197117Y360522*
Y362431*
X194492Y365431D02*
X195055Y365295D01*
X195430Y365022*
X195617Y364613*
Y364476*
X195430Y364067*
X195055Y363795*
X194492Y363658*
X194305*
X193742Y363795*
X193367Y364067*
X193180Y364476*
Y364613*
X193367Y365022*
X193742Y365295*
X194492Y365431*
X195430*
X196367Y365295*
X196930Y365022*
X197117Y364613*
Y364340*
X196930Y363931*
X196555Y363795*
X378865Y375234D02*
Y372422D01*
X379002Y371859*
X379274Y371484*
X379684Y371297*
X379956*
X380365Y371484*
X380638Y371859*
X380774Y372422*
Y375234*
X382002Y374484D02*
X382274Y374672D01*
X382684Y375234*
Y371297*
X187428Y438797D02*
X191365D01*
X187428D02*
Y440024D01*
X187615Y440433*
X187803Y440569*
X188178Y440706*
X188553*
X188928Y440569*
X189115Y440433*
X189303Y440024*
Y438797*
Y439751D02*
X191365Y440706D01*
X188365Y442069D02*
X188178D01*
X187803Y442206*
X187615Y442342*
X187428Y442615*
Y443160*
X187615Y443433*
X187803Y443569*
X188178Y443706*
X188553*
X188928Y443569*
X189490Y443297*
X191365Y441933*
Y443842*
X188365Y445206D02*
X188178D01*
X187803Y445342*
X187615Y445478*
X187428Y445751*
Y446297*
X187615Y446569*
X187803Y446706*
X188178Y446842*
X188553*
X188928Y446706*
X189490Y446433*
X191365Y445069*
Y446978*
X148134Y411679D02*
Y408866D01*
X148271Y408304*
X148543Y407929*
X148952Y407741*
X149225*
X149634Y407929*
X149907Y408304*
X150043Y408866*
Y411679*
X152634D02*
X151271Y409054D01*
X153316*
X152634Y411679D02*
Y407741D01*
X148032Y434151D02*
Y431338D01*
X148168Y430776*
X148441Y430401*
X148850Y430213*
X149122*
X149122D02*
X149532Y430401D01*
X149804Y430776*
X149941Y431338*
Y434151*
X152804Y433588D02*
X152668Y433963D01*
X152259Y434151*
X151986*
X151577Y433963*
X151304Y433401*
X151168Y432463*
Y431526*
X151304Y430776*
X151577Y430401*
X151986Y430213*
X152122*
X152122D02*
X152532Y430401D01*
X152804Y430776*
X152941Y431338*
Y431526*
X152804Y432088*
X152532Y432463*
X152122Y432651*
X152122D02*
X151986D01*
X151577Y432463*
X151304Y432088*
X151168Y431526*
X147887Y391010D02*
Y388197D01*
X148023Y387635*
X148296Y387260*
X148705Y387072*
X148978*
X149387Y387260*
X149659Y387635*
X149796Y388197*
Y391010*
X151296D02*
X152796D01*
X151978Y389510*
X152387*
X152659Y389322*
X152796Y389135*
X152932Y388572*
Y388197*
X152796Y387635*
X152523Y387260*
X152114Y387072*
X151705*
X151296Y387260*
X151159Y387447*
X151023Y387822*
X340572Y483807D02*
X340708Y483432D01*
X340981Y483057*
X341254Y482869*
X341799*
X342072Y483057*
X342345Y483432*
X342481Y483807*
X342617Y484369*
Y485307*
X342481Y485869*
X342345Y486244*
X342072Y486619*
X341799Y486807*
X341254*
X340981Y486619*
X340708Y486244*
X340572Y485869*
X339345Y483619D02*
X339072Y483432D01*
X338663Y482869*
Y486807*
X337436Y483619D02*
X337163Y483432D01*
X336754Y482869*
Y486807*
X249928Y498797D02*
X253865D01*
X249928D02*
Y500024D01*
X250115Y500433*
X250303Y500569*
X250678Y500706*
X251053*
X251428Y500569*
X251615Y500433*
X251803Y500024*
Y498797*
Y499751D02*
X253865Y500706D01*
X250865Y502069D02*
X250678D01*
X250303Y502206*
X250115Y502342*
X249928Y502615*
Y503160*
X250115Y503433*
X250303Y503569*
X250678Y503706*
X251053*
X251428Y503569*
X251990Y503297*
X253865Y501933*
Y503842*
X249928Y505342D02*
Y506842D01*
X251428Y506024*
Y506433*
X251615Y506706*
X251803Y506842*
X252365Y506978*
X252740*
X253303Y506842*
X253678Y506569*
X253865Y506160*
Y505751*
X253678Y505342*
X253490Y505206*
X253115Y505069*
X316365Y537734D02*
Y533797D01*
Y537734D02*
X317593D01*
X318002Y537547*
X318138Y537359*
X318274Y536984*
Y536609*
X318138Y536234*
X318002Y536047*
X317593Y535859*
X316365*
X317320D02*
X318274Y533797D01*
X320865Y537734D02*
X319502Y535109D01*
X321547*
X320865Y537734D02*
Y533797D01*
X323593Y537734D02*
X323184Y537547D01*
X322911Y536984*
X322774Y536047*
Y535484*
X322911Y534547*
X323184Y533984*
X323593Y533797*
X323865*
X324274Y533984*
X324547Y534547*
X324684Y535484*
Y536047*
X324547Y536984*
X324274Y537547*
X323865Y537734*
X323593*
X359928Y363797D02*
X362740D01*
X363303Y363933*
X363678Y364206*
X363865Y364615*
Y364888*
X363678Y365297*
X363303Y365569*
X362740Y365706*
X359928*
X360678Y366933D02*
X360490Y367206D01*
X359928Y367615*
X363865*
X359928Y370751D02*
X363865Y369388D01*
X359928Y368842D02*
Y370751D01*
X316962Y388588D02*
X316689Y388963D01*
X316280Y389151*
X315734*
X315325Y388963*
X315053Y388588*
Y388213*
X315189Y387838*
X315325Y387651*
X315598Y387463*
X316416Y387088*
X316689Y386901*
X316825Y386713*
X316962Y386338*
Y385776*
X316689Y385401*
X316280Y385213*
X315734*
X315325Y385401*
X315053Y385776*
X318189Y388401D02*
X318462Y388588D01*
X318871Y389151*
Y385213*
X343583Y388443D02*
X343310Y388818D01*
X342901Y389005*
X342355*
X341946Y388818*
X341674Y388443*
Y388068*
X341810Y387693*
X341946Y387505*
X342219Y387318*
X343037Y386943*
X343310Y386755*
X343446Y386568*
X343583Y386193*
Y385630*
X343310Y385255*
X342901Y385068*
X342355*
X341946Y385255*
X341674Y385630*
X344946Y388068D02*
Y388255D01*
X345083Y388630*
X345219Y388818*
X345492Y389005*
X346037*
X346310Y388818*
X346446Y388630*
X346583Y388255*
Y387880*
X346446Y387505*
X346174Y386943*
X344810Y385068*
X346719*
X232428Y456297D02*
X236365D01*
X232428D02*
Y457524D01*
X232615Y457933*
X232803Y458069*
X233178Y458206*
X233553*
X233928Y458069*
X234115Y457933*
X234303Y457524*
Y456297*
Y457251D02*
X236365Y458206D01*
X233178Y459433D02*
X232990Y459706D01*
X232428Y460115*
X236365*
X233740Y463115D02*
X234303Y462978D01*
X234678Y462706*
X234865Y462297*
Y462160*
X234678Y461751*
X234303Y461478*
X233740Y461342*
X233553*
X232990Y461478*
X232615Y461751*
X232428Y462160*
Y462297*
X232615Y462706*
X232990Y462978*
X233740Y463115*
X234678*
X235615Y462978*
X236178Y462706*
X236365Y462297*
Y462024*
X236178Y461615*
X235803Y461478*
X270930Y440873D02*
Y436936D01*
Y440873D02*
X272158D01*
X272567Y440686*
X272703Y440498*
X272839Y440123*
Y439748*
X272703Y439373*
X272567Y439186*
X272158Y438998*
X270930*
X271885D02*
X272839Y436936D01*
X275430Y440873D02*
X274067Y438248D01*
X276112*
X275430Y440873D02*
Y436936D01*
X259630Y432314D02*
X259817Y432041D01*
X260192Y431768*
X260567Y431632*
X261130Y431496*
X262067*
X262630Y431632*
X263005Y431768*
X263380Y432041*
X263567Y432314*
Y432859*
X263380Y433132*
X263005Y433405*
X262630Y433541*
X262067Y433677*
X261130*
X260567Y433541*
X260192Y433405*
X259817Y433132*
X259630Y432859*
Y432314*
X262817Y432723D02*
X263942Y433541D01*
X260567Y435041D02*
X260380D01*
X260005Y435177*
X259817Y435314*
X259630Y435586*
Y436132*
X259817Y436405*
X260005Y436541*
X260380Y436677*
X260755*
X261130Y436541*
X261692Y436268*
X263567Y434905*
Y436814*
X260290Y499156D02*
X260478Y498883D01*
X260853Y498611*
X261228Y498474*
X261790Y498338*
X262728*
X263290Y498474*
X263665Y498611*
X264040Y498883*
X264228Y499156*
Y499702*
X264040Y499974*
X263665Y500247*
X263290Y500383*
X262728Y500520*
X261790*
X261228Y500383*
X260853Y500247*
X260478Y499974*
X260290Y499702*
Y499156*
X263478Y499565D02*
X264603Y500383D01*
X260290Y503111D02*
X262915Y501747D01*
Y503793*
X260290Y503111D02*
X264228D01*
X271343Y505655D02*
Y501717D01*
Y505655D02*
X272571D01*
X272980Y505467*
X273116Y505280*
X273252Y504905*
Y504530*
X273116Y504155*
X272980Y503967*
X272571Y503780*
X271343*
X272298D02*
X273252Y501717D01*
X274480Y504905D02*
X274752Y505092D01*
X275162Y505655*
Y501717*
X276525Y504717D02*
Y504905D01*
X276662Y505280*
X276798Y505467*
X277071Y505655*
X277616*
X277889Y505467*
X278025Y505280*
X278162Y504905*
Y504530*
X278025Y504155*
X277752Y503592*
X276389Y501717*
X278298*
X271365Y527734D02*
Y523797D01*
Y527734D02*
X272593D01*
X273002Y527547*
X273138Y527359*
X273274Y526984*
Y526609*
X273138Y526234*
X273002Y526047*
X272593Y525859*
X271365*
X272320D02*
X273274Y523797D01*
X274502Y526984D02*
X274774Y527172D01*
X275184Y527734*
Y523797*
X278184Y527734D02*
X276820D01*
X276684Y526047*
X276820Y526234*
X277229Y526422*
X277638*
X278047Y526234*
X278320Y525859*
X278456Y525297*
X278320Y524922*
X278184Y524359*
X277911Y523984*
X277502Y523797*
X277093*
X276684Y523984*
X276547Y524172*
X276411Y524547*
X271416Y500434D02*
Y496497D01*
Y500434D02*
X272643D01*
X273052Y500247*
X273189Y500059*
X273325Y499684*
Y499309*
X273189Y498934*
X273052Y498747*
X272643Y498559*
X271416*
X272370D02*
X273325Y496497D01*
X274552Y499684D02*
X274825Y499872D01*
X275234Y500434*
Y496497*
X276461Y499684D02*
X276734Y499872D01*
X277143Y500434*
Y496497*
X372223Y391349D02*
X371848Y391213D01*
X371473Y390940*
X371286Y390667*
Y390122*
X371473Y389849*
X371848Y389576*
X372223Y389440*
X372786Y389304*
X373723*
X374286Y389440*
X374661Y389576*
X375036Y389849*
X375223Y390122*
Y390667*
X375036Y390940*
X374661Y391213*
X374286Y391349*
X371286Y394485D02*
X375223Y393122D01*
X371286Y392576D02*
Y394485D01*
X399743Y458854D02*
X399607Y459229D01*
X399334Y459604*
X399061Y459791*
X398516*
X398243Y459604*
X397970Y459229*
X397834Y458854*
X397698Y458291*
Y457354*
X397834Y456791*
X397970Y456416*
X398243Y456041*
X398516Y455854*
X399061*
X399334Y456041*
X399607Y456416*
X399743Y456791*
X402607Y459229D02*
X402470Y459604D01*
X402061Y459791*
X401788*
X401379Y459604*
X401107Y459041*
X400970Y458104*
Y457166*
X401107Y456416*
X401379Y456041*
X401788Y455854*
X401925*
X402334Y456041*
X402607Y456416*
X402743Y456979*
Y457166*
X402607Y457729*
X402334Y458104*
X401925Y458291*
X401788*
X401379Y458104*
X401107Y457729*
X400970Y457166*
X253365Y408342D02*
X252990Y408206D01*
X252615Y407933*
X252428Y407660*
Y407115*
X252615Y406842*
X252990Y406569*
X253365Y406433*
X253928Y406297*
X254865*
X255428Y406433*
X255803Y406569*
X256178Y406842*
X256365Y407115*
Y407660*
X256178Y407933*
X255803Y408206*
X255428Y408342*
X253178Y409569D02*
X252990Y409842D01*
X252428Y410251*
X256365*
X328411Y421797D02*
X328274Y422172D01*
X328002Y422547*
X327729Y422734*
X327184*
X326911Y422547*
X326638Y422172*
X326502Y421797*
X326365Y421234*
Y420297*
X326502Y419734*
X326638Y419359*
X326911Y418984*
X327184Y418797*
X327729*
X328002Y418984*
X328274Y419359*
X328411Y419734*
X329774Y421797D02*
Y421984D01*
X329911Y422359*
X330047Y422547*
X330320Y422734*
X330865*
X331138Y422547*
X331274Y422359*
X331411Y421984*
Y421609*
X331274Y421234*
X331002Y420672*
X329638Y418797*
X331547*
X332911Y421797D02*
Y421984D01*
X333047Y422359*
X333184Y422547*
X333456Y422734*
X334002*
X334274Y422547*
X334411Y422359*
X334547Y421984*
Y421609*
X334411Y421234*
X334138Y420672*
X332774Y418797*
X334684*
X233365Y408342D02*
X232990Y408206D01*
X232615Y407933*
X232428Y407660*
Y407115*
X232615Y406842*
X232990Y406569*
X233365Y406433*
X233928Y406297*
X234865*
X235428Y406433*
X235803Y406569*
X236178Y406842*
X236365Y407115*
Y407660*
X236178Y407933*
X235803Y408206*
X235428Y408342*
X233178Y409569D02*
X232990Y409842D01*
X232428Y410251*
X236365*
X233365Y411615D02*
X233178D01*
X232803Y411751*
X232615Y411888*
X232428Y412160*
Y412706*
X232615Y412978*
X232803Y413115*
X233178Y413251*
X233553*
X233928Y413115*
X234490Y412842*
X236365Y411478*
Y413388*
X233365Y478342D02*
X232990Y478206D01*
X232615Y477933*
X232428Y477660*
Y477115*
X232615Y476842*
X232990Y476569*
X233365Y476433*
X233928Y476297*
X234865*
X235428Y476433*
X235803Y476569*
X236178Y476842*
X236365Y477115*
Y477660*
X236178Y477933*
X235803Y478206*
X235428Y478342*
X233178Y479569D02*
X232990Y479842D01*
X232428Y480251*
X236365*
X232428Y481751D02*
Y483251D01*
X233928Y482433*
Y482842*
X234115Y483115*
X234303Y483251*
X234865Y483388*
X235240*
X235803Y483251*
X236178Y482978*
X236365Y482569*
Y482160*
X236178Y481751*
X235990Y481615*
X235615Y481478*
X183411Y361797D02*
X183274Y362172D01*
X183002Y362547*
X182729Y362734*
X182184*
X181911Y362547*
X181638Y362172*
X181502Y361797*
X181365Y361234*
Y360297*
X181502Y359734*
X181638Y359359*
X181911Y358984*
X182184Y358797*
X182729*
X183002Y358984*
X183274Y359359*
X183411Y359734*
X184638Y361984D02*
X184911Y362172D01*
X185320Y362734*
Y358797*
X187911Y362734D02*
X186547Y360109D01*
X188593*
X187911Y362734D02*
Y358797D01*
X130865Y375842D02*
X130490Y375706D01*
X130115Y375433*
X129928Y375160*
Y374615*
X130115Y374342*
X130490Y374069*
X130865Y373933*
X131428Y373797*
X132365*
X132928Y373933*
X133303Y374069*
X133678Y374342*
X133865Y374615*
Y375160*
X133678Y375433*
X133303Y375706*
X132928Y375842*
X130678Y377069D02*
X130490Y377342D01*
X129928Y377751*
X133865*
X129928Y380751D02*
Y379388D01*
X131615Y379251*
X131428Y379388*
X131240Y379797*
Y380206*
X131428Y380615*
X131803Y380888*
X132365Y381024*
X132740Y380888*
X133303Y380751*
X133678Y380478*
X133865Y380069*
Y379660*
X133678Y379251*
X133490Y379115*
X133115Y378978*
X130865Y395842D02*
X130490Y395706D01*
X130115Y395433*
X129928Y395160*
Y394615*
X130115Y394342*
X130490Y394069*
X130865Y393933*
X131428Y393797*
X132365*
X132928Y393933*
X133303Y394069*
X133678Y394342*
X133865Y394615*
Y395160*
X133678Y395433*
X133303Y395706*
X132928Y395842*
X130678Y397069D02*
X130490Y397342D01*
X129928Y397751*
X133865*
X130490Y400615D02*
X130115Y400478D01*
X129928Y400069*
Y399797*
X130115Y399388*
X130678Y399115*
X131615Y398978*
X132553*
X133303Y399115*
X133678Y399388*
X133865Y399797*
Y399933*
X133678Y400342*
X133303Y400615*
X132740Y400751*
X132553*
X131990Y400615*
X131615Y400342*
X131428Y399933*
Y399797*
X131615Y399388*
X131990Y399115*
X132553Y398978*
X130865Y418342D02*
X130490Y418206D01*
X130115Y417933*
X129928Y417660*
Y417115*
X130115Y416842*
X130490Y416569*
X130865Y416433*
X131428Y416297*
X132365*
X132928Y416433*
X133303Y416569*
X133678Y416842*
X133865Y417115*
Y417660*
X133678Y417933*
X133303Y418206*
X132928Y418342*
X130678Y419569D02*
X130490Y419842D01*
X129928Y420251*
X133865*
X129928Y423388D02*
X133865Y422024D01*
X129928Y421478D02*
Y423388D01*
X130865Y448342D02*
X130490Y448206D01*
X130115Y447933*
X129928Y447660*
Y447115*
X130115Y446842*
X130490Y446569*
X130865Y446433*
X131428Y446297*
X132365*
X132928Y446433*
X133303Y446569*
X133678Y446842*
X133865Y447115*
Y447660*
X133678Y447933*
X133303Y448206*
X132928Y448342*
X130678Y449569D02*
X130490Y449842D01*
X129928Y450251*
X133865*
X129928Y452160D02*
X130115Y451751D01*
X130490Y451615*
X130865*
X131240Y451751*
X131428Y452024*
X131615Y452569*
X131803Y452978*
X132178Y453251*
X132553Y453388*
X133115*
X133490Y453251*
X133678Y453115*
X133865Y452706*
Y452160*
X133678Y451751*
X133490Y451615*
X133115Y451478*
X132553*
X132178Y451615*
X131803Y451888*
X131615Y452297*
X131428Y452842*
X131240Y453115*
X130865Y453251*
X130490*
X130115Y453115*
X129928Y452706*
Y452160*
X130865Y483342D02*
X130490Y483206D01*
X130115Y482933*
X129928Y482660*
Y482115*
X130115Y481842*
X130490Y481569*
X130865Y481433*
X131428Y481297*
X132365*
X132928Y481433*
X133303Y481569*
X133678Y481842*
X133865Y482115*
Y482660*
X133678Y482933*
X133303Y483206*
X132928Y483342*
X130678Y484569D02*
X130490Y484842D01*
X129928Y485251*
X133865*
X131240Y488251D02*
X131803Y488115D01*
X132178Y487842*
X132365Y487433*
Y487297*
X132178Y486888*
X131803Y486615*
X131240Y486478*
X131053*
X130490Y486615*
X130115Y486888*
X129928Y487297*
Y487433*
X130115Y487842*
X130490Y488115*
X131240Y488251*
X132178*
X133115Y488115*
X133678Y487842*
X133865Y487433*
Y487160*
X133678Y486751*
X133303Y486615*
X170865Y448342D02*
X170490Y448206D01*
X170115Y447933*
X169928Y447660*
Y447115*
X170115Y446842*
X170490Y446569*
X170865Y446433*
X171428Y446297*
X172365*
X172928Y446433*
X173303Y446569*
X173678Y446842*
X173865Y447115*
Y447660*
X173678Y447933*
X173303Y448206*
X172928Y448342*
X170865Y449706D02*
X170678D01*
X170303Y449842*
X170115Y449978*
X169928Y450251*
Y450797*
X170115Y451069*
X170303Y451206*
X170678Y451342*
X171053*
X171428Y451206*
X171990Y450933*
X173865Y449569*
Y451478*
X130865Y515842D02*
X130490Y515706D01*
X130115Y515433*
X129928Y515160*
Y514615*
X130115Y514342*
X130490Y514069*
X130865Y513933*
X131428Y513797*
X132365*
X132928Y513933*
X133303Y514069*
X133678Y514342*
X133865Y514615*
Y515160*
X133678Y515433*
X133303Y515706*
X132928Y515842*
X130865Y517206D02*
X130678D01*
X130303Y517342*
X130115Y517478*
X129928Y517751*
Y518297*
X130115Y518569*
X130303Y518706*
X130678Y518842*
X131053*
X131428Y518706*
X131990Y518433*
X133865Y517069*
Y518978*
X129928Y521024D02*
X130115Y520615D01*
X130678Y520342*
X131615Y520206*
X132178*
X133115Y520342*
X133678Y520615*
X133865Y521024*
Y521297*
X133678Y521706*
X133115Y521978*
X132178Y522115*
X131615*
X130678Y521978*
X130115Y521706*
X129928Y521297*
Y521024*
X442031Y387310D02*
X441894Y387685D01*
X441894D02*
X441622Y388060D01*
X441622D02*
X441349Y388247D01*
X440803*
X440531Y388060*
X440531D02*
X440258Y387685D01*
X440258D02*
X440122Y387310D01*
X440122D02*
X439985Y386747D01*
Y385810*
X439985D02*
X440122Y385247D01*
X440258Y384872*
X440531Y384497*
X440803Y384310*
X440803D02*
X441349D01*
X441349D02*
X441622Y384497D01*
X441894Y384872*
X442031Y385247*
X443394Y387310D02*
Y387497D01*
X443531Y387872*
X443667Y388060*
X443667D02*
X443940Y388247D01*
X444485*
X444758Y388060*
X444758D02*
X444894Y387872D01*
X445031Y387497*
Y387122*
X444894Y386747*
X444622Y386185*
X444622D02*
X443258Y384310D01*
X443258D02*
X445167D01*
X446394Y387497D02*
X446667Y387685D01*
X446667D02*
X447076Y388247D01*
Y384310*
X382856Y354941D02*
X382481Y354804D01*
X382106Y354532*
X381918Y354259*
Y353713*
X382106Y353441*
X382481Y353168*
X382856Y353032*
X383418Y352895*
X384356*
X384918Y353032*
X385293Y353168*
X385668Y353441*
X385856Y353713*
Y354259*
X385668Y354532*
X385293Y354804*
X384918Y354941*
X382668Y356168D02*
X382481Y356441D01*
X381918Y356850*
X385856*
X381918Y358895D02*
X382106Y358486D01*
X382668Y358213*
X383606Y358077*
X384168*
X385106Y358213*
X385668Y358486*
X385856Y358895*
Y359168*
X385668Y359577*
X385106Y359850*
X384168Y359986*
X383606*
X382668Y359850*
X382106Y359577*
X381918Y359168*
Y358895*
X250865Y475842D02*
X250490Y475706D01*
X250115Y475433*
X249928Y475160*
Y474615*
X250115Y474342*
X250490Y474069*
X250865Y473933*
X251428Y473797*
X252365*
X252928Y473933*
X253303Y474069*
X253678Y474342*
X253865Y474615*
Y475160*
X253678Y475433*
X253303Y475706*
X252928Y475842*
X249928Y477342D02*
Y478842D01*
X251428Y478024*
Y478433*
X251615Y478706*
X251803Y478842*
X252365Y478978*
X252740*
X253303Y478842*
X253678Y478569*
X253865Y478160*
Y477751*
X253678Y477342*
X253490Y477206*
X253115Y477069*
X170865Y513342D02*
X170490Y513206D01*
X170115Y512933*
X169928Y512660*
Y512115*
X170115Y511842*
X170490Y511569*
X170865Y511433*
X171428Y511297*
X172365*
X172928Y511433*
X173303Y511569*
X173678Y511842*
X173865Y512115*
Y512660*
X173678Y512933*
X173303Y513206*
X172928Y513342*
X169928Y515933D02*
X172553Y514569D01*
Y516615*
X169928Y515933D02*
X173865D01*
X328411Y436797D02*
X328274Y437172D01*
X328002Y437547*
X327729Y437734*
X327184*
X326911Y437547*
X326638Y437172*
X326502Y436797*
X326365Y436234*
Y435297*
X326502Y434734*
X326638Y434359*
X326911Y433984*
X327184Y433797*
X327729*
X328002Y433984*
X328274Y434359*
X328411Y434734*
X331411Y437734D02*
X330047D01*
X329911Y436047*
X330047Y436234*
X330456Y436422*
X330865*
X331274Y436234*
X331547Y435859*
X331684Y435297*
X331547Y434922*
X331411Y434359*
X331138Y433984*
X330729Y433797*
X330320*
X329911Y433984*
X329774Y434172*
X329638Y434547*
X382627Y462260D02*
X382252Y462124D01*
X381877Y461851*
X381689Y461578*
Y461033*
X381877Y460760*
X382252Y460487*
X382627Y460351*
X383189Y460214*
X384127*
X384689Y460351*
X385064Y460487*
X385439Y460760*
X385627Y461033*
Y461578*
X385439Y461851*
X385064Y462124*
X384689Y462260*
X381689Y464169D02*
X381877Y463760D01*
X382252Y463624*
X382627*
X383002Y463760*
X383189Y464033*
X383377Y464578*
X383564Y464987*
X383939Y465260*
X384314Y465396*
X384877*
X385252Y465260*
X385439Y465124*
X385627Y464714*
Y464169*
X385439Y463760*
X385252Y463624*
X384877Y463487*
X384314*
X383939Y463624*
X383564Y463896*
X383377Y464305*
X383189Y464851*
X383002Y465124*
X382627Y465260*
X382252*
X381877Y465124*
X381689Y464714*
Y464169*
X328411Y444297D02*
X328274Y444672D01*
X328002Y445047*
X327729Y445234*
X327184*
X326911Y445047*
X326638Y444672*
X326502Y444297*
X326365Y443734*
Y442797*
X326502Y442234*
X326638Y441859*
X326911Y441484*
X327184Y441297*
X327729*
X328002Y441484*
X328274Y441859*
X328411Y442234*
X331411Y443922D02*
X331274Y443359D01*
X331002Y442984*
X330593Y442797*
X330456*
X330047Y442984*
X329774Y443359*
X329638Y443922*
Y444109*
X329774Y444672*
X330047Y445047*
X330456Y445234*
X330593*
X331002Y445047*
X331274Y444672*
X331411Y443922*
Y442984*
X331274Y442047*
X331002Y441484*
X330593Y441297*
X330320*
X329911Y441484*
X329774Y441859*
X205428Y517797D02*
X208240D01*
X208803Y517933*
X209178Y518206*
X209365Y518615*
Y518888*
X209178Y519297*
X208803Y519569*
X208240Y519706*
X205428*
X206178Y520933D02*
X205990Y521206D01*
X205428Y521615*
X209365*
X205428Y523660D02*
X205615Y523251D01*
X206178Y522978*
X207115Y522842*
X207678*
X208615Y522978*
X209178Y523251*
X209365Y523660*
Y523933*
X209178Y524342*
X208615Y524615*
X207678Y524751*
X207115*
X206178Y524615*
X205615Y524342*
X205428Y523933*
Y523660*
Y452797D02*
X208240D01*
X208803Y452933*
X209178Y453206*
X209365Y453615*
Y453888*
X209178Y454297*
X208803Y454569*
X208240Y454706*
X205428*
X206740Y457706D02*
X207303Y457569D01*
X207678Y457297*
X207865Y456888*
Y456751*
X207678Y456342*
X207303Y456069*
X206740Y455933*
X206553*
X205990Y456069*
X205615Y456342*
X205428Y456751*
Y456888*
X205615Y457297*
X205990Y457569*
X206740Y457706*
X207678*
X208615Y457569*
X209178Y457297*
X209365Y456888*
Y456615*
X209178Y456206*
X208803Y456069*
X203865Y405234D02*
Y402422D01*
X204002Y401859*
X204274Y401484*
X204684Y401297*
X204956*
X205365Y401484*
X205638Y401859*
X205774Y402422*
Y405234*
X207002Y404484D02*
X207274Y404672D01*
X207684Y405234*
Y401297*
X208911Y404484D02*
X209184Y404672D01*
X209593Y405234*
Y401297*
X331365Y477734D02*
Y474922D01*
X331502Y474359*
X331774Y473984*
X332184Y473797*
X332456*
X332865Y473984*
X333138Y474359*
X333274Y474922*
Y477734*
X334638Y476797D02*
Y476984D01*
X334774Y477359*
X334911Y477547*
X335184Y477734*
X335729*
X336002Y477547*
X336138Y477359*
X336274Y476984*
Y476609*
X336138Y476234*
X335865Y475672*
X334502Y473797*
X336411*
X291365Y430234D02*
Y426297D01*
Y430234D02*
X292593D01*
X293002Y430047*
X293138Y429859*
X293274Y429484*
Y429109*
X293138Y428734*
X293002Y428547*
X292593Y428359*
X291365*
X292320D02*
X293274Y426297D01*
X294502Y429484D02*
X294774Y429672D01*
X295184Y430234*
Y426297*
X291365Y500234D02*
Y496297D01*
Y500234D02*
X292593D01*
X293002Y500047*
X293138Y499859*
X293274Y499484*
Y499109*
X293138Y498734*
X293002Y498547*
X292593Y498359*
X291365*
X292320D02*
X293274Y496297D01*
X294502Y499484D02*
X294774Y499672D01*
X295184Y500234*
Y496297*
X297229Y500234D02*
X296820Y500047D01*
X296547Y499484*
X296411Y498547*
Y497984*
X296547Y497047*
X296820Y496484*
X297229Y496297*
X297502*
X297911Y496484*
X298184Y497047*
X298320Y497984*
Y498547*
X298184Y499484*
X297911Y500047*
X297502Y500234*
X297229*
X291365Y527734D02*
Y523797D01*
Y527734D02*
X292593D01*
X293002Y527547*
X293138Y527359*
X293274Y526984*
Y526609*
X293138Y526234*
X293002Y526047*
X292593Y525859*
X291365*
X292320D02*
X293274Y523797D01*
X294502Y526984D02*
X294774Y527172D01*
X295184Y527734*
Y523797*
X296684Y527734D02*
X298184D01*
X297365Y526234*
X297774*
X298047Y526047*
X298184Y525859*
X298320Y525297*
Y524922*
X298184Y524359*
X297911Y523984*
X297502Y523797*
X297093*
X296684Y523984*
X296547Y524172*
X296411Y524547*
X291365Y532734D02*
Y528797D01*
Y532734D02*
X292593D01*
X293002Y532547*
X293138Y532359*
X293274Y531984*
Y531609*
X293138Y531234*
X293002Y531047*
X292593Y530859*
X291365*
X292320D02*
X293274Y528797D01*
X294502Y531984D02*
X294774Y532172D01*
X295184Y532734*
Y528797*
X297774Y532734D02*
X296411Y530109D01*
X298456*
X297774Y532734D02*
Y528797D01*
X271365Y532734D02*
Y528797D01*
Y532734D02*
X272593D01*
X273002Y532547*
X273138Y532359*
X273274Y531984*
Y531609*
X273138Y531234*
X273002Y531047*
X272593Y530859*
X271365*
X272320D02*
X273274Y528797D01*
X274502Y531984D02*
X274774Y532172D01*
X275184Y532734*
Y528797*
X278047Y532172D02*
X277911Y532547D01*
X277502Y532734*
X277229*
X276820Y532547*
X276547Y531984*
X276411Y531047*
Y530109*
X276547Y529359*
X276820Y528984*
X277229Y528797*
X277365*
X277774Y528984*
X278047Y529359*
X278184Y529922*
Y530109*
X278047Y530672*
X277774Y531047*
X277365Y531234*
X277229*
X276820Y531047*
X276547Y530672*
X276411Y530109*
X252428Y453797D02*
X256365D01*
X252428D02*
Y455024D01*
X252615Y455433*
X252803Y455569*
X253178Y455706*
X253553*
X253928Y455569*
X254115Y455433*
X254303Y455024*
Y453797*
Y454751D02*
X256365Y455706D01*
X253178Y456933D02*
X252990Y457206D01*
X252428Y457615*
X256365*
X252428Y460751D02*
X256365Y459388D01*
X252428Y458842D02*
Y460751D01*
Y431297D02*
X256365D01*
X252428D02*
Y432524D01*
X252615Y432933*
X252803Y433069*
X253178Y433206*
X253553*
X253928Y433069*
X254115Y432933*
X254303Y432524*
Y431297*
Y432251D02*
X256365Y433206D01*
X253178Y434433D02*
X252990Y434706D01*
X252428Y435115*
X256365*
X252428Y437024D02*
X252615Y436615D01*
X252990Y436478*
X253365*
X253740Y436615*
X253928Y436888*
X254115Y437433*
X254303Y437842*
X254678Y438115*
X255053Y438251*
X255615*
X255990Y438115*
X256178Y437978*
X256365Y437569*
Y437024*
X256178Y436615*
X255990Y436478*
X255615Y436342*
X255053*
X254678Y436478*
X254303Y436751*
X254115Y437160*
X253928Y437706*
X253740Y437978*
X253365Y438115*
X252990*
X252615Y437978*
X252428Y437569*
Y437024*
X291365Y435234D02*
Y431297D01*
Y435234D02*
X292593D01*
X293002Y435047*
X293138Y434859*
X293274Y434484*
Y434109*
X293138Y433734*
X293002Y433547*
X292593Y433359*
X291365*
X292320D02*
X293274Y431297D01*
X294638Y434297D02*
Y434484D01*
X294774Y434859*
X294911Y435047*
X295184Y435234*
X295729*
X296002Y435047*
X296138Y434859*
X296274Y434484*
Y434109*
X296138Y433734*
X295865Y433172*
X294502Y431297*
X296411*
X169928Y428797D02*
X173865D01*
X169928D02*
Y430024D01*
X170115Y430433*
X170303Y430569*
X170678Y430706*
X171053*
X171428Y430569*
X171615Y430433*
X171803Y430024*
Y428797*
Y429751D02*
X173865Y430706D01*
X170865Y432069D02*
X170678D01*
X170303Y432206*
X170115Y432342*
X169928Y432615*
Y433160*
X170115Y433433*
X170303Y433569*
X170678Y433706*
X171053*
X171428Y433569*
X171990Y433297*
X173865Y431933*
Y433842*
X169928Y435888D02*
X170115Y435478D01*
X170678Y435206*
X171615Y435069*
X172178*
X173115Y435206*
X173678Y435478*
X173865Y435888*
Y436160*
X173678Y436569*
X173115Y436842*
X172178Y436978*
X171615*
X170678Y436842*
X170115Y436569*
X169928Y436160*
Y435888*
Y413797D02*
X173865D01*
X169928D02*
Y415024D01*
X170115Y415433*
X170303Y415569*
X170678Y415706*
X171053*
X171428Y415569*
X171615Y415433*
X171803Y415024*
Y413797*
Y414751D02*
X173865Y415706D01*
X170865Y417069D02*
X170678D01*
X170303Y417206*
X170115Y417342*
X169928Y417615*
Y418160*
X170115Y418433*
X170303Y418569*
X170678Y418706*
X171053*
X171428Y418569*
X171990Y418297*
X173865Y416933*
Y418842*
X170678Y420069D02*
X170490Y420342D01*
X169928Y420751*
X173865*
X249928Y518797D02*
X253865D01*
X249928D02*
Y520024D01*
X250115Y520433*
X250303Y520569*
X250678Y520706*
X251053*
X251428Y520569*
X251615Y520433*
X251803Y520024*
Y518797*
Y519751D02*
X253865Y520706D01*
X250865Y522069D02*
X250678D01*
X250303Y522206*
X250115Y522342*
X249928Y522615*
Y523160*
X250115Y523433*
X250303Y523569*
X250678Y523706*
X251053*
X251428Y523569*
X251990Y523297*
X253865Y521933*
Y523842*
X249928Y526433D02*
X252553Y525069D01*
Y527115*
X249928Y526433D02*
X253865D01*
X232428Y518797D02*
X236365D01*
X232428D02*
Y520024D01*
X232615Y520433*
X232803Y520569*
X233178Y520706*
X233553*
X233928Y520569*
X234115Y520433*
X234303Y520024*
Y518797*
Y519751D02*
X236365Y520706D01*
X233365Y522069D02*
X233178D01*
X232803Y522206*
X232615Y522342*
X232428Y522615*
Y523160*
X232615Y523433*
X232803Y523569*
X233178Y523706*
X233553*
X233928Y523569*
X234490Y523297*
X236365Y521933*
Y523842*
X232428Y526842D02*
Y525478D01*
X234115Y525342*
X233928Y525478*
X233740Y525888*
Y526297*
X233928Y526706*
X234303Y526978*
X234865Y527115*
X235240Y526978*
X235803Y526842*
X236178Y526569*
X236365Y526160*
Y525751*
X236178Y525342*
X235990Y525206*
X235615Y525069*
X187428Y503797D02*
X191365D01*
X187428D02*
Y505024D01*
X187615Y505433*
X187803Y505569*
X188178Y505706*
X188553*
X188928Y505569*
X189115Y505433*
X189303Y505024*
Y503797*
Y504751D02*
X191365Y505706D01*
X188365Y507069D02*
X188178D01*
X187803Y507206*
X187615Y507342*
X187428Y507615*
Y508160*
X187615Y508433*
X187803Y508569*
X188178Y508706*
X188553*
X188928Y508569*
X189490Y508297*
X191365Y506933*
Y508842*
X187990Y511706D02*
X187615Y511569D01*
X187428Y511160*
Y510888*
X187615Y510478*
X188178Y510206*
X189115Y510069*
X190053*
X190803Y510206*
X191178Y510478*
X191365Y510888*
Y511024*
X191178Y511433*
X190803Y511706*
X190240Y511842*
X190053*
X189490Y511706*
X189115Y511433*
X188928Y511024*
Y510888*
X189115Y510478*
X189490Y510206*
X190053Y510069*
X169928Y478797D02*
X173865D01*
X169928D02*
Y480024D01*
X170115Y480433*
X170303Y480569*
X170678Y480706*
X171053*
X171428Y480569*
X171615Y480433*
X171803Y480024*
Y478797*
Y479751D02*
X173865Y480706D01*
X170865Y482069D02*
X170678D01*
X170303Y482206*
X170115Y482342*
X169928Y482615*
Y483160*
X170115Y483433*
X170303Y483569*
X170678Y483706*
X171053*
X171428Y483569*
X171990Y483297*
X173865Y481933*
Y483842*
X169928Y486978D02*
X173865Y485615D01*
X169928Y485069D02*
Y486978D01*
Y493797D02*
X173865D01*
X169928D02*
Y495024D01*
X170115Y495433*
X170303Y495569*
X170678Y495706*
X171053*
X171428Y495569*
X171615Y495433*
X171803Y495024*
Y493797*
Y494751D02*
X173865Y495706D01*
X170865Y497069D02*
X170678D01*
X170303Y497206*
X170115Y497342*
X169928Y497615*
Y498160*
X170115Y498433*
X170303Y498569*
X170678Y498706*
X171053*
X171428Y498569*
X171990Y498297*
X173865Y496933*
Y498842*
X169928Y500751D02*
X170115Y500342D01*
X170490Y500206*
X170865*
X171240Y500342*
X171428Y500615*
X171615Y501160*
X171803Y501569*
X172178Y501842*
X172553Y501978*
X173115*
X173490Y501842*
X173678Y501706*
X173865Y501297*
Y500751*
X173678Y500342*
X173490Y500206*
X173115Y500069*
X172553*
X172178Y500206*
X171803Y500478*
X171615Y500888*
X171428Y501433*
X171240Y501706*
X170865Y501842*
X170490*
X170115Y501706*
X169928Y501297*
Y500751*
X270958Y436098D02*
Y432161D01*
Y436098D02*
X272185D01*
X272594Y435911*
X272730Y435723*
X272867Y435348*
Y434973*
X272730Y434598*
X272594Y434411*
X272185Y434223*
X270958*
X271912D02*
X272867Y432161D01*
X274367Y436098D02*
X275867D01*
X275048Y434598*
X275458*
X275730Y434411*
X275867Y434223*
X276003Y433661*
Y433286*
X275867Y432723*
X275594Y432348*
X275185Y432161*
X274776*
X274367Y432348*
X274230Y432536*
X274094Y432911*
X177428Y381297D02*
X181365D01*
X177428D02*
Y382524D01*
X177615Y382933*
X177803Y383069*
X178178Y383206*
X178553*
X178928Y383069*
X179115Y382933*
X179303Y382524*
Y381297*
Y382251D02*
X181365Y383206D01*
X177428Y384706D02*
Y386206D01*
X178928Y385388*
Y385797*
X179115Y386069*
X179303Y386206*
X179865Y386342*
X180240*
X180803Y386206*
X181178Y385933*
X181365Y385524*
Y385115*
X181178Y384706*
X180990Y384569*
X180615Y384433*
X177428Y388388D02*
X177615Y387978D01*
X178178Y387706*
X179115Y387569*
X179678*
X180615Y387706*
X181178Y387978*
X181365Y388388*
Y388660*
X181178Y389069*
X180615Y389342*
X179678Y389478*
X179115*
X178178Y389342*
X177615Y389069*
X177428Y388660*
Y388388*
X163865Y362734D02*
Y358797D01*
Y362734D02*
X165093D01*
X165502Y362547*
X165638Y362359*
X165774Y361984*
Y361609*
X165638Y361234*
X165502Y361047*
X165093Y360859*
X163865*
X164820D02*
X165774Y358797D01*
X167274Y362734D02*
X168774D01*
X167956Y361234*
X168365*
X168638Y361047*
X168774Y360859*
X168911Y360297*
Y359922*
X168774Y359359*
X168502Y358984*
X168093Y358797*
X167684*
X167274Y358984*
X167138Y359172*
X167002Y359547*
X170274Y361797D02*
Y361984D01*
X170411Y362359*
X170547Y362547*
X170820Y362734*
X171365*
X171638Y362547*
X171774Y362359*
X171911Y361984*
Y361609*
X171774Y361234*
X171502Y360672*
X170138Y358797*
X172047*
X131365Y367734D02*
Y363797D01*
Y367734D02*
X132593D01*
X133002Y367547*
X133138Y367359*
X133274Y366984*
Y366609*
X133138Y366234*
X133002Y366047*
X132593Y365859*
X131365*
X132320D02*
X133274Y363797D01*
X134774Y367734D02*
X136274D01*
X135456Y366234*
X135865*
X136138Y366047*
X136274Y365859*
X136411Y365297*
Y364922*
X136274Y364359*
X136002Y363984*
X135593Y363797*
X135184*
X134774Y363984*
X134638Y364172*
X134502Y364547*
X137911Y367734D02*
X139411D01*
X138593Y366234*
X139002*
X139274Y366047*
X139411Y365859*
X139547Y365297*
Y364922*
X139411Y364359*
X139138Y363984*
X138729Y363797*
X138320*
X137911Y363984*
X137774Y364172*
X137638Y364547*
X239928Y381297D02*
X243865D01*
X239928D02*
Y382524D01*
X240115Y382933*
X240303Y383069*
X240678Y383206*
X241053*
X241428Y383069*
X241615Y382933*
X241803Y382524*
Y381297*
Y382251D02*
X243865Y383206D01*
X239928Y384706D02*
Y386206D01*
X241428Y385388*
Y385797*
X241615Y386069*
X241803Y386206*
X242365Y386342*
X242740*
X243303Y386206*
X243678Y385933*
X243865Y385524*
Y385115*
X243678Y384706*
X243490Y384569*
X243115Y384433*
X239928Y388933D02*
X242553Y387569D01*
Y389615*
X239928Y388933D02*
X243865D01*
X247428Y381297D02*
X251365D01*
X247428D02*
Y382524D01*
X247615Y382933*
X247803Y383069*
X248178Y383206*
X248553*
X248928Y383069*
X249115Y382933*
X249303Y382524*
Y381297*
Y382251D02*
X251365Y383206D01*
X247428Y384706D02*
Y386206D01*
X248928Y385388*
Y385797*
X249115Y386069*
X249303Y386206*
X249865Y386342*
X250240*
X250803Y386206*
X251178Y385933*
X251365Y385524*
Y385115*
X251178Y384706*
X250990Y384569*
X250615Y384433*
X247428Y389342D02*
Y387978D01*
X249115Y387842*
X248928Y387978*
X248740Y388388*
Y388797*
X248928Y389206*
X249303Y389478*
X249865Y389615*
X250240Y389478*
X250803Y389342*
X251178Y389069*
X251365Y388660*
Y388251*
X251178Y387842*
X250990Y387706*
X250615Y387569*
X326365Y430234D02*
Y426297D01*
Y430234D02*
X327593D01*
X328002Y430047*
X328138Y429859*
X328274Y429484*
Y429109*
X328138Y428734*
X328002Y428547*
X327593Y428359*
X326365*
X327320D02*
X328274Y426297D01*
X329774Y430234D02*
X331274D01*
X330456Y428734*
X330865*
X331138Y428547*
X331274Y428359*
X331411Y427797*
Y427422*
X331274Y426859*
X331002Y426484*
X330593Y426297*
X330184*
X329774Y426484*
X329638Y426672*
X329502Y427047*
X334274Y429672D02*
X334138Y430047D01*
X333729Y430234*
X333456*
X333047Y430047*
X332774Y429484*
X332638Y428547*
Y427609*
X332774Y426859*
X333047Y426484*
X333456Y426297*
X333593*
X334002Y426484*
X334274Y426859*
X334411Y427422*
Y427609*
X334274Y428172*
X334002Y428547*
X333593Y428734*
X333456*
X333047Y428547*
X332774Y428172*
X332638Y427609*
X387025Y460317D02*
X390963D01*
X387025D02*
Y461544D01*
X387213Y461953*
X387400Y462090*
X387775Y462226*
X388150*
X388525Y462090*
X388713Y461953*
X388900Y461544*
Y460317*
Y461272D02*
X390963Y462226D01*
X387025Y463726D02*
Y465226D01*
X388525Y464408*
Y464817*
X388713Y465090*
X388900Y465226*
X389463Y465363*
X389838*
X390400Y465226*
X390775Y464953*
X390963Y464544*
Y464135*
X390775Y463726*
X390588Y463590*
X390213Y463453*
X387025Y468499D02*
X390963Y467135D01*
X387025Y466590D02*
Y468499D01*
X365486Y389465D02*
X369424D01*
X365486D02*
Y390692D01*
X365674Y391101*
X365861Y391237*
X366236Y391374*
X366611*
X366986Y391237*
X367174Y391101*
X367361Y390692*
Y389465*
Y390419D02*
X369424Y391374D01*
X365486Y392874D02*
Y394374D01*
X366986Y393556*
Y393965*
X367174Y394237*
X367361Y394374*
X367924Y394510*
X368299*
X368861Y394374*
X369236Y394101*
X369424Y393692*
Y393283*
X369236Y392874*
X369049Y392737*
X368674Y392601*
X365486Y396419D02*
X365674Y396010D01*
X366049Y395874*
X366424*
X366799Y396010*
X366986Y396283*
X367174Y396828*
X367361Y397237*
X367736Y397510*
X368111Y397646*
X368674*
X369049Y397510*
X369236Y397374*
X369424Y396965*
Y396419*
X369236Y396010*
X369049Y395874*
X368674Y395737*
X368111*
X367736Y395874*
X367361Y396146*
X367174Y396556*
X366986Y397101*
X366799Y397374*
X366424Y397510*
X366049*
X365674Y397374*
X365486Y396965*
Y396419*
X316365Y527734D02*
Y523797D01*
Y527734D02*
X317593D01*
X318002Y527547*
X318138Y527359*
X318274Y526984*
Y526609*
X318138Y526234*
X318002Y526047*
X317593Y525859*
X316365*
X317320D02*
X318274Y523797D01*
X320865Y527734D02*
X319502Y525109D01*
X321547*
X320865Y527734D02*
Y523797D01*
X322774Y526984D02*
X323047Y527172D01*
X323456Y527734*
Y523797*
X316365Y517734D02*
Y513797D01*
Y517734D02*
X317593D01*
X318002Y517547*
X318138Y517359*
X318274Y516984*
Y516609*
X318138Y516234*
X318002Y516047*
X317593Y515859*
X316365*
X317320D02*
X318274Y513797D01*
X320865Y517734D02*
X319502Y515109D01*
X321547*
X320865Y517734D02*
Y513797D01*
X322911Y516797D02*
Y516984D01*
X323047Y517359*
X323184Y517547*
X323456Y517734*
X324002*
X324274Y517547*
X324411Y517359*
X324547Y516984*
Y516609*
X324411Y516234*
X324138Y515672*
X322774Y513797*
X324684*
X316365Y507734D02*
Y503797D01*
Y507734D02*
X317593D01*
X318002Y507547*
X318138Y507359*
X318274Y506984*
Y506609*
X318138Y506234*
X318002Y506047*
X317593Y505859*
X316365*
X317320D02*
X318274Y503797D01*
X320865Y507734D02*
X319502Y505109D01*
X321547*
X320865Y507734D02*
Y503797D01*
X323047Y507734D02*
X324547D01*
X323729Y506234*
X324138*
X324411Y506047*
X324547Y505859*
X324684Y505297*
Y504922*
X324547Y504359*
X324274Y503984*
X323865Y503797*
X323456*
X323047Y503984*
X322911Y504172*
X322774Y504547*
X316365Y497734D02*
Y493797D01*
Y497734D02*
X317593D01*
X318002Y497547*
X318138Y497359*
X318274Y496984*
Y496609*
X318138Y496234*
X318002Y496047*
X317593Y495859*
X316365*
X317320D02*
X318274Y493797D01*
X320865Y497734D02*
X319502Y495109D01*
X321547*
X320865Y497734D02*
Y493797D01*
X324138Y497734D02*
X322774Y495109D01*
X324820*
X324138Y497734D02*
Y493797D01*
X291365Y462734D02*
Y458797D01*
Y462734D02*
X292593D01*
X293002Y462547*
X293138Y462359*
X293274Y461984*
Y461609*
X293138Y461234*
X293002Y461047*
X292593Y460859*
X291365*
X292320D02*
X293274Y458797D01*
X296274Y462734D02*
X294911D01*
X294774Y461047*
X294911Y461234*
X295320Y461422*
X295729*
X296138Y461234*
X296411Y460859*
X296547Y460297*
X296411Y459922*
X296274Y459359*
X296002Y458984*
X295593Y458797*
X295184*
X294774Y458984*
X294638Y459172*
X294502Y459547*
X291365Y467734D02*
Y463797D01*
Y467734D02*
X292593D01*
X293002Y467547*
X293138Y467359*
X293274Y466984*
Y466609*
X293138Y466234*
X293002Y466047*
X292593Y465859*
X291365*
X292320D02*
X293274Y463797D01*
X296138Y467172D02*
X296002Y467547D01*
X295593Y467734*
X295320*
X294911Y467547*
X294638Y466984*
X294502Y466047*
Y465109*
X294638Y464359*
X294911Y463984*
X295320Y463797*
X295456*
X295865Y463984*
X296138Y464359*
X296274Y464922*
Y465109*
X296138Y465672*
X295865Y466047*
X295456Y466234*
X295320*
X294911Y466047*
X294638Y465672*
X294502Y465109*
X271365Y462734D02*
Y458797D01*
Y462734D02*
X272593D01*
X273002Y462547*
X273138Y462359*
X273274Y461984*
Y461609*
X273138Y461234*
X273002Y461047*
X272593Y460859*
X271365*
X272320D02*
X273274Y458797D01*
X276411Y462734D02*
X275047Y458797D01*
X274502Y462734D02*
X276411D01*
X271365Y467734D02*
Y463797D01*
Y467734D02*
X272593D01*
X273002Y467547*
X273138Y467359*
X273274Y466984*
Y466609*
X273138Y466234*
X273002Y466047*
X272593Y465859*
X271365*
X272320D02*
X273274Y463797D01*
X275184Y467734D02*
X274774Y467547D01*
X274638Y467172*
Y466797*
X274774Y466422*
X275047Y466234*
X275593Y466047*
X276002Y465859*
X276274Y465484*
X276411Y465109*
Y464547*
X276274Y464172*
X276138Y463984*
X275729Y463797*
X275184*
X274774Y463984*
X274638Y464172*
X274502Y464547*
Y465109*
X274638Y465484*
X274911Y465859*
X275320Y466047*
X275865Y466234*
X276138Y466422*
X276274Y466797*
Y467172*
X276138Y467547*
X275729Y467734*
X275184*
X291365Y495234D02*
Y491297D01*
Y495234D02*
X292593D01*
X293002Y495047*
X293138Y494859*
X293274Y494484*
Y494109*
X293138Y493734*
X293002Y493547*
X292593Y493359*
X291365*
X292320D02*
X293274Y491297D01*
X296274Y493922D02*
X296138Y493359D01*
X295865Y492984*
X295456Y492797*
X295320*
X294911Y492984*
X294638Y493359*
X294502Y493922*
Y494109*
X294638Y494672*
X294911Y495047*
X295320Y495234*
X295456*
X295865Y495047*
X296138Y494672*
X296274Y493922*
Y492984*
X296138Y492047*
X295865Y491484*
X295456Y491297*
X295184*
X294774Y491484*
X294638Y491859*
X201789Y357618D02*
Y353680D01*
Y357618D02*
X203016D01*
X203425Y357430*
X203562Y357243*
X203698Y356868*
Y356493*
X203562Y356118*
X203425Y355930*
X203016Y355743*
X201789*
X202744D02*
X203698Y353680D01*
X205198Y357618D02*
X206698D01*
X205880Y356118*
X206289*
X206562Y355930*
X206698Y355743*
X206834Y355180*
Y354805*
X206698Y354243*
X206425Y353868*
X206016Y353680*
X205607*
X205198Y353868*
X205062Y354055*
X204925Y354430*
X208062Y356868D02*
X208334Y357055D01*
X208744Y357618*
Y353680*
X426543Y391237D02*
X430480D01*
X426543D02*
Y392464D01*
X426730Y392873*
X426918Y393009*
X427293Y393146*
X427668*
X428043Y393009*
X428230Y392873*
X428418Y392464*
Y391237*
Y392191D02*
X430480Y393146D01*
X426543Y394646D02*
Y396146D01*
X428043Y395328*
Y395737*
X428230Y396009*
X428418Y396146*
X428980Y396282*
X429355*
X429918Y396146*
X430293Y395873*
X430480Y395464*
Y395055*
X430293Y394646*
X430105Y394509*
X429730Y394373*
X427855Y399282D02*
X428418Y399146D01*
X428793Y398873*
X428980Y398464*
Y398328*
X428793Y397919*
X428418Y397646*
X427855Y397509*
X427668*
X427105Y397646*
X426730Y397919*
X426543Y398328*
Y398464*
X426730Y398873*
X427105Y399146*
X427855Y399282*
X428793*
X429730Y399146*
X430293Y398873*
X430480Y398464*
Y398191*
X430293Y397782*
X429918Y397646*
X407987Y361546D02*
X407612Y361409D01*
X407237Y361137*
X407050Y360864*
Y360318*
X407237Y360046*
X407612Y359773*
X407987Y359637*
X408550Y359500*
X409487*
X410050Y359637*
X410425Y359773*
X410800Y360046*
X410987Y360318*
Y360864*
X410800Y361137*
X410425Y361409*
X410050Y361546*
X407050Y362773D02*
X410987D01*
X407050Y364000D02*
X410987D01*
X407050D02*
X410987Y365909D01*
X407050D02*
X410987D01*
X147826Y464523D02*
Y461711D01*
X147963Y461148*
X148235Y460773*
X148645Y460586*
X148917*
X149326Y460773*
X149599Y461148*
X149735Y461711*
Y464523*
X152735D02*
X151372D01*
X151235Y462836*
X151372Y463023*
X151781Y463211*
X152190*
X152599Y463023*
X152872Y462648*
X153008Y462086*
X152872Y461711*
X152735Y461148*
X152463Y460773*
X152054Y460586*
X151645*
X151235Y460773*
X151099Y460961*
X150963Y461336*
X147792Y531808D02*
Y528995D01*
X147928Y528433*
X148201Y528058*
X148610Y527870*
X148883*
X149292Y528058*
X149564Y528433*
X149701Y528995*
Y531808*
X152837D02*
X151474Y527870D01*
X150928Y531808D02*
X152837D01*
X147871Y499673D02*
Y496860D01*
X148007Y496298*
X148280Y495923*
X148689Y495735*
X148962*
X149371Y495923*
X149644Y496298*
X149780Y496860*
Y499673*
X151689D02*
X151280Y499485D01*
X151144Y499110*
Y498735*
X151280Y498360*
X151553Y498173*
X152098Y497985*
X152507Y497798*
X152780Y497423*
X152916Y497048*
Y496485*
X152780Y496110*
X152644Y495923*
X152234Y495735*
X151689*
X151280Y495923*
X151144Y496110*
X151007Y496485*
Y497048*
X151144Y497423*
X151416Y497798*
X151825Y497985*
X152371Y498173*
X152644Y498360*
X152780Y498735*
Y499110*
X152644Y499485*
X152234Y499673*
X151689*
X428779Y374702D02*
Y371890D01*
X428915Y371327*
X429188Y370952*
X429597Y370765*
X429870*
X430279Y370952*
X430552Y371327*
X430688Y371890*
Y374702*
X433825Y374140D02*
X433552Y374515D01*
X433143Y374702*
X432597*
X432188Y374515*
X431915Y374140*
Y373765*
X432052Y373390*
X432188Y373202*
X432461Y373015*
X433279Y372640*
X433552Y372452*
X433688Y372265*
X433825Y371890*
X433825D02*
Y371327D01*
X433825D02*
X433552Y370952D01*
X433143Y370765*
X432597*
X432188Y370952*
X431915Y371327*
X435052Y374702D02*
Y370765D01*
Y374702D02*
X436279D01*
X436688Y374515*
X436825Y374327*
X436825D02*
X436961Y373952D01*
Y373577*
X436825Y373202*
X436825D02*
X436688Y373015D01*
X436279Y372827*
X435052D02*
X436279D01*
X436688Y372640*
X436825Y372452*
X436825D02*
X436961Y372077D01*
Y371515*
X436825Y371140*
X436825D02*
X436688Y370952D01*
X436279Y370765*
X435052*
X262428Y407115D02*
X262615Y406842D01*
X262990Y406569*
X263365Y406433*
X263928Y406297*
X264865*
X265428Y406433*
X265803Y406569*
X266178Y406842*
X266365Y407115*
Y407660*
X266178Y407933*
X265803Y408206*
X265428Y408342*
X264865Y408478*
X263928*
X263365Y408342*
X262990Y408206*
X262615Y407933*
X262428Y407660*
Y407115*
X265615Y407524D02*
X266740Y408342D01*
X263178Y409706D02*
X262990Y409978D01*
X262428Y410388*
X266365*
X262428Y472115D02*
X262615Y471842D01*
X262990Y471569*
X263365Y471433*
X263928Y471297*
X264865*
X265428Y471433*
X265803Y471569*
X266178Y471842*
X266365Y472115*
Y472660*
X266178Y472933*
X265803Y473206*
X265428Y473342*
X264865Y473478*
X263928*
X263365Y473342*
X262990Y473206*
X262615Y472933*
X262428Y472660*
Y472115*
X265615Y472524D02*
X266740Y473342D01*
X262428Y474978D02*
Y476478D01*
X263928Y475660*
Y476069*
X264115Y476342*
X264303Y476478*
X264865Y476615*
X265240*
X265803Y476478*
X266178Y476206*
X266365Y475797*
Y475388*
X266178Y474978*
X265990Y474842*
X265615Y474706*
X352729Y487734D02*
Y484734D01*
X352593Y484172*
X352456Y483984*
X352184Y483797*
X351911*
X351638Y483984*
X351502Y484172*
X351365Y484734*
Y485109*
X354229Y487734D02*
X355729D01*
X354911Y486234*
X355320*
X355593Y486047*
X355729Y485859*
X355865Y485297*
Y484922*
X355729Y484359*
X355456Y483984*
X355047Y483797*
X354638*
X354229Y483984*
X354093Y484172*
X353956Y484547*
X396365Y360234D02*
Y357422D01*
X396502Y356859*
X396774Y356484*
X397184Y356297*
X397456*
X397865Y356484*
X398138Y356859*
X398274Y357422*
Y360234*
X399502Y359484D02*
X399774Y359672D01*
X400184Y360234*
Y356297*
X403184Y360234D02*
X401820D01*
X401684Y358547*
X401820Y358734*
X402229Y358922*
X402638*
X403047Y358734*
X403320Y358359*
X403456Y357797*
X403320Y357422*
X403184Y356859*
X402911Y356484*
X402502Y356297*
X402093*
X401684Y356484*
X401547Y356672*
X401411Y357047*
X278765Y398562D02*
Y395562D01*
X278629Y395000*
X278492Y394812*
X278220Y394625*
X277947*
X277674Y394812*
X277538Y395000*
X277402Y395562*
Y395937*
X281356Y398562D02*
X279992Y395937D01*
X282038*
X281356Y398562D02*
Y394625D01*
G54D82*
X251365Y374797D02*
X211365D01*
Y347797*
X247365*
X251365Y351797*
Y374797*
X249572Y350297D02*
G03X249572I-707J0D01*
G01X248572D02*
G03X248572I-707J0D01*
G01X397865Y416297D02*
Y376297D01*
X424865*
Y412297*
X420865Y416297*
X397865*
X423072Y413797D02*
G03X423072I-707J0D01*
G01Y412797D02*
G03X423072I-707J0D01*
G54D83*
G01X410263Y491179D02*
X352428D01*
X352428D02*
Y497832D01*
X365735Y548304D02*
X352507D01*
X410302Y545627D02*
X376995D01*
X365816Y548304D02*
G03X377011Y545626I13308J30899D01*
G01X410302Y491257D02*
Y545627D01*
X352428Y491257D02*
Y548304D01*
X407350Y557833D02*
G03X404752Y560431I-2385J213D01*
G01X366110Y560411D02*
G03X363531Y557832I-377J-2203D01*
G01Y557753D02*
Y548304D01*
X407350Y557753D02*
Y545627D01*
X404672Y560430D02*
X366169D01*
X363562Y556929D02*
G03X407318I21878J64267D01*
G01X363513Y555096D02*
G03X407298Y555058I21947J62323D01*
G54D84*
G01X395716Y375096D02*
Y362497D01*
X402015*
Y375096*
X395716*
G54D85*
X281110Y387769D02*
G03X281110I-2362J0D01*
G01X280809Y345989D02*
X280813Y346010D01*
X271770Y389233D02*
X271693Y389226D01*
X271670Y389220*
Y387671D02*
X271693Y387666D01*
X271770Y387659*
X291554Y393662D02*
Y360198D01*
X266750*
Y393662*
X291554*
X273247Y390907D02*
X271081D01*
Y385395*
X273247*
Y390907*
X271672Y390316D02*
X272656D01*
X271081Y390907D02*
X271672Y390316D01*
X272656D02*
X273247Y390907D01*
X272656Y390316D02*
Y385985D01*
X273247Y385395*
X271672Y385985D02*
Y390316D01*
X271081Y385395D02*
X271672Y385985D01*
X272656D02*
X271672D01*
X282308Y348387D02*
X290766D01*
Y346418D02*
Y348387D01*
Y346418D02*
X284099D01*
X282308Y348387D02*
X281846Y346418D01*
X266750D02*
Y348387D01*
X275209*
X273418Y346418D02*
X266750D01*
X275670D02*
X275209Y348387D01*
X289191Y360198D02*
Y360001D01*
Y348584D02*
Y348387D01*
X268325D02*
Y348584D01*
Y360001D02*
Y360198D01*
X267538Y348387D02*
Y348584D01*
Y360001D02*
Y360198D01*
X280486Y360001D02*
Y360198D01*
X283310Y352662D02*
G03X282723Y354562I-1916J449D01*
G01X283310Y352662D02*
X282308Y348387D01*
X277031Y360198D02*
Y360001D01*
X274793Y354562D02*
G03X274207Y352662I1330J-1451D01*
G01X275209Y348387D02*
X274207Y352662D01*
X271672Y389529D02*
X271770D01*
X272558D02*
X272656D01*
X289585Y348584D02*
Y360001D01*
X290766Y348584D02*
Y360001D01*
X275792Y351231D02*
X281725D01*
X275903Y350322D02*
X281613D01*
X266750Y348584D02*
Y360001D01*
X267932Y348584D02*
Y360001D01*
X273640Y349371D02*
Y353744D01*
X267932Y348584D02*
X272853D01*
X289585Y360001D02*
X267932D01*
X284664Y348584D02*
X289585D01*
X283876Y353744D02*
Y349371D01*
X281725Y351231D02*
X282155Y353883D01*
X275361D02*
X275792Y351231D01*
X275903Y350322D02*
X276596Y346534D01*
X280920*
X281613Y350322*
X276927Y345033D02*
X280590D01*
X280387Y344297D02*
X280590Y345033D01*
X277518Y344103D02*
X279998D01*
X276927Y345033D02*
X277130Y344297D01*
Y343660*
X277518Y343466D02*
Y344103D01*
X279998D02*
Y343466D01*
X280387Y344297D02*
Y343660D01*
X279998Y343466D02*
X277518D01*
X276927Y344396D02*
Y345032D01*
X277130Y343660D02*
X276927Y344396D01*
X280590Y345032D02*
Y344396D01*
X280387Y343660*
X272558Y389725D02*
X271770D01*
X272558Y388741D02*
X271770D01*
Y389725D02*
Y388741D01*
X272558D02*
Y389725D01*
Y386970D02*
X271770D01*
Y388741D02*
Y386970D01*
X272558D02*
Y388741D01*
X271770Y386970D02*
Y385985D01*
X272558D02*
Y386970D01*
X263207Y381645D02*
Y385578D01*
X295097Y389928D02*
Y385971D01*
X291554Y389922D02*
X295089D01*
X295093Y385985D02*
X291554D01*
Y370040D02*
X295085D01*
X295097Y370058D02*
Y366125D01*
X295112Y366103D02*
X291554D01*
X263207Y393662D02*
X266711D01*
X263207Y389727D02*
Y393668D01*
X266750Y389725D02*
X263223D01*
X266750Y385592D02*
X263199D01*
X263231Y381655D02*
X266750D01*
G74*
X0Y0D02*
M02*
