*
*
G04 PADS VX.2 Build Number: 5060570 generated Gerber (RS-274-X) file*
G04 PC Version=2.1*
*
%IN "board.pcb"*%
*
%MOIN*%
*
%FSLAX35Y35*%
*
*
*
*
G04 PC Standard Apertures*
*
*
G04 Thermal Relief Aperture macro.*
%AMTER*
1,1,$1,0,0*
1,0,$1-$2,0,0*
21,0,$3,$4,0,0,45*
21,0,$3,$4,0,0,135*
%
*
*
G04 Annular Aperture macro.*
%AMANN*
1,1,$1,0,0*
1,0,$2,0,0*
%
*
*
G04 Odd Aperture macro.*
%AMODD*
1,1,$1,0,0*
1,0,$1-0.005,0,0*
%
*
*
G04 PC Custom Aperture Macros*
*
*
*
*
*
*
G04 PC Aperture Table*
*
%ADD010C,0.001*%
%ADD017R,0.06299X0.06299*%
%ADD018C,0.06299*%
%ADD026R,0.06X0.06*%
%ADD027C,0.06*%
%ADD030R,0.08661X0.07874*%
%ADD035C,0.04724*%
%ADD037O,0.05118X0.08661*%
%ADD039C,0.05906*%
%ADD040C,0.03*%
%ADD041C,0.006*%
%ADD042C,0.015*%
%ADD044C,0.01*%
%ADD045C,0.02756*%
%ADD046C,0.055*%
%ADD047C,0.02165*%
*
*
*
*
G04 PC Circuitry*
G04 Layer Name board.pcb - circuitry*
%LPD*%
*
*
G04 PC Custom Flashes*
G04 Layer Name board.pcb - flashes*
%LPD*%
*
*
G04 PC Circuitry*
G04 Layer Name board.pcb - circuitry*
%LPD*%
*
G54D10*
G54D17*
G01X434944Y536699D03*
X434936Y511670D03*
G54D18*
X444787Y536699D03*
X444778Y511670D03*
G54D26*
X241365Y358797D03*
X413865Y406297D03*
X433865Y491297D03*
G54D27*
X231365Y368797D03*
X221365Y358797D03*
X403865Y396297D03*
X413865Y386297D03*
X443865Y491297D03*
Y481297D03*
X433865D03*
X443865Y471297D03*
X433865D03*
X443865Y461297D03*
X433865D03*
X443865Y451297D03*
X433865D03*
X443865Y441297D03*
X433865D03*
X443865Y431297D03*
X433865D03*
X443865Y421297D03*
X433865D03*
X443865Y411297D03*
X433865D03*
G54D30*
X454987Y357970D03*
X432743D03*
G54D35*
X369358Y532635D03*
X400854D03*
G54D37*
X290569Y357247D03*
X269309Y357641D03*
G54D39*
X278758Y387759D03*
G54D40*
X322198Y395469D02*
Y404613D01*
X321969Y404842*
Y413986*
X436118Y390121D02*
Y403549D01*
X443865Y411297*
X250386Y471813D02*
Y506995D01*
X251109Y507719*
X250078Y471628D02*
X250263Y471813D01*
X250386*
X250615Y436167D02*
X250386Y439824D01*
Y471813*
X394001Y406342D02*
Y427601D01*
X363715Y457887*
X251109Y507719D02*
Y515451D01*
X255186Y519528*
Y535253*
X251109Y499725D02*
Y507719D01*
G54D41*
X179213Y386328D02*
Y393594D01*
X181576Y395957*
Y403223*
X396218Y479346D02*
X401730D01*
X403767Y474912D02*
X383636D01*
X378843Y479705*
G54D42*
X176251Y391817D02*
Y396159D01*
X166203Y406206*
X161862*
X157526Y410542*
X156135*
X247420Y362309D02*
X242906Y366823D01*
X241741*
X237228Y371337*
X186825Y486199D02*
X168369D01*
X162115Y492453*
Y493566*
X160115Y495566*
X184599Y422931D02*
X164752D01*
X162155Y425528*
X159466Y429886*
X194530Y424917D02*
Y436649D01*
X194345Y436835*
Y448567*
X229844Y452829D02*
X166046D01*
X162203Y456671*
Y457877*
X159756Y460325*
X194595Y490101D02*
Y501604D01*
X194304Y501895*
Y513398*
X225075Y517205D02*
X169163D01*
X166251Y520117*
X164504Y523903*
X266722Y362000D02*
X267500Y361222D01*
X271897Y362000D02*
X271119Y361222D01*
X271897Y353282D02*
X271119Y354060D01*
X266722Y353282D02*
X267500Y354060D01*
X430966Y414196D02*
X431744Y413418D01*
X436765Y414196D02*
X435987Y413418D01*
X430966Y408397D02*
X431744Y409175D01*
X440966Y434196D02*
X441744Y433418D01*
X446765Y434196D02*
X445987Y433418D01*
X446765Y428397D02*
X445987Y429175D01*
X440966Y428397D02*
X441744Y429175D01*
X430966Y484196D02*
X431744Y483418D01*
X436765Y484196D02*
X435987Y483418D01*
X436765Y478397D02*
X435987Y479175D01*
X430966Y478397D02*
X431744Y479175D01*
X430088Y495074D02*
X431744Y493418D01*
X430088Y487519D02*
X431744Y489175D01*
X437643Y487519D02*
X435987Y489175D01*
X437643Y495074D02*
X435987Y493418D01*
X440966Y484196D02*
X441744Y483418D01*
X446765Y484196D02*
X445987Y483418D01*
X446765Y478397D02*
X445987Y479175D01*
X440966Y478397D02*
X441744Y479175D01*
X440966Y494196D02*
X441744Y493418D01*
X446765Y494196D02*
X445987Y493418D01*
X446765Y488397D02*
X445987Y489175D01*
X440966Y488397D02*
X441744Y489175D01*
X417643Y402519D02*
X415987Y404175D01*
X410088Y402519D02*
X411744Y404175D01*
X410088Y410074D02*
X411744Y408418D01*
X417643Y410074D02*
X415987Y408418D01*
X447792Y539704D02*
X447014Y538926D01*
X441782Y539704D02*
X442560Y538926D01*
X441782Y533694D02*
X442560Y534472D01*
X447792Y533694D02*
X447014Y534472D01*
X240725Y458742D02*
X239947Y457964D01*
X237221Y458742D02*
X237998Y457964D01*
X237221Y455238D02*
X237998Y456015D01*
X240725Y455238D02*
X239947Y456015D01*
X239203Y428019D02*
X238426Y427241D01*
X235699Y428019D02*
X236477Y427241D01*
X235699Y424514D02*
X236477Y425292D01*
X239203Y424514D02*
X238426Y425292D01*
X279747Y425008D02*
X278969Y424230D01*
X276243Y425008D02*
X277020Y424230D01*
X276243Y421503D02*
X277020Y422281D01*
X279747Y421503D02*
X278969Y422281D01*
X269448Y424082D02*
X268670Y423304D01*
X265943Y424082D02*
X266721Y423304D01*
X265943Y420578D02*
X266721Y421355D01*
X269448Y420578D02*
X268670Y421355D01*
X269795Y489233D02*
X269017Y488456D01*
X266290Y489233D02*
X267068Y488456D01*
X266290Y485729D02*
X267068Y486507D01*
X269795Y485729D02*
X269017Y486507D01*
X272919Y456947D02*
X272141Y456169D01*
X269415Y456947D02*
X270193Y456169D01*
X269415Y453443D02*
X270193Y454220D01*
X272919Y453443D02*
X272141Y454220D01*
X280441Y489118D02*
X279663Y488340D01*
X276937Y489118D02*
X277715Y488340D01*
X276937Y485613D02*
X277715Y486391D01*
X280441Y485613D02*
X279663Y486391D01*
X338057Y438052D02*
X337279Y437274D01*
X334553Y438052D02*
X335331Y437274D01*
X334553Y434547D02*
X335331Y435325D01*
X338057Y434547D02*
X337279Y435325D01*
X337941Y445169D02*
X337164Y444391D01*
X334437Y445169D02*
X335215Y444391D01*
X334437Y441664D02*
X335215Y442442D01*
X337941Y441664D02*
X337164Y442442D01*
X323476Y462643D02*
X322698Y461865D01*
X319972Y462643D02*
X320750Y461865D01*
X319972Y459138D02*
X320750Y459916D01*
X323476Y459138D02*
X322698Y459916D01*
X395953Y486863D02*
X395175Y486085D01*
X392448Y486863D02*
X393226Y486085D01*
X392448Y483359D02*
X393226Y484137D01*
X395953Y483359D02*
X395175Y484137D01*
X378271Y476934D02*
X377493Y476156D01*
X374766Y476934D02*
X375544Y476156D01*
X374766Y473430D02*
X375544Y474208D01*
X378271Y473430D02*
X377493Y474208D01*
X368261Y475893D02*
X367483Y475115D01*
X364756Y475893D02*
X365534Y475115D01*
X364756Y472388D02*
X365534Y473166D01*
X368261Y472388D02*
X367483Y473166D01*
X408087Y442694D02*
X407309Y441917D01*
X404583Y442694D02*
X405361Y441917D01*
X404583Y439190D02*
X405361Y439968D01*
X408087Y439190D02*
X407309Y439968D01*
X409823Y448423D02*
X409045Y447645D01*
X406319Y448423D02*
X407096Y447645D01*
X406319Y444918D02*
X407096Y445696D01*
X409823Y444918D02*
X409045Y445696D01*
X382490Y389668D02*
X381712Y388890D01*
X378985Y389668D02*
X379763Y388890D01*
X378985Y386164D02*
X379763Y386941D01*
X382490Y386164D02*
X381712Y386941D01*
X393209Y388941D02*
X392431Y388163D01*
X389705Y388941D02*
X390483Y388163D01*
X389705Y385437D02*
X390483Y386215D01*
X393209Y385437D02*
X392431Y386215D01*
X389613Y373813D02*
X388835Y373035D01*
X386109Y373813D02*
X386887Y373035D01*
X386109Y370309D02*
X386887Y371087D01*
X389613Y370309D02*
X388835Y371087D01*
X402145Y370476D02*
X401368Y369699D01*
X398641Y370476D02*
X399419Y369699D01*
X398641Y366972D02*
X399419Y367750D01*
X402145Y366972D02*
X401368Y367750D01*
X335926Y380172D02*
X335148Y379394D01*
X332421Y380172D02*
X333199Y379394D01*
X332421Y376668D02*
X333199Y377446D01*
X335926Y376668D02*
X335148Y377446D01*
X364995Y377810D02*
X364217Y377032D01*
X361491Y377810D02*
X362269Y377032D01*
X361491Y374306D02*
X362269Y375084D01*
X364995Y374306D02*
X364217Y375084D01*
X307401Y359006D02*
X306624Y358228D01*
X303897Y359006D02*
X304675Y358228D01*
X303897Y355502D02*
X304675Y356279D01*
X307401Y355502D02*
X306624Y356279D01*
X336380Y358733D02*
X335602Y357956D01*
X332876Y358733D02*
X333653Y357956D01*
X332876Y355229D02*
X333653Y356007D01*
X336380Y355229D02*
X335602Y356007D01*
X140492Y375455D02*
X139714Y374677D01*
X136987Y375455D02*
X137765Y374677D01*
X136987Y371950D02*
X137765Y372728D01*
X140492Y371950D02*
X139714Y372728D01*
X148187Y368222D02*
X147410Y367444D01*
X144683Y368222D02*
X145461Y367444D01*
X144683Y364718D02*
X145461Y365496D01*
X148187Y364718D02*
X147410Y365496D01*
X448621Y384749D02*
X447843Y383971D01*
X445116Y384749D02*
X445894Y383971D01*
X445116Y381244D02*
X445894Y382022D01*
X448621Y381244D02*
X447843Y382022D01*
X412647Y355770D02*
X411870Y354992D01*
X409143Y355770D02*
X409921Y354992D01*
X409143Y352266D02*
X409921Y353043D01*
X412647Y352266D02*
X411870Y353043D01*
X239131Y493000D02*
X238353Y492222D01*
X235627Y493000D02*
X236404Y492222D01*
X235627Y489496D02*
X236404Y490274D01*
X239131Y489496D02*
X238353Y490274D01*
X259553Y504509D02*
X258776Y503731D01*
X256049Y504509D02*
X256827Y503731D01*
X256049Y501004D02*
X256827Y501782D01*
X259553Y501004D02*
X258776Y501782D01*
X259496Y439241D02*
X258718Y438464D01*
X255991Y439241D02*
X256769Y438464D01*
X255991Y435737D02*
X256769Y436515D01*
X259496Y435737D02*
X258718Y436515D01*
X450619Y375846D02*
X449841Y375068D01*
X447115Y375846D02*
X447893Y375068D01*
X447115Y372342D02*
X447893Y373119D01*
X450619Y372342D02*
X449841Y373119D01*
X145931Y488920D02*
X145153Y488143D01*
X142426Y488920D02*
X143204Y488143D01*
X142426Y485416D02*
X143204Y486194D01*
X145931Y485416D02*
X145153Y486194D01*
X146341Y521478D02*
X145563Y520700D01*
X142836Y521478D02*
X143614Y520700D01*
X142836Y517974D02*
X143614Y518751D01*
X146341Y517974D02*
X145563Y518751D01*
X146336Y454088D02*
X145558Y453310D01*
X142831Y454088D02*
X143609Y453310D01*
X142831Y450584D02*
X143609Y451361D01*
X146336Y450584D02*
X145558Y451361D01*
X237687Y387466D02*
X236909Y386688D01*
X234183Y387466D02*
X234960Y386688D01*
X234183Y383962D02*
X234960Y384740D01*
X237687Y383962D02*
X236909Y384740D01*
X215427Y397896D02*
X214649Y397118D01*
X211923Y397896D02*
X212700Y397118D01*
X211923Y394392D02*
X212700Y395169D01*
X215427Y394392D02*
X214649Y395169D01*
X175392Y506861D02*
X174614Y506083D01*
X171887Y506861D02*
X172665Y506083D01*
X171887Y503357D02*
X172665Y504135D01*
X175392Y503357D02*
X174614Y504135D01*
X241687Y523667D02*
X240909Y522890D01*
X238183Y523667D02*
X238960Y522890D01*
X238183Y520163D02*
X238960Y520941D01*
X241687Y520163D02*
X240909Y520941D01*
X273209Y523834D02*
X272431Y523056D01*
X269704Y523834D02*
X270482Y523056D01*
X269704Y520330D02*
X270482Y521108D01*
X273209Y520330D02*
X272431Y521108D01*
X184541Y440332D02*
X183763Y439554D01*
X181036Y440332D02*
X181814Y439554D01*
X181036Y436828D02*
X181814Y437605D01*
X184541Y436828D02*
X183763Y437605D01*
X331866Y456220D02*
X331088Y455442D01*
X328362Y456220D02*
X329140Y455442D01*
X328362Y452716D02*
X329140Y453493D01*
X331866Y452716D02*
X331088Y453493D01*
X198121Y372909D02*
X197344Y372131D01*
X194617Y372909D02*
X195395Y372131D01*
X194617Y369405D02*
X195395Y370182D01*
X198121Y369405D02*
X197344Y370182D01*
X208191Y435700D02*
X207413Y434922D01*
X204686Y435700D02*
X205464Y434922D01*
X204686Y432196D02*
X205464Y432973D01*
X208191Y432196D02*
X207413Y432973D01*
X207913Y500684D02*
X207135Y499906D01*
X204409Y500684D02*
X205187Y499906D01*
X204409Y497180D02*
X205187Y497957D01*
X207913Y497180D02*
X207135Y497957D01*
X140613Y516055D02*
X139835Y515278D01*
X137109Y516055D02*
X137887Y515278D01*
X137109Y512551D02*
X137887Y513329D01*
X140613Y512551D02*
X139835Y513329D01*
X140608Y483539D02*
X139830Y482761D01*
X137103Y483539D02*
X137881Y482761D01*
X137103Y480035D02*
X137881Y480813D01*
X140608Y480035D02*
X139830Y480813D01*
X140376Y448070D02*
X139598Y447293D01*
X136872Y448070D02*
X137650Y447293D01*
X136872Y444566D02*
X137650Y445344D01*
X140376Y444566D02*
X139598Y445344D01*
X140608Y418098D02*
X139830Y417321D01*
X137103Y418098D02*
X137881Y417321D01*
X137103Y414594D02*
X137881Y415372D01*
X140608Y414594D02*
X139830Y415372D01*
X145873Y424116D02*
X145095Y423338D01*
X142369Y424116D02*
X143146Y423338D01*
X142369Y420612D02*
X143146Y421389D01*
X145873Y420612D02*
X145095Y421389D01*
X140492Y395880D02*
X139714Y395102D01*
X136987Y395880D02*
X137765Y395102D01*
X136987Y392375D02*
X137765Y393153D01*
X140492Y392375D02*
X139714Y393153D01*
X146278Y401724D02*
X145500Y400946D01*
X142774Y401724D02*
X143551Y400946D01*
X142774Y398219D02*
X143551Y398997D01*
X146278Y398219D02*
X145500Y398997D01*
X146046Y381646D02*
X145269Y380868D01*
X142542Y381646D02*
X143320Y380868D01*
X142542Y378142D02*
X143320Y378919D01*
X146046Y378142D02*
X145269Y378919D01*
X348588Y418842D02*
X347810Y418064D01*
X345084Y418842D02*
X345861Y418064D01*
X345084Y415337D02*
X345861Y416115D01*
X348588Y415337D02*
X347810Y416115D01*
X312034Y386168D02*
X311257Y385390D01*
X308530Y386168D02*
X309308Y385390D01*
X308530Y382663D02*
X309308Y383441D01*
X312034Y382663D02*
X311257Y383441D01*
G54D44*
X214088Y375063D02*
X214379Y375355D01*
X237967*
X214088Y375063D02*
X176317D01*
X163058Y388322*
X340182Y369530D02*
X343531Y372879D01*
Y375063*
X354306Y385838*
X354830*
X372945Y403954*
X340182Y369530D02*
X243791D01*
X237967Y375355*
X336810Y373534D02*
X341153Y377877D01*
Y378756*
X367792Y405394*
X336810Y373534D02*
X247656D01*
X241483Y379706*
X175277*
X164062Y390921*
Y402972*
X454119Y366434D02*
G75*
G03X454119I-2380J0D01*
G01X451345Y374094D02*
G03X451345I-2478J0D01*
G01X449347Y382996D02*
G03X449347I-2478J0D01*
G01X438371Y366434D02*
G03X438371I-2380J0D01*
G01X447965Y421297D02*
G03X447965I-4100J0D01*
G01Y431297D02*
G03X447965I-4100J0D01*
G01Y441297D02*
G03X447965I-4100J0D01*
G01Y451297D02*
G03X447965I-4100J0D01*
G01Y461297D02*
G03X447965I-4100J0D01*
G01Y471297D02*
G03X447965I-4100J0D01*
G01Y481297D02*
G03X447965I-4100J0D01*
G01Y491297D02*
G03X447965I-4100J0D01*
G01X449028Y511670D02*
G03X449028I-4250J0D01*
G01X449037Y536699D02*
G03X449037I-4250J0D01*
G01X437965Y421297D02*
G03X437965I-4100J0D01*
G01Y431297D02*
G03X437965I-4100J0D01*
G01Y441297D02*
G03X437965I-4100J0D01*
G01Y451297D02*
G03X437965I-4100J0D01*
G01Y461297D02*
G03X437965I-4100J0D01*
G01Y471297D02*
G03X437965I-4100J0D01*
G01Y481297D02*
G03X437965I-4100J0D01*
G01X413373Y354018D02*
G03X413373I-2478J0D01*
G01X417965Y386297D02*
G03X417965I-4100J0D01*
G01X402871Y368724D02*
G03X402871I-2478J0D01*
G01X407965Y396297D02*
G03X407965I-4100J0D01*
G01X408813Y440942D02*
G03X408813I-2478J0D01*
G01X410549Y446670D02*
G03X410549I-2478J0D01*
G01X390339Y372061D02*
G03X390339I-2478J0D01*
G01X393935Y387189D02*
G03X393935I-2478J0D01*
G01X383216Y387916D02*
G03X383216I-2478J0D01*
G01X365721Y376058D02*
G03X365721I-2478J0D01*
G01X337106Y356981D02*
G03X337106I-2478J0D01*
G01X308127Y357254D02*
G03X308127I-2478J0D01*
G01X404466Y532635D02*
G03X404466I-3612J0D01*
G01X396679Y485111D02*
G03X396679I-2478J0D01*
G01X368986Y474141D02*
G03X368986I-2478J0D01*
G01X372970Y532635D02*
G03X372970I-3612J0D01*
G01X349314Y417090D02*
G03X349314I-2478J0D01*
G01X338783Y436299D02*
G03X338783I-2478J0D01*
G01X338667Y443416D02*
G03X338667I-2478J0D01*
G01X332592Y454468D02*
G03X332592I-2478J0D01*
G01X324202Y460890D02*
G03X324202I-2478J0D01*
G01X312760Y384416D02*
G03X312760I-2478J0D01*
G01X282811Y387759D02*
G03X282811I-4053J0D01*
G01X280473Y423255D02*
G03X280473I-2478J0D01*
G01X281167Y487365D02*
G03X281167I-2478J0D01*
G01X270173Y422330D02*
G03X270173I-2478J0D01*
G01X273645Y455195D02*
G03X273645I-2478J0D01*
G01X270521Y487481D02*
G03X270521I-2478J0D01*
G01X273934Y522082D02*
G03X273934I-2478J0D01*
G01X260279Y502757D02*
G03X260279I-2478J0D01*
G01X238413Y385714D02*
G03X238413I-2478J0D01*
G01X239929Y426266D02*
G03X239929I-2478J0D01*
G01X241451Y456990D02*
G03X241451I-2478J0D01*
G01X239857Y491248D02*
G03X239857I-2478J0D01*
G01X242413Y521915D02*
G03X242413I-2478J0D01*
G01X225465Y358797D02*
G03X225465I-4100J0D01*
G01X216153Y396144D02*
G03X216153I-2478J0D01*
G01X208917Y433948D02*
G03X208917I-2478J0D01*
G01X208639Y498932D02*
G03X208639I-2478J0D01*
G01X185267Y438580D02*
G03X185267I-2478J0D01*
G01X176118Y505109D02*
G03X176118I-2478J0D01*
G01X148913Y366470D02*
G03X148913I-2478J0D01*
G01X146772Y379894D02*
G03X146772I-2478J0D01*
G01X147004Y399972D02*
G03X147004I-2478J0D01*
G01X146599Y422364D02*
G03X146599I-2478J0D01*
G01X147062Y452336D02*
G03X147062I-2478J0D01*
G01X146657Y487168D02*
G03X146657I-2478J0D01*
G01X147067Y519726D02*
G03X147067I-2478J0D01*
G01X141218Y373703D02*
G03X141218I-2478J0D01*
G01Y394128D02*
G03X141218I-2478J0D01*
G01X141333Y416346D02*
G03X141333I-2478J0D01*
G01X141102Y446318D02*
G03X141102I-2478J0D01*
G01X141333Y481787D02*
G03X141333I-2478J0D01*
G01X141339Y514303D02*
G03X141339I-2478J0D01*
G01X460265Y554697D02*
G03X459765Y555197I-500J-0D01*
G01X149528*
G03X149175Y555050I0J-500*
G01X127612Y533487*
G03X127465Y533134I353J-353*
G01Y347897*
G03X127965Y347397I500J-0*
G01X459765*
G03X460265Y347897I0J500*
G01Y352497*
G03X459626Y352977I-500J-0*
G01X459318Y352933D02*
G03X459626Y352977I0J1100D01*
G01X459318Y352933D02*
X450657D01*
X449557Y354033D02*
G03X450657Y352933I1100J-0D01*
G01X449557Y354033D02*
Y361907D01*
X450657Y363007D02*
G03X449557Y361907I-0J-1100D01*
G01X450657Y363007D02*
X459318D01*
X459626Y362963D02*
G03X459318Y363007I-308J-1056D01*
G01X459626Y362963D02*
G03X460265Y363443I139J480D01*
G01Y554697*
X454119Y366434D02*
G03X454119I-2380J0D01*
G01X451345Y374094D02*
G03X451345I-2478J0D01*
G01X449347Y382996D02*
G03X449347I-2478J0D01*
G01X438174Y361907D02*
Y354033D01*
X437074Y352933D02*
G03X438174Y354033I0J1100D01*
G01X437074Y352933D02*
X428413D01*
X427313Y354033D02*
G03X428413Y352933I1100J-0D01*
G01X427313Y354033D02*
Y361907D01*
X428413Y363007D02*
G03X427313Y361907I-0J-1100D01*
G01X428413Y363007D02*
X437074D01*
X438174Y361907D02*
G03X437074Y363007I-1100J-0D01*
G01X438371Y366434D02*
G03X438371I-2380J0D01*
G01X443677Y407201D02*
G03X447965Y411297I188J4096D01*
G01X443677Y407201D02*
G03X443301Y407055I-23J-500D01*
G01X438865Y402619*
G03X438718Y402265I353J-354*
G01Y393172*
G03X438862Y392822I500J0*
G01X439968Y390121D02*
G03X438862Y392822I-3850J-0D01*
G01X432268Y390121D02*
G03X439968I3850J-0D01*
G01X433374Y392822D02*
G03X432268Y390121I2744J-2701D01*
G01X433374Y392822D02*
G03X433518Y393172I-356J350D01*
G01Y403549*
X434280Y405388D02*
G03X433518Y403549I1838J-1839D01*
G01X434280Y405388D02*
X435385Y406493D01*
G03X435532Y406847I-353J354*
X434905Y407331I-500J-0*
G01X429765Y411297D02*
G03X434905Y407331I4100J-0D01*
G01X437965Y411297D02*
G03X429765I-4100J-0D01*
G01X437831Y410257D02*
G03X437965Y411297I-3966J1040D01*
G01X437831Y410257D02*
G03X437815Y410130I484J-127D01*
X438669Y409777I500J0*
G01X439624Y410732*
G03X439770Y411086I-354J354*
Y411108I-500J-0*
G01X439765Y411297D02*
G03X439770Y411108I4100J-0D01*
G01X439765Y411297D02*
X439765D01*
X447965D02*
G03X439765I-4100J-0D01*
G01X447965Y421297D02*
G03X447965I-4100J0D01*
G01Y431297D02*
G03X447965I-4100J0D01*
G01Y441297D02*
G03X447965I-4100J0D01*
G01Y451297D02*
G03X447965I-4100J0D01*
G01Y461297D02*
G03X447965I-4100J0D01*
G01Y471297D02*
G03X447965I-4100J0D01*
G01Y481297D02*
G03X447965I-4100J0D01*
G01Y491297D02*
G03X447965I-4100J0D01*
G01X449028Y511670D02*
G03X449028I-4250J0D01*
G01X449037Y536699D02*
G03X449037I-4250J0D01*
G01X437965Y421297D02*
G03X437965I-4100J0D01*
G01Y431297D02*
G03X437965I-4100J0D01*
G01Y441297D02*
G03X437965I-4100J0D01*
G01Y451297D02*
G03X437965I-4100J0D01*
G01Y461297D02*
G03X437965I-4100J0D01*
G01Y471297D02*
G03X437965I-4100J0D01*
G01Y481297D02*
G03X437965I-4100J0D01*
G01Y494297D02*
Y488297D01*
X436865Y487197D02*
G03X437965Y488297I0J1100D01*
G01X436865Y487197D02*
X430865D01*
X429765Y488297D02*
G03X430865Y487197I1100J-0D01*
G01X429765Y488297D02*
Y494297D01*
X430865Y495397D02*
G03X429765Y494297I0J-1100D01*
G01X430865Y495397D02*
X436865D01*
X437965Y494297D02*
G03X436865Y495397I-1100J-0D01*
G01X439186Y514819D02*
Y508520D01*
X438086Y507420D02*
G03X439186Y508520I-0J1100D01*
G01X438086Y507420D02*
X431786D01*
X430686Y508520D02*
G03X431786Y507420I1100J0D01*
G01X430686Y508520D02*
Y514819D01*
X431786Y515919D02*
G03X430686Y514819I0J-1100D01*
G01X431786Y515919D02*
X438086D01*
X439186Y514819D02*
G03X438086Y515919I-1100J0D01*
G01X439194Y539849D02*
Y533550D01*
X438094Y532450D02*
G03X439194Y533550I-0J1100D01*
G01X438094Y532450D02*
X431795D01*
X430695Y533550D02*
G03X431795Y532450I1100J-0D01*
G01X430695Y533550D02*
Y539849D01*
X431795Y540949D02*
G03X430695Y539849I-0J-1100D01*
G01X431795Y540949D02*
X438094D01*
X439194Y539849D02*
G03X438094Y540949I-1100J-0D01*
G01X413373Y354018D02*
G03X413373I-2478J0D01*
G01X417965Y386297D02*
G03X417965I-4100J0D01*
G01Y409297D02*
Y403297D01*
X416865Y402197D02*
G03X417965Y403297I0J1100D01*
G01X416865Y402197D02*
X410865D01*
X409765Y403297D02*
G03X410865Y402197I1100J-0D01*
G01X409765Y403297D02*
Y409297D01*
X410865Y410397D02*
G03X409765Y409297I0J-1100D01*
G01X410865Y410397D02*
X416865D01*
X417965Y409297D02*
G03X416865Y410397I-1100J-0D01*
G01X402871Y368724D02*
G03X402871I-2478J0D01*
G01X407965Y396297D02*
G03X407965I-4100J0D01*
G01X408813Y440942D02*
G03X408813I-2478J0D01*
G01X410549Y446670D02*
G03X410549I-2478J0D01*
G01X390339Y372061D02*
G03X390339I-2478J0D01*
G01X393935Y387189D02*
G03X393935I-2478J0D01*
G01X396601Y427601D02*
Y406342D01*
X391401D02*
G03X396601I2600J0D01*
G01X391401D02*
Y426317D01*
G03X391254Y426670I-500J-0*
G01X361877Y456048*
X361115Y457887D02*
G03X361877Y456048I2600J-0D01*
G01X365554Y459725D02*
G03X361115Y457887I-1839J-1838D01*
G01X365554Y459725D02*
X395839Y429439D01*
X396601Y427601D02*
G03X395839Y429439I-2600J-0D01*
G01X383216Y387916D02*
G03X383216I-2478J0D01*
G01X365721Y376058D02*
G03X365721I-2478J0D01*
G01X337106Y356981D02*
G03X337106I-2478J0D01*
G01X308127Y357254D02*
G03X308127I-2478J0D01*
G01X294228Y359019D02*
Y355475D01*
X286910D02*
G03X294228I3659J0D01*
G01X286910D02*
Y359019D01*
X294228D02*
G03X286910I-3659J-0D01*
G01X272968Y359412D02*
Y355869D01*
X265650D02*
G03X272968I3659J0D01*
G01X265650D02*
Y359412D01*
X272968D02*
G03X265650I-3659J0D01*
G01X372938Y401476D02*
G03X375423Y403954I7J2478D01*
G01X372938Y401476D02*
G03X372584Y401329I-1J-500D01*
G01X355961Y384707*
X355120Y384265D02*
G03X355961Y384707I-290J1573D01*
G01X355120Y384265D02*
G03X354857Y384126I90J-492D01*
G01X345277Y374547*
G03X345131Y374194I354J-353*
G01Y372879*
X344662Y371748D02*
G03X345131Y372879I-1131J1131D01*
G01X344662Y371748D02*
X341313Y368399D01*
X340181Y367930D02*
G03X341313Y368399I1J1600D01*
G01X340181Y367930D02*
X245622D01*
G03X245122Y367430I0J-500*
X245269Y367077I500J0*
G01X247435Y364911*
G03X247726Y364768I353J353*
G01X249898Y362309D02*
G03X247726Y364768I-2478J0D01*
G01X246210Y360147D02*
G03X249898Y362309I1210J2162D01*
G01X246210Y360147D02*
G03X245465Y359711I-245J-436D01*
G01Y355797*
X244365Y354697D02*
G03X245465Y355797I0J1100D01*
G01X244365Y354697D02*
X238365D01*
X237265Y355797D02*
G03X238365Y354697I1100J-0D01*
G01X237265Y355797D02*
Y361797D01*
X238365Y362897D02*
G03X237265Y361797I0J-1100D01*
G01X238365Y362897D02*
X243009D01*
G03X243509Y363397I0J500*
X243363Y363750I-500J-0*
G01X242286Y364827*
G03X241933Y364973I-353J-354*
G01X241741*
X240433Y365515D02*
G03X241741Y364973I1308J1308D01*
G01X240433Y365515D02*
X237213Y368735D01*
G03X236921Y368878I-354J-353*
G01X236175Y369093D02*
G03X236921Y368878I1053J2244D01*
G01X236175Y369093D02*
G03X235463Y368658I-212J-452D01*
G01X227265Y368797D02*
G03X235463Y368658I4100J-0D01*
G01X230354Y372770D02*
G03X227265Y368797I1011J-3973D01*
G01X230354Y372770D02*
G03X230731Y373255I-123J485D01*
X230231Y373755I-500J-0*
G01X215155*
G03X214901Y373685I-0J-500*
G01X214087Y373463D02*
G03X214901Y373685I1J1600D01*
G01X214087Y373463D02*
X198737D01*
G03X198237Y372963I-0J-500*
X198339Y372660I500J0*
G01X198847Y371157D02*
G03X198339Y372660I-2478J-0D01*
G01X193891Y371157D02*
G03X198847I2478J-0D01*
G01X194399Y372660D02*
G03X193891Y371157I1970J-1503D01*
G01X194399Y372660D02*
G03X194502Y372963I-397J303D01*
X194002Y373463I-500J0*
G01X176317*
X175185Y373932D02*
G03X176317Y373463I1132J1131D01*
G01X175185Y373932D02*
X163419Y385698D01*
G03X163065Y385844I-353J-354*
G01X160580Y388322D02*
G03X163065Y385844I2478J0D01*
G01X162146Y390626D02*
G03X160580Y388322I912J-2304D01*
G01X162146Y390626D02*
G03X162462Y391091I-184J465D01*
G01Y400860*
G03X162315Y401215I-500J0*
G01X161584Y402972D02*
G03X162315Y401215I2478J-0D01*
G01X161718Y403776D02*
G03X161584Y402972I2344J-804D01*
G01X161718Y403776D02*
G03X161745Y403938I-473J162D01*
X161376Y404421I-500J0*
G01X160554Y404898D02*
G03X161376Y404421I1308J1308D01*
G01X160554Y404898D02*
X157393Y408058D01*
G03X156888Y408181I-353J-353*
G01X153657Y410542D02*
G03X156888Y408181I2478J0D01*
G01X157714Y412451D02*
G03X153657Y410542I-1579J-1909D01*
G01X157714Y412451D02*
G03X157925Y412348I319J386D01*
G01X158834Y411850D02*
G03X157925Y412348I-1308J-1308D01*
G01X158834Y411850D02*
X162482Y408203D01*
G03X162835Y408056I353J353*
G01X166203*
X167511Y407514D02*
G03X166203Y408056I-1308J-1308D01*
G01X167511Y407514D02*
X177559Y397467D01*
X178101Y396159D02*
G03X177559Y397467I-1850J-0D01*
G01X178101Y396159D02*
Y395669D01*
G03X178954Y395315I500J-0*
G01X180029Y396390*
G03X180176Y396744I-353J354*
G01Y400929*
X180176D02*
G03X179995Y401315I-500J0D01*
G01X179098Y403223D02*
G03X179995Y401315I2478J-0D01*
G01X184054Y403223D02*
G03X179098I-2478J-0D01*
G01X183157Y401315D02*
G03X184054Y403223I-1581J1908D01*
G01X183157Y401315D02*
G03X182976Y400929I319J-386D01*
G01X182976D02*
Y395957D01*
X182566Y394967D02*
G03X182976Y395957I-990J990D01*
G01X182566Y394967D02*
X180759Y393160D01*
G03X180613Y392807I354J-353*
G01Y388621*
G03X180794Y388236I500J0*
G01X181691Y386328D02*
G03X180794Y388236I-2478J0D01*
G01X176735Y386328D02*
G03X181691I2478J0D01*
G01X177632Y388236D02*
G03X176735Y386328I1581J-1908D01*
G01X177632Y388236D02*
G03X177813Y388621I-319J385D01*
G01Y389035*
G03X177135Y389502I-500J-0*
G01X173773Y391817D02*
G03X177135Y389502I2478J-0D01*
G01X174295Y393339D02*
G03X173773Y391817I1956J-1522D01*
G01X174295Y393339D02*
G03X174401Y393646I-394J307D01*
G01Y395185*
G03X174254Y395539I-500J0*
G01X167280Y402513*
G03X166446Y402296I-353J-354*
G01X165809Y401215D02*
G03X166446Y402296I-1747J1757D01*
G01X165809Y401215D02*
G03X165662Y400860I353J-355D01*
G01Y391791*
G03X165808Y391438I500J0*
G01X175794Y381453*
G03X176147Y381306I353J353*
G01X241483*
X242615Y380838D02*
G03X241483Y381306I-1132J-1132D01*
G01X242615Y380838D02*
X248172Y375280D01*
G03X248526Y375134I354J354*
G01X333122*
G03X333622Y375634I-0J500*
X333298Y376102I-500J-0*
G01X331696Y378420D02*
G03X333298Y376102I2478J-0D01*
G01X336652Y378420D02*
G03X331696I-2478J-0D01*
G01X335049Y376102D02*
G03X336652Y378420I-875J2318D01*
G01X335049Y376102D02*
G03X334726Y375634I177J-468D01*
X335226Y375134I500J-0*
G01X335940*
G03X336293Y375280I-0J500*
G01X339407Y378394*
G03X339553Y378747I-354J353*
G01Y378756*
X340022Y379887D02*
G03X339553Y378756I1131J-1131D01*
G01X340022Y379887D02*
X365167Y405033D01*
G03X365314Y405386I-353J353*
G01Y405394*
X370229Y405843D02*
G03X365314Y405394I-2437J-449D01*
G01X370229Y405843D02*
G03X371094Y405601I491J90D01*
G01X375423Y403954D02*
G03X371094Y405601I-2478J-0D01*
G01X401859Y473331D02*
G03X406245Y474912I1908J1581D01*
G01X401859Y473331D02*
G03X401474Y473512I-385J-319D01*
G01X383636*
X382646Y473922D02*
G03X383636Y473512I990J990D01*
G01X382646Y473922D02*
X379475Y477094D01*
G03X379075Y477238I-354J-354*
G01X379023Y477234D02*
G03X379075Y477238I-180J2471D01*
G01X379023Y477234D02*
G03X378559Y476735I36J-499D01*
X378633Y476474I500J-0*
G01X378996Y475182D02*
G03X378633Y476474I-2478J0D01*
G01X374040Y475182D02*
G03X378996I2478J0D01*
G01X376339Y477653D02*
G03X374040Y475182I179J-2471D01*
G01X376339Y477653D02*
G03X376802Y478152I-37J499D01*
X376729Y478413I-500J0*
G01X376365Y479705D02*
G03X376729Y478413I2478J0D01*
G01X381321Y479705D02*
G03X376365I-2478J0D01*
G01X381310Y479474D02*
G03X381321Y479705I-2467J231D01*
G01X381310Y479474D02*
G03X381308Y479427I498J-47D01*
X381455Y479074I500J0*
G01X384070Y476458*
G03X384423Y476312I353J354*
G01X394653*
G03X395153Y476812I0J500*
X394916Y477237I-500J-0*
G01X393740Y479346D02*
G03X394916Y477237I2478J-0D01*
G01X398126Y480927D02*
G03X393740Y479346I-1908J-1581D01*
G01X398126Y480927D02*
G03X398511Y480746I385J319D01*
G01X399437*
G03X399822Y480927I0J500*
G01X404208Y479346D02*
G03X399822Y480927I-2478J-0D01*
G01X403869Y478094D02*
G03X404208Y479346I-2139J1252D01*
G01X403869Y478094D02*
G03X403801Y477842I432J-252D01*
X404211Y477350I500J-0*
G01X406245Y474912D02*
G03X404211Y477350I-2478J-0D01*
G01X404466Y532635D02*
G03X404466I-3612J0D01*
G01X396679Y485111D02*
G03X396679I-2478J0D01*
G01X368986Y474141D02*
G03X368986I-2478J0D01*
G01X372970Y532635D02*
G03X372970I-3612J0D01*
G01X349314Y417090D02*
G03X349314I-2478J0D01*
G01X338783Y436299D02*
G03X338783I-2478J0D01*
G01X338667Y443416D02*
G03X338667I-2478J0D01*
G01X332592Y454468D02*
G03X332592I-2478J0D01*
G01X318348Y395469D02*
G03X326048I3850J0D01*
G01X319454Y398170D02*
G03X318348Y395469I2744J-2701D01*
G01X319454Y398170D02*
G03X319598Y398521I-356J351D01*
G01Y403674*
G03X319561Y403862I-500J-0*
G01X319369Y404842D02*
G03X319561Y403862I2600J-0D01*
G01X319369Y404842D02*
Y410934D01*
G03X319225Y411285I-500J0*
G01X318119Y413986D02*
G03X319225Y411285I3850J-0D01*
G01X325819Y413986D02*
G03X318119I-3850J-0D01*
G01X324713Y411285D02*
G03X325819Y413986I-2744J2701D01*
G01X324713Y411285D02*
G03X324569Y410934I356J-351D01*
G01Y405782*
G03X324606Y405593I500J-0*
G01X324798Y404613D02*
G03X324606Y405593I-2600J0D01*
G01X324798Y404613D02*
Y398521D01*
G03X324941Y398170I500J-0*
G01X326048Y395469D02*
G03X324941Y398170I-3850J0D01*
G01X324202Y460890D02*
G03X324202I-2478J0D01*
G01X312760Y384416D02*
G03X312760I-2478J0D01*
G01X282811Y387759D02*
G03X282811I-4053J0D01*
G01X280473Y423255D02*
G03X280473I-2478J0D01*
G01X281167Y487365D02*
G03X281167I-2478J0D01*
G01X270173Y422330D02*
G03X270173I-2478J0D01*
G01X273645Y455195D02*
G03X273645I-2478J0D01*
G01X270521Y487481D02*
G03X270521I-2478J0D01*
G01X273934Y522082D02*
G03X273934I-2478J0D01*
G01X255424Y436617D02*
G03X260221Y437489I2319J872D01*
G01X255424Y436617D02*
G03X254456Y436441I-468J-176D01*
G01X254456*
G03X254457Y436410I500J0*
G01X254465Y436167D02*
G03X254457Y436410I-3850J-0D01*
G01X254465Y436167D02*
X254465D01*
X246765D02*
G03X254465I3850J-0D01*
G01X247708Y438691D02*
G03X246765Y436167I2907J-2524D01*
G01X247708Y438691D02*
G03X247830Y439019I-378J328D01*
X247829Y439050I-500J0*
G01X247791Y439662*
X247786Y439824D02*
G03X247791Y439662I2600J0D01*
G01X247786Y439824D02*
Y468292D01*
G03X247607Y468675I-500J-0*
G01X246228Y471628D02*
G03X247607Y468675I3850J-0D01*
G01Y474580D02*
G03X246228Y471628I2471J-2952D01*
G01X247607Y474580D02*
G03X247786Y474964I-321J384D01*
G01Y497650*
G03X247725Y497889I-500J0*
G01X247259Y499725D02*
G03X247725Y497889I3850J0D01*
G01Y501562D02*
G03X247259Y499725I3384J-1837D01*
G01X247725Y501562D02*
G03X247786Y501800I-439J238D01*
G01Y506995*
X248393Y508665D02*
G03X247786Y506995I1993J-1670D01*
G01X248393Y508665D02*
G03X248509Y508986I-384J321D01*
G01Y515451*
X249271Y517289D02*
G03X248509Y515451I1838J-1838D01*
G01X249271Y517289D02*
X252440Y520458D01*
G03X252586Y520812I-354J354*
G01Y532201*
G03X252442Y532552I-500J0*
G01X251336Y535253D02*
G03X252442Y532552I3850J0D01*
G01X259036Y535253D02*
G03X251336I-3850J0D01*
G01X257930Y532552D02*
G03X259036Y535253I-2744J2701D01*
G01X257930Y532552D02*
G03X257786Y532201I356J-351D01*
G01Y519528*
X257025Y517689D02*
G03X257786Y519528I-1839J1839D01*
G01X257025Y517689D02*
X253856Y514520D01*
G03X253709Y514167I353J-353*
G01Y502777*
G03X253853Y502426I500J0*
G01X254959Y499725D02*
G03X253853Y502426I-3850J0D01*
G01X253213Y496501D02*
G03X254959Y499725I-2104J3224D01*
G01X253213Y496501D02*
G03X252986Y496082I273J-419D01*
G01Y474331*
G03X253094Y474020I500J-0*
G01X253928Y471628D02*
G03X253094Y474020I-3850J-0D01*
G01X253928Y471628D02*
X253928D01*
X253094Y469235D02*
G03X253928Y471628I-3016J2393D01*
G01X253094Y469235D02*
G03X252986Y468925I392J-310D01*
G01Y439921*
G03X252987Y439890I500J0*
G01X253019Y439375*
G03X253184Y439033I499J31*
G01X254288Y437318D02*
G03X253184Y439033I-3673J-1151D01*
G01X254288Y437318D02*
G03X255265Y437468I477J150D01*
G01Y437471*
Y437489D02*
G03Y437471I2479J0D01*
G01Y437489D02*
X255265D01*
X260221D02*
G03X255265I-2478J0D01*
G01X260279Y502757D02*
G03X260279I-2478J0D01*
G01X238413Y385714D02*
G03X238413I-2478J0D01*
G01X239929Y426266D02*
G03X239929I-2478J0D01*
G01X241451Y456990D02*
G03X241451I-2478J0D01*
G01X239857Y491248D02*
G03X239857I-2478J0D01*
G01X242413Y521915D02*
G03X242413I-2478J0D01*
G01X225465Y358797D02*
G03X225465I-4100J0D01*
G01X216153Y396144D02*
G03X216153I-2478J0D01*
G01X208917Y433948D02*
G03X208917I-2478J0D01*
G01X228322Y450873D02*
G03X232322Y452829I1522J1956D01*
G01X228322Y450873D02*
G03X228015Y450979I-307J-394D01*
G01X196628*
G03X196128Y450479I-0J-500*
X196244Y450158I500J-0*
G01X196823Y448567D02*
G03X196244Y450158I-2478J-0D01*
G01X196300Y447045D02*
G03X196823Y448567I-1955J1522D01*
G01X196300Y447045D02*
G03X196195Y446738I395J-307D01*
G01Y437564*
G03X196234Y437370I500J0*
G01X196380Y436649D02*
G03X196234Y437370I-1850J0D01*
G01X196380Y436649D02*
Y426747D01*
G03X196486Y426439I500J-0*
G01X197008Y424917D02*
G03X196486Y426439I-2478J0D01*
G01X192052Y424917D02*
G03X197008I2478J0D01*
G01X192575Y426439D02*
G03X192052Y424917I1955J-1522D01*
G01X192575Y426439D02*
G03X192680Y426747I-395J308D01*
G01Y435920*
G03X192641Y436114I-500J-0*
G01X192495Y436835D02*
G03X192641Y436114I1850J-0D01*
G01X192495Y436835D02*
Y446738D01*
G03X192389Y447045I-500J-0*
G01X191867Y448567D02*
G03X192389Y447045I2478J-0D01*
G01X192445Y450158D02*
G03X191867Y448567I1900J-1591D01*
G01X192445Y450158D02*
G03X192561Y450479I-383J321D01*
G01X192562D02*
G03X192062Y450979I-500J-0D01*
G01X192062D02*
X166046D01*
X164738Y451521D02*
G03X166046Y450979I1308J1308D01*
G01X164738Y451521D02*
X160895Y455363D01*
X160353Y456671D02*
G03X160895Y455363I1850J0D01*
G01X160353Y456671D02*
Y456904D01*
G03X160207Y457257I-500J-0*
G01X159741Y457723*
G03X159449Y457866I-354J-353*
G01X157278Y460325D02*
G03X159449Y457866I2478J-0D01*
G01X162214Y460631D02*
G03X157278Y460325I-2458J-306D01*
G01X162214Y460631D02*
G03X162357Y460340I497J62D01*
G01X163512Y459185*
X164053Y457877D02*
G03X163512Y459185I-1850J0D01*
G01X164053Y457877D02*
Y457645D01*
G03X164200Y457291I500J-0*
G01X166666Y454825*
G03X167019Y454679I353J354*
G01X228015*
G03X228322Y454784I0J500*
G01X232322Y452829D02*
G03X228322Y454784I-2478J-0D01*
G01X208639Y498932D02*
G03X208639I-2478J0D01*
G01X183077Y420975D02*
G03X187077Y422931I1522J1956D01*
G01X183077Y420975D02*
G03X182770Y421081I-307J-394D01*
G01X164752*
X163444Y421623D02*
G03X164752Y421081I1308J1308D01*
G01X163444Y421623D02*
X160847Y424219D01*
X160581Y424556D02*
G03X160847Y424219I1574J972D01*
G01X160581Y424556D02*
X158852Y427358D01*
G03X158601Y427564I-426J-262*
G01X156988Y429886D02*
G03X158601Y427564I2478J0D01*
G01X161944Y429886D02*
G03X156988I-2478J0D01*
G01X161929Y429618D02*
G03X161944Y429886I-2463J269D01*
G01X161929Y429618D02*
G03X161926Y429564I497J-54D01*
G01X161926*
G03X162001Y429301I500J-0*
G01X163586Y426733*
G03X163658Y426642I425J262*
G01X165372Y424927*
G03X165726Y424781I354J354*
G01X182770*
G03X183077Y424886I-0J500*
G01X187077Y422931D02*
G03X183077Y424886I-2478J-0D01*
G01X185267Y438580D02*
G03X185267I-2478J0D01*
G01X223553Y515250D02*
G03X227553Y517205I1522J1955D01*
G01X223553Y515250D02*
G03X223246Y515355I-307J-395D01*
G01X196901*
G03X196401Y514855I-0J-500*
X196465Y514611I500J0*
G01X196782Y513398D02*
G03X196465Y514611I-2478J-0D01*
G01X196259Y511876D02*
G03X196782Y513398I-1955J1522D01*
G01X196259Y511876D02*
G03X196154Y511569I395J-307D01*
G01Y502737*
G03X196216Y502496I500J-0*
G01X196445Y501604D02*
G03X196216Y502496I-1850J-0D01*
G01X196445Y501604D02*
Y491930D01*
G03X196551Y491623I500J-0*
G01X197073Y490101D02*
G03X196551Y491623I-2478J-0D01*
G01X192117Y490101D02*
G03X197073I2478J-0D01*
G01X192640Y491623D02*
G03X192117Y490101I1955J-1522D01*
G01X192640Y491623D02*
G03X192745Y491930I-395J307D01*
G01Y500762*
G03X192683Y501003I-500J-0*
G01X192454Y501895D02*
G03X192683Y501003I1850J-0D01*
G01X192454Y501895D02*
Y511569D01*
G03X192349Y511876I-500J-0*
G01X191826Y513398D02*
G03X192349Y511876I2478J-0D01*
G01X192143Y514611D02*
G03X191826Y513398I2161J-1213D01*
G01X192143Y514611D02*
G03X192207Y514855I-436J244D01*
X191707Y515355I-500J0*
G01X169163*
X167855Y515897D02*
G03X169163Y515355I1308J1308D01*
G01X167855Y515897D02*
X164943Y518809D01*
X164571Y519342D02*
G03X164943Y518809I1680J775D01*
G01X164571Y519342D02*
X163590Y521467D01*
G03X163366Y521702I-454J-209*
G01X162026Y523903D02*
G03X163366Y521702I2478J0D01*
G01X166982Y523903D02*
G03X162026I-2478J0D01*
G01X166917Y523341D02*
G03X166982Y523903I-2413J562D01*
G01X166917Y523341D02*
G03X166904Y523227I487J-114D01*
X166950Y523018I500J0*
G01X167755Y521273*
G03X167855Y521129I454J210*
G01X169783Y519202*
G03X170136Y519055I353J353*
G01X223246*
G03X223553Y519161I0J500*
G01X227553Y517205D02*
G03X223553Y519161I-2478J0D01*
G01X185303Y484243D02*
G03X189303Y486199I1522J1956D01*
G01X185303Y484243D02*
G03X184996Y484349I-307J-394D01*
G01X168369*
X167061Y484891D02*
G03X168369Y484349I1308J1308D01*
G01X167061Y484891D02*
X160807Y491145D01*
X160265Y492453D02*
G03X160807Y491145I1850J0D01*
G01X160265Y492453D02*
Y492593D01*
G03X160118Y492946I-500J-0*
G01X160100Y492964*
G03X159809Y493107I-353J-353*
G01X157637Y495566D02*
G03X159809Y493107I2478J-0D01*
G01X162574Y495872D02*
G03X157637Y495566I-2459J-306D01*
G01X162574Y495872D02*
G03X162717Y495581I496J62D01*
G01X163423Y494874*
X163965Y493566D02*
G03X163423Y494874I-1850J0D01*
G01X163965Y493566D02*
Y493427D01*
G03X164111Y493073I500J-0*
G01X168989Y488195*
G03X169343Y488049I354J354*
G01X184996*
G03X185303Y488154I-0J500*
G01X189303Y486199D02*
G03X185303Y488154I-2478J-0D01*
G01X176118Y505109D02*
G03X176118I-2478J0D01*
G01X148913Y366470D02*
G03X148913I-2478J0D01*
G01X146772Y379894D02*
G03X146772I-2478J0D01*
G01X147004Y399972D02*
G03X147004I-2478J0D01*
G01X146599Y422364D02*
G03X146599I-2478J0D01*
G01X147062Y452336D02*
G03X147062I-2478J0D01*
G01X146657Y487168D02*
G03X146657I-2478J0D01*
G01X147067Y519726D02*
G03X147067I-2478J0D01*
G01X141218Y373703D02*
G03X141218I-2478J0D01*
G01Y394128D02*
G03X141218I-2478J0D01*
G01X141333Y416346D02*
G03X141333I-2478J0D01*
G01X141102Y446318D02*
G03X141102I-2478J0D01*
G01X141333Y481787D02*
G03X141333I-2478J0D01*
G01X141339Y514303D02*
G03X141339I-2478J0D01*
G01X148520Y554395D02*
X460265D01*
X147620Y553495D02*
X460265D01*
X146720Y552595D02*
X460265D01*
X145820Y551695D02*
X460265D01*
X144920Y550795D02*
X460265D01*
X144020Y549895D02*
X460265D01*
X143120Y548995D02*
X460265D01*
X142220Y548095D02*
X460265D01*
X141320Y547195D02*
X460265D01*
X140420Y546295D02*
X460265D01*
X139520Y545395D02*
X460265D01*
X138620Y544495D02*
X460265D01*
X137720Y543595D02*
X460265D01*
X136820Y542695D02*
X460265D01*
X135920Y541795D02*
X460265D01*
X445460Y540895D02*
X460265D01*
X447469Y539995D02*
X460265D01*
X448297Y539095D02*
X460265D01*
X448764Y538195D02*
X460265D01*
X448995Y537295D02*
X460265D01*
X449026Y536395D02*
X460265D01*
X448862Y535495D02*
X460265D01*
X448479Y534595D02*
X460265D01*
X447793Y533695D02*
X460265D01*
X446466Y532795D02*
X460265D01*
X404389Y531895D02*
X460265D01*
X404072Y530995D02*
X460265D01*
X403422Y530095D02*
X460265D01*
X401956Y529195D02*
X460265D01*
X257786Y528295D02*
X460265D01*
X257786Y527395D02*
X460265D01*
X257786Y526495D02*
X460265D01*
X257786Y525595D02*
X460265D01*
X257786Y524695D02*
X460265D01*
X273247Y523795D02*
X460265D01*
X273797Y522895D02*
X460265D01*
X273933Y521995D02*
X460265D01*
X273729Y521095D02*
X460265D01*
X273063Y520195D02*
X460265D01*
X257776Y519295D02*
X460265D01*
X257527Y518395D02*
X460265D01*
X256831Y517495D02*
X460265D01*
X255931Y516595D02*
X460265D01*
X446140Y515695D02*
X460265D01*
X447658Y514795D02*
X460265D01*
X448399Y513895D02*
X460265D01*
X448816Y512995D02*
X460265D01*
X449007Y512095D02*
X460265D01*
X449002Y511195D02*
X460265D01*
X448800Y510295D02*
X460265D01*
X448368Y509395D02*
X460265D01*
X447604Y508495D02*
X460265D01*
X445986Y507595D02*
X460265D01*
X253709Y506695D02*
X460265D01*
X253709Y505795D02*
X460265D01*
X259053Y504895D02*
X460265D01*
X259947Y503995D02*
X460265D01*
X260256Y503095D02*
X460265D01*
X260215Y502195D02*
X460265D01*
X259802Y501295D02*
X460265D01*
X258553Y500395D02*
X460265D01*
X254952Y499495D02*
X460265D01*
X254790Y498595D02*
X460265D01*
X254380Y497695D02*
X460265D01*
X253607Y496795D02*
X460265D01*
X252986Y495895D02*
X460265D01*
X445634Y494995D02*
X460265D01*
X446862Y494095D02*
X460265D01*
X447499Y493195D02*
X460265D01*
X447842Y492295D02*
X460265D01*
X447964Y491395D02*
X460265D01*
X447886Y490495D02*
X460265D01*
X447596Y489595D02*
X460265D01*
X447035Y488695D02*
X460265D01*
X445999Y487795D02*
X460265D01*
X395920Y486895D02*
X460265D01*
X396515Y485995D02*
X460265D01*
X445408Y485095D02*
X460265D01*
X446765Y484195D02*
X460265D01*
X447445Y483295D02*
X460265D01*
X447815Y482395D02*
X460265D01*
X447961Y481495D02*
X460265D01*
X447905Y480595D02*
X460265D01*
X447640Y479695D02*
X460265D01*
X447114Y478795D02*
X460265D01*
X446155Y477895D02*
X460265D01*
X405109Y476995D02*
X460265D01*
X405945Y476095D02*
X460265D01*
X445134Y475195D02*
X460265D01*
X446661Y474295D02*
X460265D01*
X447388Y473395D02*
X460265D01*
X447786Y472495D02*
X460265D01*
X447955Y471595D02*
X460265D01*
X447921Y470695D02*
X460265D01*
X447681Y469795D02*
X460265D01*
X447189Y468895D02*
X460265D01*
X446297Y467995D02*
X460265D01*
X252986Y467095D02*
X460265D01*
X252986Y466195D02*
X460265D01*
X444771Y465295D02*
X460265D01*
X446550Y464395D02*
X460265D01*
X447326Y463495D02*
X460265D01*
X447754Y462595D02*
X460265D01*
X447946Y461695D02*
X460265D01*
X447935Y460795D02*
X460265D01*
X447719Y459895D02*
X460265D01*
X447259Y458995D02*
X460265D01*
X446427Y458095D02*
X460265D01*
X368083Y457195D02*
X460265D01*
X368983Y456295D02*
X460265D01*
X443969Y455395D02*
X460265D01*
X446430Y454495D02*
X460265D01*
X447260Y453595D02*
X460265D01*
X447719Y452695D02*
X460265D01*
X447935Y451795D02*
X460265D01*
X447946Y450895D02*
X460265D01*
X447753Y449995D02*
X460265D01*
X447324Y449095D02*
X460265D01*
X446547Y448195D02*
X460265D01*
X444760Y447295D02*
X460265D01*
X410533Y446395D02*
X460265D01*
X410252Y445495D02*
X460265D01*
X446300Y444595D02*
X460265D01*
X447190Y443695D02*
X460265D01*
X447682Y442795D02*
X460265D01*
X447921Y441895D02*
X460265D01*
X447954Y440995D02*
X460265D01*
X447785Y440095D02*
X460265D01*
X447386Y439195D02*
X460265D01*
X446659Y438295D02*
X460265D01*
X445126Y437395D02*
X460265D01*
X388783Y436495D02*
X460265D01*
X389683Y435595D02*
X460265D01*
X446159Y434695D02*
X460265D01*
X447116Y433795D02*
X460265D01*
X447641Y432895D02*
X460265D01*
X447905Y431995D02*
X460265D01*
X447960Y431095D02*
X460265D01*
X447815Y430195D02*
X460265D01*
X447444Y429295D02*
X460265D01*
X446762Y428395D02*
X460265D01*
X445402Y427495D02*
X460265D01*
X396601Y426595D02*
X460265D01*
X396601Y425695D02*
X460265D01*
X446003Y424795D02*
X460265D01*
X447037Y423895D02*
X460265D01*
X447597Y422995D02*
X460265D01*
X447887Y422095D02*
X460265D01*
X447964Y421195D02*
X460265D01*
X447841Y420295D02*
X460265D01*
X447498Y419395D02*
X460265D01*
X446859Y418495D02*
X460265D01*
X445629Y417595D02*
X460265D01*
X396601Y416695D02*
X460265D01*
X396601Y415795D02*
X460265D01*
X445830Y414895D02*
X460265D01*
X446952Y413995D02*
X460265D01*
X447550Y413095D02*
X460265D01*
X447866Y412195D02*
X460265D01*
X447965Y411295D02*
X460265D01*
X447865Y410395D02*
X460265D01*
X447549Y409495D02*
X460265D01*
X446950Y408595D02*
X460265D01*
X445825Y407695D02*
X460265D01*
X443041Y406795D02*
X460265D01*
X442141Y405895D02*
X460265D01*
X441241Y404995D02*
X460265D01*
X440341Y404095D02*
X460265D01*
X439441Y403195D02*
X460265D01*
X438719Y402295D02*
X460265D01*
X438718Y401395D02*
X460265D01*
X438718Y400495D02*
X460265D01*
X438718Y399595D02*
X460265D01*
X438718Y398695D02*
X460265D01*
X438718Y397795D02*
X460265D01*
X438718Y396895D02*
X460265D01*
X438718Y395995D02*
X460265D01*
X438718Y395095D02*
X460265D01*
X438718Y394195D02*
X460265D01*
X438718Y393295D02*
X460265D01*
X439224Y392395D02*
X460265D01*
X439714Y391495D02*
X460265D01*
X439939Y390595D02*
X460265D01*
X439944Y389695D02*
X460265D01*
X439733Y388795D02*
X460265D01*
X439260Y387895D02*
X460265D01*
X438366Y386995D02*
X460265D01*
X417960Y386095D02*
X460265D01*
X448011Y385195D02*
X460265D01*
X448979Y384295D02*
X460265D01*
X449314Y383395D02*
X460265D01*
X449295Y382495D02*
X460265D01*
X448913Y381595D02*
X460265D01*
X447788Y380695D02*
X460265D01*
X350526Y379795D02*
X460265D01*
X349626Y378895D02*
X460265D01*
X364788Y377995D02*
X460265D01*
X365493Y377095D02*
X460265D01*
X450180Y376195D02*
X460265D01*
X451034Y375295D02*
X460265D01*
X451327Y374395D02*
X460265D01*
X451272Y373495D02*
X460265D01*
X450841Y372595D02*
X460265D01*
X449490Y371695D02*
X460265D01*
X401754Y370795D02*
X460265D01*
X402577Y369895D02*
X460265D01*
X402856Y368995D02*
X460265D01*
X453443Y368095D02*
X460265D01*
X453994Y367195D02*
X460265D01*
X454115Y366295D02*
X460265D01*
X453880Y365395D02*
X460265D01*
X453119Y364495D02*
X460265D01*
X249538Y363595D02*
X460265D01*
X412174Y351895D02*
X460265D01*
X127465Y350995D02*
X460265D01*
X127465Y350095D02*
X460265D01*
X127465Y349195D02*
X460265D01*
X127465Y348295D02*
X460265D01*
X413051Y352795D02*
X460166D01*
X437371Y364495D02*
X450360D01*
X437695Y368095D02*
X450035D01*
X437841Y362695D02*
X449890D01*
X438121Y353695D02*
X449610D01*
X438132Y365395D02*
X449599D01*
X438174Y361795D02*
X449557D01*
X438174Y360895D02*
X449557D01*
X438174Y359995D02*
X449557D01*
X438174Y359095D02*
X449557D01*
X438174Y358195D02*
X449557D01*
X438174Y357295D02*
X449557D01*
X438174Y356395D02*
X449557D01*
X438174Y355495D02*
X449557D01*
X438174Y354595D02*
X449557D01*
X438246Y367195D02*
X449485D01*
X438367Y366295D02*
X449364D01*
X390312Y371695D02*
X448245D01*
X365717Y376195D02*
X447554D01*
X390281Y372595D02*
X446894D01*
X365601Y375295D02*
X446700D01*
X389882Y373495D02*
X446463D01*
X388693Y374395D02*
X446408D01*
X351426Y380695D02*
X445949D01*
X417815Y385195D02*
X445726D01*
X352326Y381595D02*
X444825D01*
X417444Y384295D02*
X444758D01*
X415402Y382495D02*
X444442D01*
X416762Y383395D02*
X444423D01*
X438433Y540895D02*
X444114D01*
X433969Y455395D02*
X443762D01*
X438681Y507595D02*
X443571D01*
X438751Y515695D02*
X443417D01*
X438895Y532795D02*
X443108D01*
X434760Y447295D02*
X442971D01*
X434771Y465295D02*
X442960D01*
X435126Y437395D02*
X442604D01*
X435134Y475195D02*
X442596D01*
X435402Y427495D02*
X442329D01*
X435408Y485095D02*
X442323D01*
X439184Y539995D02*
X442104D01*
X435629Y417595D02*
X442102D01*
X437715Y494995D02*
X442096D01*
X439185Y508495D02*
X441953D01*
X435830Y414895D02*
X441901D01*
X439186Y514795D02*
X441899D01*
X439194Y533695D02*
X441781D01*
X437845Y487795D02*
X441732D01*
X436003Y424795D02*
X441728D01*
X436155Y477895D02*
X441576D01*
X436159Y434695D02*
X441572D01*
X436297Y467995D02*
X441434D01*
X436300Y444595D02*
X441430D01*
X436427Y458095D02*
X441304D01*
X436430Y454495D02*
X441301D01*
X439194Y539095D02*
X441277D01*
X439186Y509395D02*
X441189D01*
X436547Y448195D02*
X441184D01*
X436550Y464395D02*
X441181D01*
X439186Y513895D02*
X441158D01*
X439194Y534595D02*
X441095D01*
X436659Y438295D02*
X441072D01*
X436661Y474295D02*
X441069D01*
X436762Y428395D02*
X440968D01*
X436765Y484195D02*
X440966D01*
X436859Y418495D02*
X440872D01*
X437965Y494095D02*
X440869D01*
X439194Y538195D02*
X440809D01*
X436952Y413995D02*
X440779D01*
X439186Y510295D02*
X440757D01*
X439186Y512995D02*
X440741D01*
X439194Y535495D02*
X440711D01*
X437965Y488695D02*
X440696D01*
X437037Y423895D02*
X440694D01*
X437114Y478795D02*
X440617D01*
X437116Y433795D02*
X440615D01*
X439194Y537295D02*
X440579D01*
X439186Y511195D02*
X440555D01*
X439186Y512095D02*
X440550D01*
X439194Y536395D02*
X440548D01*
X437189Y468895D02*
X440542D01*
X437190Y443695D02*
X440540D01*
X437259Y458995D02*
X440472D01*
X437260Y453595D02*
X440470D01*
X437324Y449095D02*
X440406D01*
X437326Y463495D02*
X440405D01*
X437386Y439195D02*
X440345D01*
X437388Y473395D02*
X440343D01*
X437444Y429295D02*
X440287D01*
X437445Y483295D02*
X440286D01*
X437498Y419395D02*
X440233D01*
X437965Y493195D02*
X440232D01*
X437550Y413095D02*
X440181D01*
X437965Y489595D02*
X440135D01*
X437597Y422995D02*
X440134D01*
X437640Y479695D02*
X440091D01*
X437641Y432895D02*
X440090D01*
X437681Y469795D02*
X440050D01*
X437682Y442795D02*
X440049D01*
X437719Y459895D02*
X440012D01*
X437719Y452695D02*
X440011D01*
X437753Y449995D02*
X439977D01*
X437754Y462595D02*
X439976D01*
X437785Y440095D02*
X439945D01*
X437786Y472495D02*
X439945D01*
X437815Y430195D02*
X439916D01*
X437815Y482395D02*
X439915D01*
X437841Y420295D02*
X439890D01*
X437965Y492295D02*
X439889D01*
X437866Y412195D02*
X439865D01*
X437965Y490495D02*
X439844D01*
X437887Y422095D02*
X439844D01*
X437905Y480595D02*
X439826D01*
X437905Y431995D02*
X439825D01*
X437921Y470695D02*
X439810D01*
X437921Y441895D02*
X439809D01*
X437935Y460795D02*
X439796D01*
X437935Y451795D02*
X439796D01*
X437946Y450895D02*
X439785D01*
X437946Y461695D02*
X439785D01*
X437954Y440995D02*
X439776D01*
X437955Y471595D02*
X439776D01*
X437960Y431095D02*
X439770D01*
X437961Y481495D02*
X439770D01*
X437964Y421195D02*
X439767D01*
X437965Y491395D02*
X439767D01*
X437965Y411295D02*
X439765D01*
X437865Y410395D02*
X439287D01*
X417965Y406795D02*
X435529D01*
X417965Y405895D02*
X434787D01*
X248587Y364495D02*
X434612D01*
X402790Y368095D02*
X434287D01*
X417965Y404995D02*
X433957D01*
X417905Y386995D02*
X433870D01*
X246950Y365395D02*
X433851D01*
X369883Y455395D02*
X433762D01*
X402343Y367195D02*
X433737D01*
X400884Y366295D02*
X433616D01*
X417965Y404095D02*
X433576D01*
X417961Y403195D02*
X433518D01*
X417321Y402295D02*
X433518D01*
X372665Y401395D02*
X433518D01*
X371750Y400495D02*
X433518D01*
X406300Y399595D02*
X433518D01*
X407190Y398695D02*
X433518D01*
X407682Y397795D02*
X433518D01*
X407921Y396895D02*
X433518D01*
X407954Y395995D02*
X433518D01*
X407785Y395095D02*
X433518D01*
X407386Y394195D02*
X433518D01*
X406659Y393295D02*
X433518D01*
X405126Y392395D02*
X433012D01*
X417641Y387895D02*
X432976D01*
X410469Y447295D02*
X432971D01*
X252986Y465295D02*
X432960D01*
X387883Y437395D02*
X432604D01*
X406229Y475195D02*
X432596D01*
X362750Y391495D02*
X432522D01*
X417116Y388795D02*
X432503D01*
X396601Y427495D02*
X432329D01*
X396679Y485095D02*
X432323D01*
X361850Y390595D02*
X432297D01*
X416159Y389695D02*
X432292D01*
X396601Y417595D02*
X432102D01*
X417965Y407695D02*
X431906D01*
X396601Y414895D02*
X431901D01*
X396601Y424795D02*
X431728D01*
X403804Y477895D02*
X431576D01*
X390583Y434695D02*
X431572D01*
X135020Y540895D02*
X431456D01*
X252986Y467995D02*
X431434D01*
X409425Y444595D02*
X431430D01*
X367183Y458095D02*
X431304D01*
X370783Y454495D02*
X431301D01*
X253709Y507595D02*
X431191D01*
X410024Y448195D02*
X431184D01*
X252986Y464395D02*
X431181D01*
X255031Y515695D02*
X431121D01*
X386983Y438295D02*
X431072D01*
X406167Y474295D02*
X431069D01*
X404462Y532795D02*
X430994D01*
X396477Y428395D02*
X430968D01*
X396503Y484195D02*
X430966D01*
X396601Y418495D02*
X430872D01*
X417965Y408595D02*
X430781D01*
X396601Y413995D02*
X430779D01*
X134120Y539995D02*
X430705D01*
X255431Y539095D02*
X430695D01*
X257669Y538195D02*
X430695D01*
X258450Y537295D02*
X430695D01*
X258863Y536395D02*
X430695D01*
X403060Y535495D02*
X430695D01*
X403888Y534595D02*
X430695D01*
X404307Y533695D02*
X430695D01*
X396601Y423895D02*
X430694D01*
X253709Y508495D02*
X430687D01*
X254131Y514795D02*
X430686D01*
X253709Y513895D02*
X430686D01*
X253709Y512995D02*
X430686D01*
X253709Y512095D02*
X430686D01*
X253709Y511195D02*
X430686D01*
X253709Y510295D02*
X430686D01*
X253709Y509395D02*
X430686D01*
X404146Y478795D02*
X430617D01*
X391483Y433795D02*
X430615D01*
X252986Y468895D02*
X430542D01*
X381583Y443695D02*
X430540D01*
X366283Y458995D02*
X430472D01*
X371683Y453595D02*
X430470D01*
X408581Y449095D02*
X430406D01*
X252986Y463495D02*
X430405D01*
X408093Y439195D02*
X430345D01*
X405727Y473395D02*
X430343D01*
X395973Y429295D02*
X430287D01*
X395887Y483295D02*
X430286D01*
X396601Y419395D02*
X430233D01*
X417947Y409495D02*
X430182D01*
X396601Y413095D02*
X430181D01*
X396601Y422995D02*
X430134D01*
X404184Y479695D02*
X430091D01*
X392383Y432895D02*
X430090D01*
X253464Y469795D02*
X430050D01*
X407980Y442795D02*
X430049D01*
X252986Y494995D02*
X430016D01*
X365366Y459895D02*
X430012D01*
X372583Y452695D02*
X430011D01*
X375283Y449995D02*
X429977D01*
X323522Y462595D02*
X429976D01*
X408664Y440095D02*
X429945D01*
X404315Y472495D02*
X429945D01*
X395083Y430195D02*
X429916D01*
X252986Y482395D02*
X429915D01*
X396601Y420295D02*
X429890D01*
X281129Y487795D02*
X429886D01*
X416919Y410395D02*
X429866D01*
X396601Y412195D02*
X429865D01*
X396601Y422095D02*
X429844D01*
X403870Y480595D02*
X429826D01*
X393283Y431995D02*
X429825D01*
X253813Y470695D02*
X429810D01*
X408622Y441895D02*
X429809D01*
X324200Y460795D02*
X429796D01*
X373483Y451795D02*
X429796D01*
X374383Y450895D02*
X429785D01*
X324068Y461695D02*
X429785D01*
X408812Y440995D02*
X429776D01*
X253928Y471595D02*
X429776D01*
X394183Y431095D02*
X429770D01*
X402963Y481495D02*
X429770D01*
X396601Y421195D02*
X429767D01*
X252986Y494095D02*
X429765D01*
X252986Y493195D02*
X429765D01*
X252986Y492295D02*
X429765D01*
X252986Y491395D02*
X429765D01*
X252986Y490495D02*
X429765D01*
X279770Y489595D02*
X429765D01*
X280780Y488695D02*
X429765D01*
X396601Y411295D02*
X429765D01*
X270925Y362695D02*
X427646D01*
X413352Y353695D02*
X427366D01*
X292952Y361795D02*
X427313D01*
X293710Y360895D02*
X427313D01*
X294095Y359995D02*
X427313D01*
X335921Y359095D02*
X427313D01*
X336788Y358195D02*
X427313D01*
X337086Y357295D02*
X427313D01*
X411594Y356395D02*
X427313D01*
X412885Y355495D02*
X427313D01*
X413305Y354595D02*
X427313D01*
X353226Y382495D02*
X412329D01*
X382462Y389695D02*
X411572D01*
X354126Y383395D02*
X410968D01*
X396601Y410395D02*
X410812D01*
X393344Y388795D02*
X410615D01*
X374787Y402295D02*
X410410D01*
X355254Y384295D02*
X410287D01*
X337035Y356395D02*
X410197D01*
X393832Y387895D02*
X410090D01*
X392929Y385195D02*
X409916D01*
X393927Y386995D02*
X409825D01*
X396601Y409495D02*
X409783D01*
X393681Y386095D02*
X409770D01*
X375304Y403195D02*
X409770D01*
X396601Y408595D02*
X409765D01*
X396601Y407695D02*
X409765D01*
X396601Y406795D02*
X409765D01*
X396562Y405895D02*
X409765D01*
X396225Y404995D02*
X409765D01*
X395309Y404095D02*
X409765D01*
X291325Y351895D02*
X409616D01*
X336611Y355495D02*
X408906D01*
X293060Y352795D02*
X408740D01*
X335297Y354595D02*
X408486D01*
X293766Y353695D02*
X408438D01*
X376183Y449095D02*
X407561D01*
X380683Y444595D02*
X406716D01*
X377083Y448195D02*
X406118D01*
X379783Y445495D02*
X405889D01*
X377983Y447295D02*
X405673D01*
X378883Y446395D02*
X405608D01*
X382483Y442795D02*
X404690D01*
X386083Y439195D02*
X404577D01*
X383383Y441895D02*
X404048D01*
X385183Y440095D02*
X404006D01*
X384283Y440995D02*
X403858D01*
X368361Y472495D02*
X403219D01*
X363650Y392395D02*
X402604D01*
X378235Y473395D02*
X401795D01*
X370850Y399595D02*
X401430D01*
X364550Y393295D02*
X401072D01*
X369950Y398695D02*
X400540D01*
X397451Y481495D02*
X400498D01*
X365450Y394195D02*
X400345D01*
X369050Y397795D02*
X400049D01*
X366350Y395095D02*
X399945D01*
X246050Y366295D02*
X399902D01*
X368150Y396895D02*
X399809D01*
X367250Y395995D02*
X399776D01*
X370460Y529195D02*
X399751D01*
X389991Y370795D02*
X399033D01*
X371564Y535495D02*
X398647D01*
X245181Y367195D02*
X398443D01*
X371926Y530095D02*
X398285D01*
X389065Y369895D02*
X398209D01*
X340890Y368095D02*
X397996D01*
X341910Y368995D02*
X397930D01*
X372392Y534595D02*
X397819D01*
X372576Y530995D02*
X397635D01*
X372811Y533695D02*
X397400D01*
X372893Y531895D02*
X397318D01*
X372966Y532795D02*
X397245D01*
X383533Y476995D02*
X395118D01*
X380557Y481495D02*
X394986D01*
X382633Y477895D02*
X394209D01*
X381156Y480595D02*
X394079D01*
X381733Y478795D02*
X393802D01*
X381321Y479695D02*
X393765D01*
X375419Y404095D02*
X392693D01*
X252986Y483295D02*
X392514D01*
X281122Y486895D02*
X392481D01*
X252986Y484195D02*
X391898D01*
X280754Y485995D02*
X391886D01*
X375194Y404995D02*
X391777D01*
X279682Y485095D02*
X391723D01*
X374485Y405895D02*
X391440D01*
X278428Y425695D02*
X391401D01*
X279936Y424795D02*
X391401D01*
X280389Y423895D02*
X391401D01*
X280459Y422995D02*
X391401D01*
X280184Y422095D02*
X391401D01*
X279372Y421195D02*
X391401D01*
X269110Y420295D02*
X391401D01*
X347743Y419395D02*
X391401D01*
X348876Y418495D02*
X391401D01*
X349262Y417595D02*
X391401D01*
X349282Y416695D02*
X391401D01*
X348949Y415795D02*
X391401D01*
X347987Y414895D02*
X391401D01*
X325819Y413995D02*
X391401D01*
X325715Y413095D02*
X391401D01*
X325377Y412195D02*
X391401D01*
X324723Y411295D02*
X391401D01*
X324569Y410395D02*
X391401D01*
X324569Y409495D02*
X391401D01*
X324569Y408595D02*
X391401D01*
X368711Y407695D02*
X391401D01*
X369835Y406795D02*
X391401D01*
X239907Y426595D02*
X391316D01*
X239603Y427495D02*
X390429D01*
X356450Y385195D02*
X389985D01*
X383054Y388795D02*
X389570D01*
X238719Y428395D02*
X389529D01*
X382419Y386095D02*
X389233D01*
X383216Y387895D02*
X389082D01*
X383038Y386995D02*
X388987D01*
X196380Y429295D02*
X388629D01*
X196380Y430195D02*
X387729D01*
X365080Y374395D02*
X387030D01*
X196380Y431095D02*
X386829D01*
X342810Y369895D02*
X386657D01*
X207965Y431995D02*
X385929D01*
X345131Y373495D02*
X385840D01*
X343710Y370795D02*
X385731D01*
X345106Y372595D02*
X385441D01*
X344610Y371695D02*
X385410D01*
X252644Y432895D02*
X385029D01*
X253648Y433795D02*
X384129D01*
X338194Y434695D02*
X383229D01*
X338681Y435595D02*
X382329D01*
X378832Y474295D02*
X382273D01*
X338775Y436495D02*
X381429D01*
X378996Y475195D02*
X381373D01*
X338527Y437395D02*
X380529D01*
X378822Y476095D02*
X380473D01*
X337774Y438295D02*
X379629D01*
X378633Y476995D02*
X379573D01*
X357350Y386095D02*
X379056D01*
X360950Y389695D02*
X379013D01*
X259540Y439195D02*
X378729D01*
X358250Y386995D02*
X378437D01*
X360050Y388795D02*
X378421D01*
X359150Y387895D02*
X378260D01*
X252986Y440095D02*
X377829D01*
X252986Y481495D02*
X377130D01*
X336717Y440995D02*
X376929D01*
X252986Y477895D02*
X376731D01*
X252986Y478795D02*
X376538D01*
X252986Y480595D02*
X376531D01*
X252986Y479695D02*
X376365D01*
X338146Y441895D02*
X376029D01*
X338588Y442795D02*
X375129D01*
X252986Y476995D02*
X374829D01*
X368872Y473395D02*
X374801D01*
X338651Y443695D02*
X374229D01*
X368031Y476095D02*
X374215D01*
X368982Y474295D02*
X374205D01*
X368751Y475195D02*
X374040D01*
X338369Y444595D02*
X373329D01*
X337538Y445495D02*
X372429D01*
X252986Y446395D02*
X371529D01*
X370218Y405895D02*
X371406D01*
X252986Y447295D02*
X370629D01*
X252986Y448195D02*
X369729D01*
X252986Y449095D02*
X368829D01*
X257786Y529195D02*
X368255D01*
X252986Y449995D02*
X367929D01*
X259029Y535495D02*
X367151D01*
X252986Y450895D02*
X367029D01*
X324569Y407695D02*
X366872D01*
X257786Y530095D02*
X366789D01*
X258980Y534595D02*
X366323D01*
X257786Y530995D02*
X366139D01*
X252986Y451795D02*
X366129D01*
X258707Y533695D02*
X365904D01*
X257786Y531895D02*
X365822D01*
X258150Y532795D02*
X365749D01*
X324569Y406795D02*
X365748D01*
X324569Y405895D02*
X365365D01*
X331846Y452695D02*
X365229D01*
X324769Y404995D02*
X365130D01*
X252986Y476095D02*
X364986D01*
X253829Y472495D02*
X364655D01*
X332433Y453595D02*
X364329D01*
X252986Y475195D02*
X364266D01*
X324798Y404095D02*
X364230D01*
X253498Y473395D02*
X364145D01*
X252987Y474295D02*
X364035D01*
X332592Y454495D02*
X363429D01*
X324798Y403195D02*
X363330D01*
X332412Y455395D02*
X362529D01*
X324798Y402295D02*
X362430D01*
X323993Y459895D02*
X362064D01*
X348726Y377995D02*
X361698D01*
X331787Y456295D02*
X361659D01*
X324798Y401395D02*
X361530D01*
X345174Y374395D02*
X361406D01*
X323321Y458995D02*
X361363D01*
X272629Y457195D02*
X361209D01*
X252986Y458095D02*
X361123D01*
X347826Y377095D02*
X360993D01*
X346026Y375295D02*
X360885D01*
X346926Y376195D02*
X360769D01*
X324798Y400495D02*
X360630D01*
X324798Y399595D02*
X359730D01*
X324798Y398695D02*
X358830D01*
X325266Y397795D02*
X357930D01*
X325774Y396895D02*
X357030D01*
X326012Y395995D02*
X356130D01*
X326029Y395095D02*
X355230D01*
X325831Y394195D02*
X354330D01*
X325375Y393295D02*
X353430D01*
X324516Y392395D02*
X352530D01*
X280328Y391495D02*
X351630D01*
X281653Y390595D02*
X350730D01*
X282318Y389695D02*
X349830D01*
X282676Y388795D02*
X348930D01*
X282809Y387895D02*
X348030D01*
X282738Y386995D02*
X347130D01*
X312104Y386095D02*
X346230D01*
X127465Y419395D02*
X345928D01*
X325710Y414895D02*
X345684D01*
X312634Y385195D02*
X345330D01*
X140089Y418495D02*
X344795D01*
X325367Y415795D02*
X344723D01*
X312757Y384295D02*
X344430D01*
X323309Y417595D02*
X344410D01*
X324704Y416695D02*
X344389D01*
X312540Y383395D02*
X343530D01*
X311848Y382495D02*
X342630D01*
X175651Y381595D02*
X341730D01*
X335155Y380695D02*
X340830D01*
X336235Y379795D02*
X339937D01*
X336606Y378895D02*
X339559D01*
X336615Y377995D02*
X339008D01*
X336268Y377095D02*
X338108D01*
X335265Y376195D02*
X337208D01*
X334858Y375295D02*
X336308D01*
X252986Y440995D02*
X335661D01*
X252986Y445495D02*
X334841D01*
X260087Y438295D02*
X334836D01*
X254172Y434695D02*
X334416D01*
X252986Y441895D02*
X334233D01*
X260220Y437395D02*
X334083D01*
X252986Y444595D02*
X334010D01*
X294121Y354595D02*
X333959D01*
X259341Y435595D02*
X333929D01*
X260013Y436495D02*
X333835D01*
X252986Y442795D02*
X333790D01*
X252986Y443695D02*
X333727D01*
X248157Y375295D02*
X333490D01*
X307307Y359095D02*
X333335D01*
X242757Y380695D02*
X333192D01*
X247257Y376195D02*
X333082D01*
X307395Y355495D02*
X332645D01*
X307941Y358195D02*
X332468D01*
X307974Y356395D02*
X332220D01*
X308127Y357295D02*
X332170D01*
X243657Y379795D02*
X332112D01*
X246357Y377095D02*
X332079D01*
X244557Y378895D02*
X331742D01*
X245457Y377995D02*
X331732D01*
X273387Y456295D02*
X328440D01*
X252986Y452695D02*
X328382D01*
X273637Y455395D02*
X327816D01*
X273060Y453595D02*
X327795D01*
X273544Y454495D02*
X327636D01*
X140996Y417595D02*
X320629D01*
X252986Y458995D02*
X320127D01*
X252986Y462595D02*
X319926D01*
X180613Y392395D02*
X319880D01*
X184054Y403195D02*
X319598D01*
X183874Y402295D02*
X319598D01*
X183250Y401395D02*
X319598D01*
X182976Y400495D02*
X319598D01*
X182976Y399595D02*
X319598D01*
X182976Y398695D02*
X319598D01*
X183895Y404095D02*
X319479D01*
X252986Y459895D02*
X319455D01*
X252986Y461695D02*
X319380D01*
X160289Y410395D02*
X319369D01*
X161189Y409495D02*
X319369D01*
X162089Y408595D02*
X319369D01*
X167301Y407695D02*
X319369D01*
X168230Y406795D02*
X319369D01*
X169130Y405895D02*
X319369D01*
X183307Y404995D02*
X319369D01*
X252986Y460795D02*
X319248D01*
X141309Y416695D02*
X319234D01*
X159389Y411295D02*
X319215D01*
X215522Y397795D02*
X319130D01*
X180894Y393295D02*
X319020D01*
X216036Y396895D02*
X318621D01*
X141271Y415795D02*
X318571D01*
X215206Y394195D02*
X318565D01*
X158356Y412195D02*
X318561D01*
X216148Y395995D02*
X318384D01*
X215920Y395095D02*
X318366D01*
X140864Y414895D02*
X318228D01*
X127465Y413095D02*
X318223D01*
X139639Y413995D02*
X318119D01*
X174751Y382495D02*
X308716D01*
X282454Y386095D02*
X308460D01*
X236809Y383395D02*
X308024D01*
X281897Y385195D02*
X307930D01*
X280863Y384295D02*
X307807D01*
X294227Y359095D02*
X303991D01*
X294228Y355495D02*
X303903D01*
X294228Y358195D02*
X303357D01*
X294228Y356395D02*
X303325D01*
X294228Y357295D02*
X303172D01*
X127465Y351895D02*
X289813D01*
X272086Y361795D02*
X288186D01*
X271294Y352795D02*
X288078D01*
X272654Y360895D02*
X287428D01*
X272253Y353695D02*
X287372D01*
X272922Y359995D02*
X287043D01*
X272740Y354595D02*
X287017D01*
X272968Y359095D02*
X286911D01*
X272968Y358195D02*
X286910D01*
X272968Y357295D02*
X286910D01*
X272968Y356395D02*
X286910D01*
X272949Y355495D02*
X286910D01*
X268712Y485095D02*
X277696D01*
X269335Y489595D02*
X277608D01*
X239863Y425695D02*
X277562D01*
X180613Y391495D02*
X277188D01*
X237966Y384295D02*
X276654D01*
X270026Y485995D02*
X276624D01*
X269899Y421195D02*
X276618D01*
X270203Y488695D02*
X276598D01*
X270450Y486895D02*
X276256D01*
X270501Y487795D02*
X276249D01*
X267942Y424795D02*
X276053D01*
X180613Y390595D02*
X275863D01*
X270162Y422095D02*
X275805D01*
X238358Y385195D02*
X275619D01*
X269616Y423895D02*
X275601D01*
X270082Y422995D02*
X275530D01*
X180613Y389695D02*
X275198D01*
X238383Y386095D02*
X275062D01*
X180613Y388795D02*
X274840D01*
X238056Y386995D02*
X274778D01*
X237111Y387895D02*
X274708D01*
X257786Y520195D02*
X269850D01*
X252986Y457195D02*
X269705D01*
X257786Y523795D02*
X269666D01*
X252986Y453595D02*
X269274D01*
X257786Y521095D02*
X269183D01*
X257786Y522895D02*
X269116D01*
X257786Y521995D02*
X268980D01*
X252986Y456295D02*
X268947D01*
X252986Y454495D02*
X268790D01*
X252986Y455395D02*
X268697D01*
X249868Y362695D02*
X267693D01*
X239445Y424795D02*
X267448D01*
X252986Y485095D02*
X267373D01*
X127465Y352795D02*
X267324D01*
X252986Y489595D02*
X266750D01*
X249844Y361795D02*
X266533D01*
X127465Y353695D02*
X266366D01*
X145485Y420295D02*
X266281D01*
X252986Y485995D02*
X266060D01*
X249455Y360895D02*
X265964D01*
X252986Y488695D02*
X265882D01*
X127465Y354595D02*
X265879D01*
X238171Y423895D02*
X265775D01*
X248306Y359995D02*
X265697D01*
X245423Y355495D02*
X265669D01*
X245465Y359095D02*
X265650D01*
X245465Y358195D02*
X265650D01*
X245465Y357295D02*
X265650D01*
X245465Y356395D02*
X265650D01*
X252986Y486895D02*
X265635D01*
X252986Y487795D02*
X265585D01*
X186368Y421195D02*
X265492D01*
X196094Y422995D02*
X265309D01*
X186932Y422095D02*
X265229D01*
X254900Y500395D02*
X257050D01*
X253709Y504895D02*
X256550D01*
X254422Y435595D02*
X256145D01*
X253065Y439195D02*
X255946D01*
X254625Y501295D02*
X255800D01*
X253709Y503995D02*
X255655D01*
X254459Y436495D02*
X255473D01*
X253823Y438295D02*
X255400D01*
X254063Y502195D02*
X255388D01*
X253709Y503095D02*
X255346D01*
X254263Y437395D02*
X255260D01*
X133220Y539095D02*
X254942D01*
X132320Y538195D02*
X252703D01*
X127465Y531895D02*
X252586D01*
X127465Y530995D02*
X252586D01*
X127465Y530095D02*
X252586D01*
X127465Y529195D02*
X252586D01*
X127465Y528295D02*
X252586D01*
X127465Y527395D02*
X252586D01*
X127465Y526495D02*
X252586D01*
X166314Y525595D02*
X252586D01*
X166852Y524695D02*
X252586D01*
X241549Y523795D02*
X252586D01*
X242211Y522895D02*
X252586D01*
X242411Y521995D02*
X252586D01*
X242273Y521095D02*
X252586D01*
X127465Y532795D02*
X252223D01*
X241719Y520195D02*
X252177D01*
X131420Y537295D02*
X251922D01*
X127820Y533695D02*
X251665D01*
X130520Y536395D02*
X251509D01*
X128720Y534595D02*
X251393D01*
X129620Y535495D02*
X251344D01*
X226407Y519295D02*
X251277D01*
X227249Y518395D02*
X250377D01*
X227536Y517495D02*
X249477D01*
X227477Y516595D02*
X248775D01*
X208682Y432895D02*
X248585D01*
X227040Y515695D02*
X248521D01*
X225652Y514795D02*
X248509D01*
X196731Y513895D02*
X248509D01*
X196749Y512995D02*
X248509D01*
X196412Y512095D02*
X248509D01*
X196154Y511195D02*
X248509D01*
X196154Y510295D02*
X248509D01*
X196154Y509395D02*
X248509D01*
X196154Y508495D02*
X248262D01*
X196154Y507595D02*
X247856D01*
X196195Y439195D02*
X247820D01*
X196154Y506695D02*
X247786D01*
X196154Y505795D02*
X247786D01*
X196154Y504895D02*
X247786D01*
X196154Y503995D02*
X247786D01*
X196154Y503095D02*
X247786D01*
X196348Y502195D02*
X247786D01*
X207417Y496795D02*
X247786D01*
X196445Y495895D02*
X247786D01*
X196445Y494995D02*
X247786D01*
X196445Y494095D02*
X247786D01*
X238911Y493195D02*
X247786D01*
X239625Y492295D02*
X247786D01*
X239852Y491395D02*
X247786D01*
X239740Y490495D02*
X247786D01*
X239225Y489595D02*
X247786D01*
X196636Y488695D02*
X247786D01*
X195503Y487795D02*
X247786D01*
X189203Y486895D02*
X247786D01*
X189294Y485995D02*
X247786D01*
X189044Y485095D02*
X247786D01*
X188283Y484195D02*
X247786D01*
X140821Y483295D02*
X247786D01*
X141258Y482395D02*
X247786D01*
X141316Y481495D02*
X247786D01*
X141028Y480595D02*
X247786D01*
X140184Y479695D02*
X247786D01*
X127465Y478795D02*
X247786D01*
X127465Y477895D02*
X247786D01*
X127465Y476995D02*
X247786D01*
X127465Y476095D02*
X247786D01*
X127465Y475195D02*
X247786D01*
X127465Y467995D02*
X247786D01*
X127465Y467095D02*
X247786D01*
X127465Y466195D02*
X247786D01*
X127465Y465295D02*
X247786D01*
X127465Y464395D02*
X247786D01*
X127465Y463495D02*
X247786D01*
X160748Y462595D02*
X247786D01*
X161820Y461695D02*
X247786D01*
X162188Y460795D02*
X247786D01*
X162801Y459895D02*
X247786D01*
X240428Y458995D02*
X247786D01*
X241190Y458095D02*
X247786D01*
X241442Y457195D02*
X247786D01*
X241351Y456295D02*
X247786D01*
X240870Y455395D02*
X247786D01*
X231678Y454495D02*
X247786D01*
X232201Y453595D02*
X247786D01*
X232319Y452695D02*
X247786D01*
X232097Y451795D02*
X247786D01*
X231394Y450895D02*
X247786D01*
X196369Y449995D02*
X247786D01*
X196766Y449095D02*
X247786D01*
X196795Y448195D02*
X247786D01*
X196472Y447295D02*
X247786D01*
X196195Y446395D02*
X247786D01*
X196195Y445495D02*
X247786D01*
X196195Y444595D02*
X247786D01*
X196195Y443695D02*
X247786D01*
X196195Y442795D02*
X247786D01*
X196195Y441895D02*
X247786D01*
X196195Y440995D02*
X247786D01*
X196195Y440095D02*
X247786D01*
X208309Y497695D02*
X247784D01*
X206905Y501295D02*
X247594D01*
X208912Y433795D02*
X247582D01*
X208616Y498595D02*
X247429D01*
X196195Y438295D02*
X247406D01*
X127465Y468895D02*
X247366D01*
X208161Y500395D02*
X247318D01*
X127465Y474295D02*
X247302D01*
X208574Y499495D02*
X247266D01*
X208801Y434695D02*
X247057D01*
X196224Y437395D02*
X246966D01*
X208290Y435595D02*
X246807D01*
X196380Y436495D02*
X246779D01*
X127465Y469795D02*
X246692D01*
X127465Y473395D02*
X246657D01*
X245554Y359995D02*
X246533D01*
X127465Y470695D02*
X246342D01*
X127465Y472495D02*
X246327D01*
X127465Y471595D02*
X246228D01*
X127465Y363595D02*
X243468D01*
X147932Y364495D02*
X242618D01*
X233655Y365395D02*
X240565D01*
X234614Y366295D02*
X239653D01*
X235140Y367195D02*
X238753D01*
X166979Y523795D02*
X238321D01*
X168789Y520195D02*
X238151D01*
X235405Y368095D02*
X237853D01*
X222634Y362695D02*
X237731D01*
X167006Y522895D02*
X237659D01*
X167889Y521095D02*
X237596D01*
X163677Y458995D02*
X237517D01*
X167422Y521995D02*
X237458D01*
X223797Y355495D02*
X237307D01*
X224161Y361795D02*
X237265D01*
X224888Y360895D02*
X237265D01*
X225286Y359995D02*
X237265D01*
X225455Y359095D02*
X237265D01*
X225421Y358195D02*
X237265D01*
X225181Y357295D02*
X237265D01*
X224689Y356395D02*
X237265D01*
X166096Y455395D02*
X237076D01*
X164040Y458095D02*
X236755D01*
X196787Y423895D02*
X236731D01*
X165196Y456295D02*
X236594D01*
X164296Y457195D02*
X236503D01*
X235610Y368995D02*
X236417D01*
X196380Y428395D02*
X236183D01*
X196445Y493195D02*
X235846D01*
X197021Y489595D02*
X235533D01*
X197005Y424795D02*
X235457D01*
X196380Y427495D02*
X235299D01*
X196445Y492295D02*
X235133D01*
X173851Y383395D02*
X235061D01*
X196883Y425695D02*
X235040D01*
X197042Y490495D02*
X235018D01*
X196404Y426595D02*
X234995D01*
X196708Y491395D02*
X234905D01*
X181132Y387895D02*
X234759D01*
X180630Y384295D02*
X233903D01*
X181599Y386995D02*
X233814D01*
X181417Y385195D02*
X233512D01*
X181680Y386095D02*
X233486D01*
X214406Y373495D02*
X230669D01*
X198387Y372595D02*
X229823D01*
X148668Y365395D02*
X229076D01*
X198788Y371695D02*
X228466D01*
X196351Y450895D02*
X228292D01*
X148907Y366295D02*
X228117D01*
X198821Y370795D02*
X227786D01*
X148805Y367195D02*
X227591D01*
X198502Y369895D02*
X227415D01*
X148306Y368095D02*
X227326D01*
X197581Y368995D02*
X227270D01*
X196404Y514795D02*
X224499D01*
X169689Y519295D02*
X223744D01*
X127465Y362695D02*
X220096D01*
X127465Y355495D02*
X218934D01*
X127465Y361795D02*
X218569D01*
X127465Y356395D02*
X218042D01*
X127465Y360895D02*
X217843D01*
X127465Y357295D02*
X217550D01*
X127465Y359995D02*
X217445D01*
X127465Y358195D02*
X217310D01*
X127465Y359095D02*
X217276D01*
X181794Y394195D02*
X212144D01*
X182976Y397795D02*
X211827D01*
X182679Y395095D02*
X211430D01*
X182976Y396895D02*
X211314D01*
X182976Y395995D02*
X211201D01*
X196445Y501295D02*
X205417D01*
X196380Y431995D02*
X204913D01*
X196445Y496795D02*
X204906D01*
X196380Y435595D02*
X204588D01*
X196380Y432895D02*
X204195D01*
X196445Y500395D02*
X204161D01*
X196380Y434695D02*
X204076D01*
X196445Y497695D02*
X204014D01*
X196380Y433795D02*
X203965D01*
X196445Y499495D02*
X203748D01*
X196445Y498595D02*
X203706D01*
X127465Y368995D02*
X195157D01*
X140956Y372595D02*
X194352D01*
X127465Y369895D02*
X194236D01*
X140193Y371695D02*
X193950D01*
X127465Y370795D02*
X193918D01*
X188720Y487795D02*
X193687D01*
X187076Y422995D02*
X192966D01*
X127465Y500395D02*
X192745D01*
X127465Y499495D02*
X192745D01*
X127465Y498595D02*
X192745D01*
X161382Y497695D02*
X192745D01*
X162267Y496795D02*
X192745D01*
X162571Y495895D02*
X192745D01*
X163302Y494995D02*
X192745D01*
X163887Y494095D02*
X192745D01*
X164022Y493195D02*
X192745D01*
X164889Y492295D02*
X192745D01*
X127465Y435595D02*
X192680D01*
X127465Y434695D02*
X192680D01*
X127465Y433795D02*
X192680D01*
X127465Y432895D02*
X192680D01*
X160767Y431995D02*
X192680D01*
X161629Y431095D02*
X192680D01*
X161925Y430195D02*
X192680D01*
X162005Y429295D02*
X192680D01*
X162560Y428395D02*
X192680D01*
X163115Y427495D02*
X192680D01*
X163704Y426595D02*
X192657D01*
X168489Y488695D02*
X192554D01*
X127465Y501295D02*
X192554D01*
X184129Y436495D02*
X192526D01*
X141101Y446395D02*
X192495D01*
X140961Y445495D02*
X192495D01*
X140405Y444595D02*
X192495D01*
X127465Y443695D02*
X192495D01*
X127465Y442795D02*
X192495D01*
X127465Y441895D02*
X192495D01*
X183341Y440995D02*
X192495D01*
X184749Y440095D02*
X192495D01*
X185189Y439195D02*
X192495D01*
X185250Y438295D02*
X192495D01*
X184965Y437395D02*
X192495D01*
X165789Y491395D02*
X192482D01*
X127465Y511195D02*
X192454D01*
X127465Y510295D02*
X192454D01*
X127465Y509395D02*
X192454D01*
X127465Y508495D02*
X192454D01*
X127465Y507595D02*
X192454D01*
X175543Y506695D02*
X192454D01*
X176021Y505795D02*
X192454D01*
X176108Y504895D02*
X192454D01*
X175853Y503995D02*
X192454D01*
X175084Y503095D02*
X192454D01*
X127465Y502195D02*
X192454D01*
X146600Y450895D02*
X192338D01*
X145398Y449995D02*
X192320D01*
X186882Y423895D02*
X192273D01*
X140901Y447295D02*
X192218D01*
X141290Y514795D02*
X192204D01*
X139986Y512095D02*
X192196D01*
X164604Y425695D02*
X192177D01*
X167589Y489595D02*
X192169D01*
X166689Y490495D02*
X192149D01*
X186231Y424795D02*
X192055D01*
X127465Y449095D02*
X191924D01*
X140242Y448195D02*
X191895D01*
X141305Y513895D02*
X191876D01*
X140966Y512995D02*
X191859D01*
X139439Y484195D02*
X185367D01*
X165606Y424795D02*
X182889D01*
X127465Y440995D02*
X182236D01*
X127465Y436495D02*
X181449D01*
X127465Y440095D02*
X180828D01*
X127465Y437395D02*
X180612D01*
X127465Y439195D02*
X180388D01*
X127465Y438295D02*
X180327D01*
X174530Y400495D02*
X180176D01*
X175430Y399595D02*
X180176D01*
X176330Y398695D02*
X180176D01*
X177230Y397795D02*
X180176D01*
X177948Y396895D02*
X180176D01*
X173630Y401395D02*
X179902D01*
X170030Y404995D02*
X179844D01*
X178101Y395995D02*
X179634D01*
X172730Y402295D02*
X179278D01*
X170930Y404095D02*
X179257D01*
X171830Y403195D02*
X179098D01*
X168451Y388795D02*
X177813D01*
X172951Y384295D02*
X177796D01*
X169351Y387895D02*
X177293D01*
X172051Y385195D02*
X177009D01*
X170251Y386995D02*
X176826D01*
X171151Y386095D02*
X176746D01*
X141209Y373495D02*
X175998D01*
X167551Y389695D02*
X174970D01*
X141119Y374395D02*
X174722D01*
X165662Y395095D02*
X174401D01*
X165662Y394195D02*
X174401D01*
X165662Y393295D02*
X174262D01*
X166651Y390595D02*
X174095D01*
X165662Y392395D02*
X173841D01*
X140638Y375295D02*
X173822D01*
X165662Y395995D02*
X173798D01*
X165759Y391495D02*
X173794D01*
X127465Y376195D02*
X172922D01*
X165662Y396895D02*
X172898D01*
X127465Y503095D02*
X172195D01*
X127465Y377095D02*
X172022D01*
X165662Y397795D02*
X171998D01*
X127465Y506695D02*
X171736D01*
X127465Y503995D02*
X171426D01*
X127465Y505795D02*
X171259D01*
X127465Y504895D02*
X171171D01*
X145887Y377995D02*
X171122D01*
X165662Y398695D02*
X171098D01*
X146562Y378895D02*
X170222D01*
X165662Y399595D02*
X170198D01*
X146770Y379795D02*
X169322D01*
X165662Y400495D02*
X169298D01*
X146639Y380695D02*
X168422D01*
X165974Y401395D02*
X168398D01*
X140911Y515695D02*
X168094D01*
X146096Y381595D02*
X167522D01*
X166446Y402295D02*
X167498D01*
X139802Y516595D02*
X167157D01*
X145536Y485095D02*
X166856D01*
X127465Y382495D02*
X166622D01*
X145668Y517495D02*
X166257D01*
X146361Y485995D02*
X165956D01*
X127465Y383395D02*
X165722D01*
X146679Y518395D02*
X165357D01*
X146642Y486895D02*
X165056D01*
X127465Y384295D02*
X164822D01*
X147029Y519295D02*
X164594D01*
X147002Y451795D02*
X164463D01*
X147022Y520195D02*
X164177D01*
X146576Y487795D02*
X164156D01*
X146306Y421195D02*
X164111D01*
X127465Y385195D02*
X163922D01*
X146654Y521095D02*
X163762D01*
X147035Y452695D02*
X163563D01*
X146130Y488695D02*
X163256D01*
X146584Y422095D02*
X162971D01*
X145583Y521995D02*
X162922D01*
X127465Y525595D02*
X162693D01*
X146718Y453595D02*
X162663D01*
X146948Y400495D02*
X162462D01*
X146975Y399595D02*
X162462D01*
X146650Y398695D02*
X162462D01*
X145711Y397795D02*
X162462D01*
X127465Y396895D02*
X162462D01*
X140368Y395995D02*
X162462D01*
X141021Y395095D02*
X162462D01*
X141217Y394195D02*
X162462D01*
X141074Y393295D02*
X162462D01*
X140512Y392395D02*
X162462D01*
X127465Y391495D02*
X162462D01*
X144678Y489595D02*
X162356D01*
X127465Y522895D02*
X162240D01*
X127465Y524695D02*
X162156D01*
X146554Y401395D02*
X162150D01*
X146517Y422995D02*
X162071D01*
X127465Y390595D02*
X162071D01*
X127465Y523795D02*
X162028D01*
X127465Y386095D02*
X161971D01*
X145799Y454495D02*
X161763D01*
X127465Y404095D02*
X161720D01*
X145386Y402295D02*
X161678D01*
X127465Y403195D02*
X161594D01*
X127465Y490495D02*
X161456D01*
X146069Y423895D02*
X161171D01*
X127465Y389695D02*
X160995D01*
X127465Y386995D02*
X160965D01*
X127465Y455395D02*
X160864D01*
X127465Y388795D02*
X160625D01*
X127465Y387895D02*
X160617D01*
X127465Y491395D02*
X160597D01*
X127465Y404995D02*
X160456D01*
X144598Y424795D02*
X160433D01*
X127465Y456295D02*
X160392D01*
X127465Y492295D02*
X160271D01*
X127465Y457195D02*
X160259D01*
X127465Y425695D02*
X159878D01*
X127465Y405895D02*
X159556D01*
X127465Y493195D02*
X159393D01*
X127465Y426595D02*
X159323D01*
X127465Y497695D02*
X158848D01*
X127465Y462595D02*
X158763D01*
X127465Y427495D02*
X158727D01*
X127465Y458095D02*
X158674D01*
X127465Y406795D02*
X158656D01*
X127465Y431995D02*
X158165D01*
X127465Y494095D02*
X158121D01*
X127465Y496795D02*
X157964D01*
X127465Y407695D02*
X157756D01*
X127465Y494995D02*
X157704D01*
X127465Y461695D02*
X157691D01*
X127465Y458995D02*
X157664D01*
X127465Y495895D02*
X157659D01*
X127465Y428395D02*
X157487D01*
X127465Y460795D02*
X157323D01*
X127465Y459895D02*
X157315D01*
X127465Y431095D02*
X157303D01*
X127465Y429295D02*
X157059D01*
X127465Y430195D02*
X157007D01*
X127465Y408595D02*
X154601D01*
X127465Y412195D02*
X154289D01*
X127465Y409495D02*
X153889D01*
X127465Y411295D02*
X153774D01*
X127465Y410395D02*
X153661D01*
X127465Y364495D02*
X144938D01*
X127465Y368095D02*
X144565D01*
X127465Y365395D02*
X144202D01*
X127465Y367195D02*
X144066D01*
X127465Y366295D02*
X143963D01*
X127465Y449995D02*
X143770D01*
X127465Y489595D02*
X143679D01*
X127465Y402295D02*
X143665D01*
X127465Y424795D02*
X143643D01*
X127465Y521995D02*
X143594D01*
X127465Y517495D02*
X143509D01*
X127465Y454495D02*
X143368D01*
X127465Y397795D02*
X143341D01*
X127465Y485095D02*
X142821D01*
X127465Y420295D02*
X142756D01*
X127465Y377995D02*
X142702D01*
X127465Y450895D02*
X142567D01*
X127465Y521095D02*
X142524D01*
X127465Y518395D02*
X142498D01*
X127465Y401395D02*
X142498D01*
X127465Y381595D02*
X142493D01*
X127465Y453595D02*
X142450D01*
X127465Y398695D02*
X142402D01*
X127465Y488695D02*
X142227D01*
X127465Y423895D02*
X142173D01*
X127465Y451795D02*
X142165D01*
X127465Y520195D02*
X142155D01*
X127465Y519295D02*
X142148D01*
X127465Y452695D02*
X142132D01*
X127465Y400495D02*
X142104D01*
X127465Y399595D02*
X142077D01*
X127465Y378895D02*
X142026D01*
X127465Y485995D02*
X141996D01*
X127465Y380695D02*
X141950D01*
X127465Y421195D02*
X141936D01*
X127465Y379795D02*
X141818D01*
X127465Y487795D02*
X141781D01*
X127465Y422995D02*
X141725D01*
X127465Y486895D02*
X141716D01*
X127465Y422095D02*
X141657D01*
X127465Y484195D02*
X138272D01*
X127465Y413995D02*
X138072D01*
X127465Y516595D02*
X137919D01*
X127465Y512095D02*
X137736D01*
X127465Y418495D02*
X137622D01*
X127465Y479695D02*
X137527D01*
X127465Y371695D02*
X137287D01*
X127465Y395995D02*
X137111D01*
X127465Y448195D02*
X137006D01*
X127465Y392395D02*
X136968D01*
X127465Y483295D02*
X136889D01*
X127465Y414895D02*
X136847D01*
X127465Y444595D02*
X136843D01*
X127465Y375295D02*
X136841D01*
X127465Y515695D02*
X136811D01*
X127465Y512995D02*
X136756D01*
X127465Y417595D02*
X136715D01*
X127465Y480595D02*
X136683D01*
X127465Y372595D02*
X136523D01*
X127465Y395095D02*
X136458D01*
X127465Y482395D02*
X136453D01*
X127465Y415795D02*
X136439D01*
X127465Y514795D02*
X136432D01*
X127465Y513895D02*
X136417D01*
X127465Y393295D02*
X136406D01*
X127465Y416695D02*
X136402D01*
X127465Y481495D02*
X136395D01*
X127465Y374395D02*
X136360D01*
X127465Y447295D02*
X136347D01*
X127465Y445495D02*
X136287D01*
X127465Y373495D02*
X136270D01*
X127465Y394195D02*
X136263D01*
X127465Y446395D02*
X136147D01*
X126365Y533797D02*
Y346297D01*
X461365*
Y556297*
X148865*
X126365Y533797*
G54D45*
X163058Y388322D03*
X164062Y402972D03*
X213675Y396144D03*
X196369Y371157D03*
X146435Y366470D03*
X138740Y373703D03*
X144294Y379894D03*
X138740Y394128D03*
X144526Y399972D03*
X179213Y386328D03*
X181576Y403223D03*
X176251Y391817D03*
X247420Y362309D03*
X237228Y371337D03*
X235935Y385714D03*
X372945Y403954D03*
X367792Y405394D03*
X363243Y376058D03*
X334628Y356981D03*
X334174Y378420D03*
X305649Y357254D03*
X310282Y384416D03*
X391457Y387189D03*
X380738Y387916D03*
X446869Y382996D03*
X448867Y374094D03*
X410895Y354018D03*
X400393Y368724D03*
X387861Y372061D03*
X182789Y438580D03*
X206439Y433948D03*
X138855Y416346D03*
X144121Y422364D03*
X138624Y446318D03*
X144584Y452336D03*
X138855Y481787D03*
X186825Y486199D03*
X159466Y429886D03*
X184599Y422931D03*
X159756Y460325D03*
X156135Y410542D03*
X194345Y448567D03*
X194530Y424917D03*
X238973Y456990D03*
X237451Y426266D03*
X267695Y422330D03*
X277995Y423255D03*
X257743Y437489D03*
X271167Y455195D03*
X229844Y452829D03*
X346836Y417090D03*
X336305Y436299D03*
X336189Y443416D03*
X321724Y460890D03*
X330114Y454468D03*
X366508Y474141D03*
X363715Y457887D03*
X396218Y479346D03*
X401730D03*
X378843Y479705D03*
X403767Y474912D03*
X394201Y485111D03*
X376518Y475182D03*
X408071Y446670D03*
X406335Y440942D03*
X394001Y406342D03*
X173640Y505109D03*
X206161Y498932D03*
X144179Y487168D03*
X138861Y514303D03*
X144589Y519726D03*
X160115Y495566D03*
X164504Y523903D03*
X194304Y513398D03*
X194595Y490101D03*
X239935Y521915D03*
X237379Y491248D03*
X268043Y487481D03*
X257801Y502757D03*
X271456Y522082D03*
X278689Y487365D03*
X225075Y517205D03*
G54D46*
X322198Y395469D03*
X436118Y390121D03*
X250078Y471628D03*
X250615Y436167D03*
X321969Y413986D03*
X251109Y499725D03*
X255186Y535253D03*
G54D47*
X435991Y366434D03*
X451739D03*
G74*
X0Y0D02*
M02*
