*
*
G04 PADS VX.2 Build Number: 5060570 generated Gerber (RS-274-X) file*
G04 PC Version=2.1*
*
%IN "board.pcb"*%
*
%MOIN*%
*
%FSLAX35Y35*%
*
*
*
*
G04 PC Standard Apertures*
*
*
G04 Thermal Relief Aperture macro.*
%AMTER*
1,1,$1,0,0*
1,0,$1-$2,0,0*
21,0,$3,$4,0,0,45*
21,0,$3,$4,0,0,135*
%
*
*
G04 Annular Aperture macro.*
%AMANN*
1,1,$1,0,0*
1,0,$2,0,0*
%
*
*
G04 Odd Aperture macro.*
%AMODD*
1,1,$1,0,0*
1,0,$1-0.005,0,0*
%
*
*
G04 PC Custom Aperture Macros*
*
*
*
*
*
*
G04 PC Aperture Table*
*
%ADD010C,0.001*%
%ADD044C,0.01*%
*
*
*
*
G04 PC Circuitry*
G04 Layer Name board.pcb - circuitry*
%LPD*%
*
*
G04 PC Custom Flashes*
G04 Layer Name board.pcb - flashes*
%LPD*%
*
*
G04 PC Circuitry*
G04 Layer Name board.pcb - circuitry*
%LPD*%
*
G54D10*
G54D44*
G01X450987Y351804D02*
X458987D01*
Y359804*
X450987*
Y351804*
X454987Y355804D02*
Y359804D01*
X450987Y356135D02*
X458987D01*
Y364135*
X450987*
Y356135*
X454987Y360135D02*
Y364135D01*
X454102Y355804D02*
G75*
G03X455873I885J0D01*
G01Y360135*
G03X454102I-886J0*
G01Y355804*
X428743Y351804D02*
X436743D01*
Y359804*
X428743*
Y351804*
X432743Y355804D02*
Y359804D01*
X428743Y356135D02*
X436743D01*
Y364135*
X428743*
Y356135*
X432743Y360135D02*
Y364135D01*
X431858Y355804D02*
G03X433629I885J0D01*
G01Y360135*
G03X431858I-886J0*
G01Y355804*
X286569Y355475D02*
X294569D01*
X290569Y351475D02*
Y359475D01*
X293478Y360757D02*
X292569Y357475D01*
X293478Y360757D02*
X294387Y357475D01*
X292910Y358569D02*
X294046D01*
X286569Y359019D02*
X294569D01*
X290569Y355019D02*
Y363019D01*
X293478Y364300D02*
X292569Y361019D01*
X293478Y364300D02*
X294387Y361019D01*
X292910Y362112D02*
X294046D01*
X289585Y355475D02*
G03X291553I984J0D01*
G01Y359019*
G03X289585I-984J-0*
G01Y355475*
X265309Y355869D02*
X273309D01*
X269309Y351869D02*
Y359869D01*
X272218Y361150D02*
X271309Y357869D01*
X272218Y361150D02*
X273127Y357869D01*
X271650Y358963D02*
X272787D01*
X265309Y359412D02*
X273309D01*
X269309Y355412D02*
Y363412D01*
X272218Y364694D02*
X271309Y361412D01*
X272218Y364694D02*
X273127Y361412D01*
X271650Y362506D02*
X272787D01*
X268325Y355869D02*
G03X270294I984J0D01*
G01Y359412*
G03X268325I-985J0*
G01Y355869*
X430944Y536699D02*
X438944D01*
X434944Y532699D02*
Y540699D01*
X440787Y536699D02*
X448787D01*
X444787Y532699D02*
Y540699D01*
X430936Y511670D02*
X438936D01*
X434936Y507670D02*
Y515670D01*
X440778Y511670D02*
X448778D01*
X444778Y507670D02*
Y515670D01*
X237365Y354797D02*
X245365Y362797D01*
X237365D02*
X245365Y354797D01*
X227365Y364797D02*
X235365Y372797D01*
X227365D02*
X235365Y364797D01*
X217365Y354797D02*
X225365Y362797D01*
X217365D02*
X225365Y354797D01*
X409865Y402297D02*
X417865Y410297D01*
X409865D02*
X417865Y402297D01*
X399865Y392297D02*
X407865Y400297D01*
X399865D02*
X407865Y392297D01*
X409865Y382297D02*
X417865Y390297D01*
X409865D02*
X417865Y382297D01*
X435991Y362434D02*
X439991Y366434D01*
X435991Y370434*
X431991Y366434*
X435991Y362434*
Y366434D02*
Y370434D01*
X451739Y362434D02*
X455739Y366434D01*
X451739Y370434*
X447739Y366434*
X451739Y362434*
Y366434D02*
Y370434D01*
X365358Y528635D02*
X373358D01*
X365358Y536635*
X373358*
X365358Y528635*
X396854D02*
X404854D01*
X396854Y536635*
X404854*
X396854Y528635*
X439865Y487297D02*
X447865Y495297D01*
Y487297*
X439865Y495297*
Y487297*
X429865D02*
X437865Y495297D01*
Y487297*
X429865Y495297*
Y487297*
X439865Y477297D02*
X447865Y485297D01*
Y477297*
X439865Y485297*
Y477297*
X429865D02*
X437865Y485297D01*
Y477297*
X429865Y485297*
Y477297*
X439865Y467297D02*
X447865Y475297D01*
Y467297*
X439865Y475297*
Y467297*
X429865D02*
X437865Y475297D01*
Y467297*
X429865Y475297*
Y467297*
X439865Y457297D02*
X447865Y465297D01*
Y457297*
X439865Y465297*
Y457297*
X429865D02*
X437865Y465297D01*
Y457297*
X429865Y465297*
Y457297*
X439865Y447297D02*
X447865Y455297D01*
Y447297*
X439865Y455297*
Y447297*
X429865D02*
X437865Y455297D01*
Y447297*
X429865Y455297*
Y447297*
X439865Y437297D02*
X447865Y445297D01*
Y437297*
X439865Y445297*
Y437297*
X429865D02*
X437865Y445297D01*
Y437297*
X429865Y445297*
Y437297*
X439865Y427297D02*
X447865Y435297D01*
Y427297*
X439865Y435297*
Y427297*
X429865D02*
X437865Y435297D01*
Y427297*
X429865Y435297*
Y427297*
X439865Y417297D02*
X447865Y425297D01*
Y417297*
X439865Y425297*
Y417297*
X429865D02*
X437865Y425297D01*
Y417297*
X429865Y425297*
Y417297*
X439865Y407297D02*
X447865Y415297D01*
Y407297*
X439865Y415297*
Y407297*
X429865D02*
X437865Y415297D01*
Y407297*
X429865Y415297*
Y407297*
X274758Y387759D02*
X282758D01*
X278758Y383759D02*
Y391759D01*
X280758Y393040D02*
Y389759D01*
Y393040D02*
X281781D01*
X282122Y392884*
X282235Y392728*
X282349Y392415*
Y392103*
X282235Y391790*
X282122Y391634*
X281781Y391478*
X280758D02*
X281781D01*
X282122Y391321*
X282235Y391165*
X282349Y390853*
Y390384*
X282235Y390071*
X282122Y389915*
X281781Y389759*
X280758*
X159058Y388322D02*
X167058D01*
X163058Y384322D02*
Y392322D01*
X166762Y392822D02*
X166649Y393135D01*
X166421Y393447*
X166194Y393603*
X165740*
X165512Y393447*
X165285Y393135*
X165171Y392822*
X165058Y392353*
Y391572*
X165171Y391103*
X165285Y390791*
X165512Y390478*
X165740Y390322*
X166194*
X166421Y390478*
X166649Y390791*
X166762Y391103*
X160062Y402972D02*
X168062D01*
X164062Y398972D02*
Y406972D01*
X167767Y407472D02*
X167653Y407784D01*
X167426Y408097*
X167198Y408253*
X166744*
X166517Y408097*
X166289Y407784*
X166176Y407472*
X166062Y407003*
Y406222*
X166176Y405753*
X166289Y405441*
X166517Y405128*
X166744Y404972*
X167198*
X167426Y405128*
X167653Y405441*
X167767Y405753*
X209675Y396144D02*
X217675D01*
X213675Y392144D02*
Y400144D01*
X217379Y400644D02*
X217266Y400956D01*
X217038Y401269*
X216811Y401425*
X216357*
X216129Y401269*
X215902Y400956*
X215788Y400644*
X215675Y400175*
Y399394*
X215788Y398925*
X215902Y398613*
X216129Y398300*
X216357Y398144*
X216811*
X217038Y398300*
X217266Y398613*
X217379Y398925*
X192369Y371157D02*
X200369D01*
X196369Y367157D02*
Y375157D01*
X200074Y375657D02*
X199960Y375969D01*
X199733Y376282*
X199506Y376438*
X199051*
X198824Y376282*
X198597Y375969*
X198483Y375657*
X198369Y375188*
Y374407*
X198483Y373938*
X198597Y373626*
X198824Y373313*
X199051Y373157*
X199506*
X199733Y373313*
X199960Y373626*
X200074Y373938*
X142435Y366470D02*
X150435D01*
X146435Y362470D02*
Y370470D01*
X150140Y370970D02*
X150026Y371283D01*
X149799Y371595*
X149572Y371751*
X149117*
X148890Y371595*
X148662Y371283*
X148549Y370970*
X148435Y370501*
Y369720*
X148549Y369251*
X148662Y368939*
X148890Y368626*
X149117Y368470*
X149572*
X149799Y368626*
X150026Y368939*
X150140Y369251*
X134740Y373703D02*
X142740D01*
X138740Y369703D02*
Y377703D01*
X142444Y378203D02*
X142331Y378515D01*
X142103Y378828*
X141876Y378984*
X141421*
X141194Y378828*
X140967Y378515*
X140853Y378203*
X140740Y377734*
Y376953*
X140853Y376484*
X140967Y376171*
X141194Y375859*
X141421Y375703*
X141876*
X142103Y375859*
X142331Y376171*
X142444Y376484*
X140294Y379894D02*
X148294D01*
X144294Y375894D02*
Y383894D01*
X147999Y384394D02*
X147885Y384706D01*
X147658Y385019*
X147431Y385175*
X146976*
X146749Y385019*
X146522Y384706*
X146408Y384394*
X146294Y383925*
Y383144*
X146408Y382675*
X146522Y382363*
X146749Y382050*
X146976Y381894*
X147431*
X147658Y382050*
X147885Y382363*
X147999Y382675*
X134740Y394128D02*
X142740D01*
X138740Y390128D02*
Y398128D01*
X142444Y398628D02*
X142331Y398940D01*
X142103Y399253*
X141876Y399409*
X141421*
X141194Y399253*
X140967Y398940*
X140853Y398628*
X140740Y398159*
Y397378*
X140853Y396909*
X140967Y396596*
X141194Y396284*
X141421Y396128*
X141876*
X142103Y396284*
X142331Y396596*
X142444Y396909*
X140526Y399972D02*
X148526D01*
X144526Y395972D02*
Y403972D01*
X148230Y404472D02*
X148117Y404784D01*
X147889Y405097*
X147662Y405253*
X147208*
X146980Y405097*
X146753Y404784*
X146639Y404472*
X146526Y404003*
Y403222*
X146639Y402753*
X146753Y402440*
X146980Y402128*
X147208Y401972*
X147662*
X147889Y402128*
X148117Y402440*
X148230Y402753*
X175213Y386328D02*
X183213D01*
X179213Y382328D02*
Y390328D01*
X182917Y390828D02*
X182804Y391141D01*
X182577Y391453*
X182349Y391609*
X181895*
X181667Y391453*
X181440Y391141*
X181327Y390828*
X181213Y390359*
Y389578*
X181327Y389109*
X181440Y388797*
X181667Y388484*
X181895Y388328*
X182349*
X182577Y388484*
X182804Y388797*
X182917Y389109*
X177576Y403223D02*
X185576D01*
X181576Y399223D02*
Y407223D01*
X185280Y407723D02*
X185167Y408035D01*
X184939Y408348*
X184712Y408504*
X184258*
X184030Y408348*
X183803Y408035*
X183689Y407723*
X183576Y407254*
Y406473*
X183689Y406004*
X183803Y405691*
X184030Y405379*
X184258Y405223*
X184712*
X184939Y405379*
X185167Y405691*
X185280Y406004*
X172251Y391817D02*
X180251D01*
X176251Y387817D02*
Y395817D01*
X179955Y396317D02*
X179842Y396629D01*
X179614Y396942*
X179387Y397098*
X178933*
X178705Y396942*
X178478Y396629*
X178364Y396317*
X178251Y395848*
Y395067*
X178364Y394598*
X178478Y394285*
X178705Y393973*
X178933Y393817*
X179387*
X179614Y393973*
X179842Y394285*
X179955Y394598*
X243420Y362309D02*
X251420D01*
X247420Y358309D02*
Y366309D01*
X251125Y366809D02*
X251011Y367122D01*
X250784Y367434*
X250556Y367591*
X250102*
X249875Y367434*
X249647Y367122*
X249534Y366809*
X249420Y366341*
Y365559*
X249534Y365091*
X249647Y364778*
X249875Y364466*
X250102Y364309*
X250556*
X250784Y364466*
X251011Y364778*
X251125Y365091*
X233228Y371337D02*
X241228D01*
X237228Y367337D02*
Y375337D01*
X240932Y375837D02*
X240819Y376149D01*
X240591Y376462*
X240364Y376618*
X239909*
X239682Y376462*
X239455Y376149*
X239341Y375837*
X239228Y375368*
Y374587*
X239341Y374118*
X239455Y373806*
X239682Y373493*
X239909Y373337*
X240364*
X240591Y373493*
X240819Y373806*
X240932Y374118*
X231935Y385714D02*
X239935D01*
X235935Y381714D02*
Y389714D01*
X239639Y390214D02*
X239526Y390527D01*
X239298Y390839*
X239071Y390995*
X238617*
X238389Y390839*
X238162Y390527*
X238048Y390214*
X237935Y389745*
Y388964*
X238048Y388495*
X238162Y388183*
X238389Y387870*
X238617Y387714*
X239071*
X239298Y387870*
X239526Y388183*
X239639Y388495*
X368945Y403954D02*
X376945D01*
X372945Y399954D02*
Y407954D01*
X376650Y408454D02*
X376536Y408766D01*
X376309Y409079*
X376082Y409235*
X375627*
X375400Y409079*
X375172Y408766*
X375059Y408454*
X374945Y407985*
Y407204*
X375059Y406735*
X375172Y406422*
X375400Y406110*
X375627Y405954*
X376082*
X376309Y406110*
X376536Y406422*
X376650Y406735*
X318198Y391469D02*
X326198Y399469D01*
X318198D02*
X326198Y391469D01*
X363792Y405394D02*
X371792D01*
X367792Y401394D02*
Y409394D01*
X371496Y409894D02*
X371383Y410207D01*
X371155Y410519*
X370928Y410675*
X370473*
X370246Y410519*
X370019Y410207*
X369905Y409894*
X369792Y409425*
Y408644*
X369905Y408175*
X370019Y407863*
X370246Y407550*
X370473Y407394*
X370928*
X371155Y407550*
X371383Y407863*
X371496Y408175*
X359243Y376058D02*
X367243D01*
X363243Y372058D02*
Y380058D01*
X366948Y380558D02*
X366834Y380871D01*
X366607Y381183*
X366379Y381339*
X365925*
X365698Y381183*
X365470Y380871*
X365357Y380558*
X365243Y380089*
Y379308*
X365357Y378839*
X365470Y378527*
X365698Y378214*
X365925Y378058*
X366379*
X366607Y378214*
X366834Y378527*
X366948Y378839*
X330628Y356981D02*
X338628D01*
X334628Y352981D02*
Y360981D01*
X338332Y361481D02*
X338219Y361794D01*
X337991Y362106*
X337764Y362263*
X337310*
X337082Y362106*
X336855Y361794*
X336741Y361481*
X336628Y361013*
Y360231*
X336741Y359763*
X336855Y359450*
X337082Y359138*
X337310Y358981*
X337764*
X337991Y359138*
X338219Y359450*
X338332Y359763*
X330174Y378420D02*
X338174D01*
X334174Y374420D02*
Y382420D01*
X337878Y382920D02*
X337764Y383232D01*
X337537Y383545*
X337310Y383701*
X336855*
X336628Y383545*
X336401Y383232*
X336287Y382920*
X336174Y382451*
Y381670*
X336287Y381201*
X336401Y380889*
X336628Y380576*
X336855Y380420*
X337310*
X337537Y380576*
X337764Y380889*
X337878Y381201*
X301649Y357254D02*
X309649D01*
X305649Y353254D02*
Y361254D01*
X309354Y361754D02*
X309240Y362066D01*
X309013Y362379*
X308786Y362535*
X308331*
X308104Y362379*
X307877Y362066*
X307763Y361754*
X307649Y361285*
Y360504*
X307763Y360035*
X307877Y359723*
X308104Y359410*
X308331Y359254*
X308786*
X309013Y359410*
X309240Y359723*
X309354Y360035*
X306282Y384416D02*
X314282D01*
X310282Y380416D02*
Y388416D01*
X313987Y388916D02*
X313873Y389228D01*
X313646Y389541*
X313419Y389697*
X312964*
X312737Y389541*
X312509Y389228*
X312396Y388916*
X312282Y388447*
Y387666*
X312396Y387197*
X312509Y386884*
X312737Y386572*
X312964Y386416*
X313419*
X313646Y386572*
X313873Y386884*
X313987Y387197*
X432118Y386121D02*
X440118Y394121D01*
X432118D02*
X440118Y386121D01*
X387457Y387189D02*
X395457D01*
X391457Y383189D02*
Y391189D01*
X395161Y391689D02*
X395048Y392001D01*
X394821Y392314*
X394593Y392470*
X394139*
X393911Y392314*
X393684Y392001*
X393571Y391689*
X393457Y391220*
Y390439*
X393571Y389970*
X393684Y389658*
X393911Y389345*
X394139Y389189*
X394593*
X394821Y389345*
X395048Y389658*
X395161Y389970*
X376738Y387916D02*
X384738D01*
X380738Y383916D02*
Y391916D01*
X384442Y392416D02*
X384329Y392728D01*
X384101Y393041*
X383874Y393197*
X383419*
X383192Y393041*
X382965Y392728*
X382851Y392416*
X382738Y391947*
Y391166*
X382851Y390697*
X382965Y390384*
X383192Y390072*
X383419Y389916*
X383874*
X384101Y390072*
X384329Y390384*
X384442Y390697*
X442869Y382996D02*
X450869D01*
X446869Y378996D02*
Y386996D01*
X450573Y387496D02*
X450460Y387809D01*
X450232Y388121*
X450005Y388278*
X449550*
X449323Y388121*
X449096Y387809*
X448982Y387496*
X448869Y387028*
Y386246*
X448982Y385778*
X449096Y385465*
X449323Y385153*
X449550Y384996*
X450005*
X450232Y385153*
X450460Y385465*
X450573Y385778*
X444867Y374094D02*
X452867D01*
X448867Y370094D02*
Y378094D01*
X452572Y378594D02*
X452458Y378906D01*
X452231Y379219*
X452003Y379375*
X451549*
X451322Y379219*
X451094Y378906*
X450981Y378594*
X450867Y378125*
Y377344*
X450981Y376875*
X451094Y376563*
X451322Y376250*
X451549Y376094*
X452003*
X452231Y376250*
X452458Y376563*
X452572Y376875*
X406895Y354018D02*
X414895D01*
X410895Y350018D02*
Y358018D01*
X414600Y358518D02*
X414486Y358830D01*
X414259Y359143*
X414032Y359299*
X413577*
X413350Y359143*
X413123Y358830*
X413009Y358518*
X412895Y358049*
Y357268*
X413009Y356799*
X413123Y356487*
X413350Y356174*
X413577Y356018*
X414032*
X414259Y356174*
X414486Y356487*
X414600Y356799*
X396393Y368724D02*
X404393D01*
X400393Y364724D02*
Y372724D01*
X404098Y373224D02*
X403984Y373537D01*
X403757Y373849*
X403530Y374005*
X403075*
X402848Y373849*
X402620Y373537*
X402507Y373224*
X402393Y372755*
Y371974*
X402507Y371505*
X402620Y371193*
X402848Y370880*
X403075Y370724*
X403530*
X403757Y370880*
X403984Y371193*
X404098Y371505*
X383861Y372061D02*
X391861D01*
X387861Y368061D02*
Y376061D01*
X391566Y376561D02*
X391452Y376874D01*
X391225Y377186*
X390997Y377342*
X390543*
X390316Y377186*
X390088Y376874*
X389975Y376561*
X389861Y376092*
Y375311*
X389975Y374842*
X390088Y374530*
X390316Y374217*
X390543Y374061*
X390997*
X391225Y374217*
X391452Y374530*
X391566Y374842*
X178789Y438580D02*
X186789D01*
X182789Y434580D02*
Y442580D01*
X186493Y443080D02*
X186380Y443392D01*
X186152Y443705*
X185925Y443861*
X185470*
X185243Y443705*
X185016Y443392*
X184902Y443080*
X184789Y442611*
Y441830*
X184902Y441361*
X185016Y441048*
X185243Y440736*
X185470Y440580*
X185925*
X186152Y440736*
X186380Y441048*
X186493Y441361*
X202439Y433948D02*
X210439D01*
X206439Y429948D02*
Y437948D01*
X210143Y438448D02*
X210030Y438760D01*
X209802Y439073*
X209575Y439229*
X209120*
X208893Y439073*
X208666Y438760*
X208552Y438448*
X208439Y437979*
Y437198*
X208552Y436729*
X208666Y436417*
X208893Y436104*
X209120Y435948*
X209575*
X209802Y436104*
X210030Y436417*
X210143Y436729*
X134855Y416346D02*
X142855D01*
X138855Y412346D02*
Y420346D01*
X142560Y420846D02*
X142446Y421159D01*
X142219Y421471*
X141992Y421627*
X141537*
X141310Y421471*
X141083Y421159*
X140969Y420846*
X140855Y420377*
Y419596*
X140969Y419127*
X141083Y418815*
X141310Y418502*
X141537Y418346*
X141992*
X142219Y418502*
X142446Y418815*
X142560Y419127*
X140121Y422364D02*
X148121D01*
X144121Y418364D02*
Y426364D01*
X147825Y426864D02*
X147712Y427176D01*
X147484Y427489*
X147257Y427645*
X146803*
X146575Y427489*
X146348Y427176*
X146234Y426864*
X146121Y426395*
Y425614*
X146234Y425145*
X146348Y424833*
X146575Y424520*
X146803Y424364*
X147257*
X147484Y424520*
X147712Y424833*
X147825Y425145*
X134624Y446318D02*
X142624D01*
X138624Y442318D02*
Y450318D01*
X142328Y450818D02*
X142215Y451131D01*
X141988Y451443*
X141760Y451600*
X141306*
X141078Y451443*
X140851Y451131*
X140738Y450818*
X140624Y450350*
Y449568*
X140738Y449100*
X140851Y448787*
X141078Y448475*
X141306Y448318*
X141760*
X141988Y448475*
X142215Y448787*
X142328Y449100*
X140584Y452336D02*
X148584D01*
X144584Y448336D02*
Y456336D01*
X148288Y456836D02*
X148175Y457148D01*
X147947Y457461*
X147720Y457617*
X147265*
X147038Y457461*
X146811Y457148*
X146697Y456836*
X146584Y456367*
Y455586*
X146697Y455117*
X146811Y454805*
X147038Y454492*
X147265Y454336*
X147720*
X147947Y454492*
X148175Y454805*
X148288Y455117*
X134855Y481787D02*
X142855D01*
X138855Y477787D02*
Y485787D01*
X142560Y486287D02*
X142446Y486600D01*
X142219Y486912*
X141992Y487068*
X141537*
X141310Y486912*
X141083Y486600*
X140969Y486287*
X140855Y485818*
Y485037*
X140969Y484568*
X141083Y484256*
X141310Y483943*
X141537Y483787*
X141992*
X142219Y483943*
X142446Y484256*
X142560Y484568*
X182825Y486199D02*
X190825D01*
X186825Y482199D02*
Y490199D01*
X190529Y490699D02*
X190416Y491011D01*
X190188Y491324*
X189961Y491480*
X189507*
X189279Y491324*
X189052Y491011*
X188938Y490699*
X188825Y490230*
Y489449*
X188938Y488980*
X189052Y488668*
X189279Y488355*
X189507Y488199*
X189961*
X190188Y488355*
X190416Y488668*
X190529Y488980*
X155466Y429886D02*
X163466D01*
X159466Y425886D02*
Y433886D01*
X163170Y434386D02*
X163057Y434699D01*
X162830Y435011*
X162602Y435168*
X162148*
X161920Y435011*
X161693Y434699*
X161580Y434386*
X161466Y433918*
Y433136*
X161580Y432668*
X161693Y432355*
X161920Y432043*
X162148Y431886*
X162602*
X162830Y432043*
X163057Y432355*
X163170Y432668*
X180599Y422931D02*
X188599D01*
X184599Y418931D02*
Y426931D01*
X188304Y427431D02*
X188190Y427743D01*
X187963Y428056*
X187735Y428212*
X187281*
X187054Y428056*
X186826Y427743*
X186713Y427431*
X186599Y426962*
Y426181*
X186713Y425712*
X186826Y425400*
X187054Y425087*
X187281Y424931*
X187735*
X187963Y425087*
X188190Y425400*
X188304Y425712*
X155756Y460325D02*
X163756D01*
X159756Y456325D02*
Y464325D01*
X163460Y464825D02*
X163346Y465137D01*
X163119Y465450*
X162892Y465606*
X162437*
X162210Y465450*
X161983Y465137*
X161869Y464825*
X161756Y464356*
Y463575*
X161869Y463106*
X161983Y462794*
X162210Y462481*
X162437Y462325*
X162892*
X163119Y462481*
X163346Y462794*
X163460Y463106*
X152135Y410542D02*
X160135D01*
X156135Y406542D02*
Y414542D01*
X159839Y415042D02*
X159726Y415355D01*
X159498Y415667*
X159271Y415823*
X158817*
X158589Y415667*
X158362Y415355*
X158248Y415042*
X158135Y414573*
Y413792*
X158248Y413323*
X158362Y413011*
X158589Y412698*
X158817Y412542*
X159271*
X159498Y412698*
X159726Y413011*
X159839Y413323*
X190345Y448567D02*
X198345D01*
X194345Y444567D02*
Y452567D01*
X198049Y453067D02*
X197935Y453379D01*
X197708Y453692*
X197481Y453848*
X197026*
X196799Y453692*
X196572Y453379*
X196458Y453067*
X196345Y452598*
Y451817*
X196458Y451348*
X196572Y451035*
X196799Y450723*
X197026Y450567*
X197481*
X197708Y450723*
X197935Y451035*
X198049Y451348*
X190530Y424917D02*
X198530D01*
X194530Y420917D02*
Y428917D01*
X198235Y429417D02*
X198121Y429730D01*
X197894Y430042*
X197666Y430199*
X197212*
X196985Y430042*
X196757Y429730*
X196644Y429417*
X196530Y428949*
Y428167*
X196644Y427699*
X196757Y427386*
X196985Y427074*
X197212Y426917*
X197666*
X197894Y427074*
X198121Y427386*
X198235Y427699*
X246078Y467628D02*
X254078Y475628D01*
X246078D02*
X254078Y467628D01*
X246615Y432167D02*
X254615Y440167D01*
X246615D02*
X254615Y432167D01*
X234973Y456990D02*
X242973D01*
X238973Y452990D02*
Y460990D01*
X242677Y461490D02*
X242564Y461802D01*
X242336Y462115*
X242109Y462271*
X241655*
X241427Y462115*
X241200Y461802*
X241086Y461490*
X240973Y461021*
Y460240*
X241086Y459771*
X241200Y459459*
X241427Y459146*
X241655Y458990*
X242109*
X242336Y459146*
X242564Y459459*
X242677Y459771*
X233451Y426266D02*
X241451D01*
X237451Y422266D02*
Y430266D01*
X241156Y430766D02*
X241042Y431079D01*
X240815Y431391*
X240588Y431548*
X240133*
X239906Y431391*
X239679Y431079*
X239565Y430766*
X239451Y430298*
Y429516*
X239565Y429048*
X239679Y428735*
X239906Y428423*
X240133Y428266*
X240588*
X240815Y428423*
X241042Y428735*
X241156Y429048*
X263695Y422330D02*
X271695D01*
X267695Y418330D02*
Y426330D01*
X271400Y426830D02*
X271286Y427142D01*
X271059Y427455*
X270832Y427611*
X270377*
X270150Y427455*
X269923Y427142*
X269809Y426830*
X269695Y426361*
Y425580*
X269809Y425111*
X269923Y424798*
X270150Y424486*
X270377Y424330*
X270832*
X271059Y424486*
X271286Y424798*
X271400Y425111*
X273995Y423255D02*
X281995D01*
X277995Y419255D02*
Y427255D01*
X281699Y427755D02*
X281586Y428068D01*
X281358Y428380*
X281131Y428537*
X280677*
X280449Y428380*
X280222Y428068*
X280108Y427755*
X279995Y427287*
Y426505*
X280108Y426037*
X280222Y425724*
X280449Y425412*
X280677Y425255*
X281131*
X281358Y425412*
X281586Y425724*
X281699Y426037*
X253743Y437489D02*
X261743D01*
X257743Y433489D02*
Y441489D01*
X261448Y441989D02*
X261334Y442302D01*
X261107Y442614*
X260880Y442771*
X260425*
X260198Y442614*
X259971Y442302*
X259857Y441989*
X259743Y441521*
Y440739*
X259857Y440271*
X259971Y439958*
X260198Y439646*
X260425Y439489*
X260880*
X261107Y439646*
X261334Y439958*
X261448Y440271*
X267167Y455195D02*
X275167D01*
X271167Y451195D02*
Y459195D01*
X274872Y459695D02*
X274758Y460007D01*
X274531Y460320*
X274303Y460476*
X273849*
X273622Y460320*
X273394Y460007*
X273281Y459695*
X273167Y459226*
Y458445*
X273281Y457976*
X273394Y457664*
X273622Y457351*
X273849Y457195*
X274303*
X274531Y457351*
X274758Y457664*
X274872Y457976*
X225844Y452829D02*
X233844D01*
X229844Y448829D02*
Y456829D01*
X233549Y457329D02*
X233435Y457641D01*
X233208Y457954*
X232981Y458110*
X232526*
X232299Y457954*
X232072Y457641*
X231958Y457329*
X231844Y456860*
Y456079*
X231958Y455610*
X232072Y455298*
X232299Y454985*
X232526Y454829*
X232981*
X233208Y454985*
X233435Y455298*
X233549Y455610*
X317969Y409986D02*
X325969Y417986D01*
X317969D02*
X325969Y409986D01*
X342836Y417090D02*
X350836D01*
X346836Y413090D02*
Y421090D01*
X350540Y421590D02*
X350427Y421902D01*
X350199Y422215*
X349972Y422371*
X349518*
X349290Y422215*
X349063Y421902*
X348949Y421590*
X348836Y421121*
Y420340*
X348949Y419871*
X349063Y419558*
X349290Y419246*
X349518Y419090*
X349972*
X350199Y419246*
X350427Y419558*
X350540Y419871*
X332305Y436299D02*
X340305D01*
X336305Y432299D02*
Y440299D01*
X340010Y440799D02*
X339896Y441112D01*
X339669Y441424*
X339441Y441581*
X338987*
X338760Y441424*
X338532Y441112*
X338419Y440799*
X338305Y440331*
Y439549*
X338419Y439081*
X338532Y438768*
X338760Y438456*
X338987Y438299*
X339441*
X339669Y438456*
X339896Y438768*
X340010Y439081*
X332189Y443416D02*
X340189D01*
X336189Y439416D02*
Y447416D01*
X339894Y447916D02*
X339780Y448229D01*
X339553Y448541*
X339326Y448698*
X338871*
X338644Y448541*
X338417Y448229*
X338303Y447916*
X338189Y447448*
Y446666*
X338303Y446198*
X338417Y445885*
X338644Y445573*
X338871Y445416*
X339326*
X339553Y445573*
X339780Y445885*
X339894Y446198*
X317724Y460890D02*
X325724D01*
X321724Y456890D02*
Y464890D01*
X325429Y465390D02*
X325315Y465703D01*
X325088Y466015*
X324860Y466172*
X324406*
X324179Y466015*
X323951Y465703*
X323838Y465390*
X323724Y464922*
Y464140*
X323838Y463672*
X323951Y463359*
X324179Y463047*
X324406Y462890*
X324860*
X325088Y463047*
X325315Y463359*
X325429Y463672*
X326114Y454468D02*
X334114D01*
X330114Y450468D02*
Y458468D01*
X333818Y458968D02*
X333705Y459280D01*
X333478Y459593*
X333250Y459749*
X332796*
X332568Y459593*
X332341Y459280*
X332228Y458968*
X332114Y458499*
Y457718*
X332228Y457249*
X332341Y456937*
X332568Y456624*
X332796Y456468*
X333250*
X333478Y456624*
X333705Y456937*
X333818Y457249*
X362508Y474141D02*
X370508D01*
X366508Y470141D02*
Y478141D01*
X370213Y478641D02*
X370099Y478953D01*
X369872Y479266*
X369645Y479422*
X369190*
X368963Y479266*
X368736Y478953*
X368622Y478641*
X368508Y478172*
Y477391*
X368622Y476922*
X368736Y476609*
X368963Y476297*
X369190Y476141*
X369645*
X369872Y476297*
X370099Y476609*
X370213Y476922*
X359715Y457887D02*
X367715D01*
X363715Y453887D02*
Y461887D01*
X367420Y462387D02*
X367306Y462699D01*
X367079Y463012*
X366851Y463168*
X366397*
X366170Y463012*
X365942Y462699*
X365829Y462387*
X365715Y461918*
Y461137*
X365829Y460668*
X365942Y460355*
X366170Y460043*
X366397Y459887*
X366851*
X367079Y460043*
X367306Y460355*
X367420Y460668*
X392218Y479346D02*
X400218D01*
X396218Y475346D02*
Y483346D01*
X399923Y483846D02*
X399809Y484158D01*
X399582Y484471*
X399355Y484627*
X398900*
X398673Y484471*
X398446Y484158*
X398332Y483846*
X398218Y483377*
Y482596*
X398332Y482127*
X398446Y481814*
X398673Y481502*
X398900Y481346*
X399355*
X399582Y481502*
X399809Y481814*
X399923Y482127*
X397730Y479346D02*
X405730D01*
X401730Y475346D02*
Y483346D01*
X405435Y483846D02*
X405321Y484158D01*
X405094Y484471*
X404867Y484627*
X404412*
X404185Y484471*
X403958Y484158*
X403844Y483846*
X403730Y483377*
Y482596*
X403844Y482127*
X403958Y481814*
X404185Y481502*
X404412Y481346*
X404867*
X405094Y481502*
X405321Y481814*
X405435Y482127*
X374843Y479705D02*
X382843D01*
X378843Y475705D02*
Y483705D01*
X382548Y484205D02*
X382434Y484518D01*
X382207Y484830*
X381980Y484986*
X381525*
X381298Y484830*
X381071Y484518*
X380957Y484205*
X380843Y483736*
Y482955*
X380957Y482486*
X381071Y482174*
X381298Y481861*
X381525Y481705*
X381980*
X382207Y481861*
X382434Y482174*
X382548Y482486*
X399767Y474912D02*
X407767D01*
X403767Y470912D02*
Y478912D01*
X407472Y479412D02*
X407358Y479724D01*
X407131Y480037*
X406904Y480193*
X406449*
X406222Y480037*
X405995Y479724*
X405881Y479412*
X405767Y478943*
Y478162*
X405881Y477693*
X405995Y477381*
X406222Y477068*
X406449Y476912*
X406904*
X407131Y477068*
X407358Y477381*
X407472Y477693*
X390201Y485111D02*
X398201D01*
X394201Y481111D02*
Y489111D01*
X397905Y489611D02*
X397792Y489924D01*
X397564Y490236*
X397337Y490392*
X396882*
X396655Y490236*
X396428Y489924*
X396314Y489611*
X396201Y489142*
Y488361*
X396314Y487892*
X396428Y487580*
X396655Y487267*
X396882Y487111*
X397337*
X397564Y487267*
X397792Y487580*
X397905Y487892*
X372518Y475182D02*
X380518D01*
X376518Y471182D02*
Y479182D01*
X380223Y479682D02*
X380109Y479995D01*
X379882Y480307*
X379655Y480463*
X379200*
X378973Y480307*
X378746Y479995*
X378632Y479682*
X378518Y479213*
Y478432*
X378632Y477963*
X378746Y477651*
X378973Y477338*
X379200Y477182*
X379655*
X379882Y477338*
X380109Y477651*
X380223Y477963*
X404071Y446670D02*
X412071D01*
X408071Y442670D02*
Y450670D01*
X411775Y451170D02*
X411662Y451483D01*
X411434Y451795*
X411207Y451952*
X410753*
X410525Y451795*
X410298Y451483*
X410184Y451170*
X410071Y450702*
Y449920*
X410184Y449452*
X410298Y449139*
X410525Y448827*
X410753Y448670*
X411207*
X411434Y448827*
X411662Y449139*
X411775Y449452*
X402335Y440942D02*
X410335D01*
X406335Y436942D02*
Y444942D01*
X410040Y445442D02*
X409926Y445755D01*
X409699Y446067*
X409471Y446223*
X409017*
X408790Y446067*
X408562Y445755*
X408449Y445442*
X408335Y444973*
Y444192*
X408449Y443723*
X408562Y443411*
X408790Y443098*
X409017Y442942*
X409471*
X409699Y443098*
X409926Y443411*
X410040Y443723*
X390001Y406342D02*
X398001D01*
X394001Y402342D02*
Y410342D01*
X397706Y410842D02*
X397592Y411155D01*
X397365Y411467*
X397137Y411624*
X396683*
X396456Y411467*
X396456D02*
X396228Y411155D01*
X396115Y410842*
X396001Y410374*
Y409592*
X396115Y409124*
X396228Y408811*
X396456Y408499*
X396456D02*
X396683Y408342D01*
X397137*
X397365Y408499*
X397592Y408811*
X397706Y409124*
X169640Y505109D02*
X177640D01*
X173640Y501109D02*
Y509109D01*
X177344Y509609D02*
X177231Y509921D01*
X177003Y510234*
X176776Y510390*
X176321*
X176094Y510234*
X175867Y509921*
X175753Y509609*
X175640Y509140*
Y508359*
X175753Y507890*
X175867Y507578*
X176094Y507265*
X176321Y507109*
X176776*
X177003Y507265*
X177231Y507578*
X177344Y507890*
X202161Y498932D02*
X210161D01*
X206161Y494932D02*
Y502932D01*
X209866Y503432D02*
X209752Y503744D01*
X209525Y504057*
X209297Y504213*
X208843*
X208616Y504057*
X208388Y503744*
X208275Y503432*
X208161Y502963*
Y502182*
X208275Y501713*
X208388Y501400*
X208616Y501088*
X208843Y500932*
X209297*
X209525Y501088*
X209752Y501400*
X209866Y501713*
X140179Y487168D02*
X148179D01*
X144179Y483168D02*
Y491168D01*
X147883Y491668D02*
X147770Y491981D01*
X147770D02*
X147542Y492293D01*
X147315Y492449*
X146860*
X146633Y492293*
X146406Y491981*
X146292Y491668*
X146179Y491199*
Y490418*
X146292Y489949*
X146406Y489637*
X146633Y489324*
X146860Y489168*
X147315*
X147542Y489324*
X147770Y489637*
X147770D02*
X147883Y489949D01*
X134861Y514303D02*
X142861D01*
X138861Y510303D02*
Y518303D01*
X142565Y518803D02*
X142452Y519116D01*
X142225Y519428*
X141997Y519584*
X141543*
X141315Y519428*
X141088Y519116*
X140975Y518803*
X140861Y518334*
Y517553*
X140975Y517084*
X141088Y516772*
X141315Y516459*
X141543Y516303*
X141997*
X142225Y516459*
X142452Y516772*
X142565Y517084*
X140589Y519726D02*
X148589D01*
X144589Y515726D02*
Y523726D01*
X148293Y524226D02*
X148179Y524538D01*
X147952Y524851*
X147725Y525007*
X147270*
X147043Y524851*
X146816Y524538*
X146702Y524226*
X146589Y523757*
Y522976*
X146702Y522507*
X146816Y522194*
X147043Y521882*
X147270Y521726*
X147725*
X147952Y521882*
X148179Y522194*
X148293Y522507*
X156115Y495566D02*
X164115D01*
X160115Y491566D02*
Y499566D01*
X163820Y500066D02*
X163706Y500378D01*
X163479Y500691*
X163251Y500847*
X162797*
X162570Y500691*
X162342Y500378*
X162229Y500066*
X162115Y499597*
Y498816*
X162229Y498347*
X162342Y498035*
X162570Y497722*
X162797Y497566*
X163251*
X163479Y497722*
X163706Y498035*
X163820Y498347*
X160504Y523903D02*
X168504D01*
X164504Y519903D02*
Y527903D01*
X168208Y528403D02*
X168095Y528716D01*
X167867Y529028*
X167640Y529184*
X167185*
X166958Y529028*
X166731Y528716*
X166617Y528403*
X166504Y527934*
Y527153*
X166617Y526684*
X166731Y526372*
X166958Y526059*
X167185Y525903*
X167640*
X167867Y526059*
X168095Y526372*
X168208Y526684*
X190304Y513398D02*
X198304D01*
X194304Y509398D02*
Y517398D01*
X198009Y517898D02*
X197895Y518210D01*
X197668Y518523*
X197440Y518679*
X196986*
X196759Y518523*
X196531Y518210*
X196418Y517898*
X196304Y517429*
Y516648*
X196418Y516179*
X196531Y515866*
X196759Y515554*
X196986Y515398*
X197440*
X197668Y515554*
X197895Y515866*
X198009Y516179*
X190595Y490101D02*
X198595D01*
X194595Y486101D02*
Y494101D01*
X198300Y494601D02*
X198186Y494913D01*
X197959Y495226*
X197732Y495382*
X197277*
X197050Y495226*
X196822Y494913*
X196709Y494601*
X196595Y494132*
Y493351*
X196709Y492882*
X196822Y492570*
X197050Y492257*
X197277Y492101*
X197732*
X197959Y492257*
X198186Y492570*
X198300Y492882*
X247109Y495725D02*
X255109Y503725D01*
X247109D02*
X255109Y495725D01*
X251186Y531253D02*
X259186Y539253D01*
X251186D02*
X259186Y531253D01*
X235935Y521915D02*
X243935D01*
X239935Y517915D02*
Y525915D01*
X243639Y526415D02*
X243526Y526728D01*
X243298Y527040*
X243071Y527197*
X242617*
X242389Y527040*
X242162Y526728*
X242048Y526415*
X241935Y525947*
Y525165*
X242048Y524697*
X242162Y524384*
X242389Y524072*
X242617Y523915*
X243071*
X243298Y524072*
X243526Y524384*
X243639Y524697*
X233379Y491248D02*
X241379D01*
X237379Y487248D02*
Y495248D01*
X241083Y495748D02*
X240970Y496061D01*
X240742Y496373*
X240515Y496529*
X240061*
X239833Y496373*
X239606Y496061*
X239492Y495748*
X239379Y495279*
Y494498*
X239492Y494029*
X239606Y493717*
X239833Y493404*
X240061Y493248*
X240515*
X240742Y493404*
X240970Y493717*
X241083Y494029*
X264043Y487481D02*
X272043D01*
X268043Y483481D02*
Y491481D01*
X271747Y491981D02*
X271634Y492294D01*
X271634D02*
X271406Y492606D01*
X271179Y492762*
X270724*
X270497Y492606*
X270270Y492294*
X270156Y491981*
X270043Y491512*
Y490731*
X270156Y490262*
X270270Y489950*
X270497Y489637*
X270724Y489481*
X271179*
X271406Y489637*
X271634Y489950*
X271634D02*
X271747Y490262D01*
X253801Y502757D02*
X261801D01*
X257801Y498757D02*
Y506757D01*
X261506Y507257D02*
X261392Y507569D01*
X261165Y507882*
X260938Y508038*
X260483*
X260256Y507882*
X260028Y507569*
X259915Y507257*
X259801Y506788*
Y506007*
X259915Y505538*
X260028Y505225*
X260256Y504913*
X260483Y504757*
X260938*
X261165Y504913*
X261392Y505225*
X261506Y505538*
X267456Y522082D02*
X275456D01*
X271456Y518082D02*
Y526082D01*
X275161Y526582D02*
X275047Y526895D01*
X274820Y527207*
X274593Y527363*
X274138*
X273911Y527207*
X273684Y526895*
X273570Y526582*
X273456Y526113*
Y525332*
X273570Y524863*
X273684Y524551*
X273911Y524238*
X274138Y524082*
X274593*
X274820Y524238*
X275047Y524551*
X275161Y524863*
X274689Y487365D02*
X282689D01*
X278689Y483365D02*
Y491365D01*
X282394Y491865D02*
X282280Y492178D01*
X282053Y492490*
X282053D02*
X281825Y492647D01*
X281371*
X281144Y492490*
X281144D02*
X280916Y492178D01*
X280803Y491865*
X280803D02*
X280689Y491397D01*
Y490615*
X280689D02*
X280803Y490147D01*
X280916Y489834*
X281144Y489522*
X281371Y489365*
X281371D02*
X281825D01*
X281825D02*
X282053Y489522D01*
X282280Y489834*
X282394Y490147*
X221075Y517205D02*
X229075D01*
X225075Y513205D02*
Y521205D01*
X228780Y521705D02*
X228666Y522018D01*
X228439Y522330*
X228212Y522487*
X227757*
X227530Y522330*
X227303Y522018*
X227189Y521705*
X227075Y521237*
Y520455*
X227189Y519987*
X227303Y519674*
X227530Y519362*
X227757Y519205*
X228212*
X228439Y519362*
X228666Y519674*
X228780Y519987*
X126365Y533797D02*
Y346297D01*
X461365*
Y556297*
X148865*
X126365Y533797*
X100000Y340000D02*
X358000D01*
X100000Y316000D02*
X358000D01*
X100000Y292000D02*
X358000D01*
X100000Y268000D02*
X358000D01*
X100000Y244000D02*
X358000D01*
X100000Y220000D02*
X358000D01*
X100000Y196000D02*
X358000D01*
X100000Y172000D02*
X358000D01*
X100000Y148000D02*
X358000D01*
X100000Y124000D02*
X358000D01*
X100000Y100000D02*
X358000D01*
X100000Y340000D02*
Y100000D01*
X184000Y340000D02*
Y100000D01*
X220000Y340000D02*
Y100000D01*
X256000Y340000D02*
Y100000D01*
X310000Y340000D02*
Y100000D01*
X358000Y340000D02*
Y100000D01*
X135500Y328750D02*
X134955Y329500D01*
X134136Y329875*
X133045*
X132227Y329500*
X131682Y328750*
Y328000*
X131955Y327250*
X132227Y326875*
X132773Y326500*
X134409Y325750*
X134955Y325375*
X135227Y325000*
X135500Y324250*
Y323125*
X134955Y322375*
X134136Y322000*
X133045*
X132227Y322375*
X131682Y323125*
X137955Y329875D02*
Y322000D01*
X144227Y329875D02*
X140409Y322000D01*
Y329875D02*
X144227D01*
X140409Y322000D02*
X144227D01*
X146682Y329875D02*
Y322000D01*
Y329875D02*
X150227D01*
X146682Y326125D02*
X148864D01*
X146682Y322000D02*
X150227D01*
X193864Y329875D02*
X193318Y329500D01*
X192773Y328750*
X192500Y328000*
X192227Y326875*
Y325000*
X192500Y323875*
X192773Y323125*
X193318Y322375*
X193864Y322000*
X194955*
X195500Y322375*
X196045Y323125*
X196318Y323875*
X196591Y325000*
Y326875*
X196318Y328000*
X196045Y328750*
X195500Y329500*
X194955Y329875*
X193864*
X194682Y323500D02*
X196318Y321250D01*
X200955Y329875D02*
Y322000D01*
X199045Y329875D02*
X202864D01*
X205318D02*
X207500Y326125D01*
Y322000*
X209682Y329875D02*
X207500Y326125D01*
X232045Y328750D02*
X231500Y329500D01*
X230682Y329875*
X229591*
X228773Y329500*
X228227Y328750*
Y328000*
X228500Y327250*
X228773Y326875*
X229318Y326500*
X230955Y325750*
X231500Y325375*
X231773Y325000*
X232045Y324250*
Y323125*
X231500Y322375*
X230682Y322000*
X229591*
X228773Y322375*
X228227Y323125*
X234500Y329875D02*
X236682Y326125D01*
Y322000*
X238864Y329875D02*
X236682Y326125D01*
X241318Y329875D02*
Y322000D01*
Y329875D02*
X243500Y322000D01*
X245682Y329875D02*
X243500Y322000D01*
X245682Y329875D02*
Y322000D01*
X267500Y329875D02*
Y322000D01*
Y329875D02*
X269955D01*
X270773Y329500*
X271045Y329125*
X271318Y328375*
Y327250*
X271045Y326500*
X270773Y326125*
X269955Y325750*
X267500*
X273773Y329875D02*
Y322000D01*
X277045*
X281682Y329875D02*
X279500Y322000D01*
X281682Y329875D02*
X283864Y322000D01*
X280318Y324625D02*
X283045D01*
X288227Y329875D02*
Y322000D01*
X286318Y329875D02*
X290136D01*
X292591D02*
Y322000D01*
Y329875D02*
X296136D01*
X292591Y326125D02*
X294773D01*
X292591Y322000D02*
X296136D01*
X298591Y329875D02*
Y322000D01*
Y329875D02*
X300500D01*
X301318Y329500*
X301864Y328750*
X302136Y328000*
X302409Y326875*
Y325000*
X302136Y323875*
X301864Y323125*
X301318Y322375*
X300500Y322000*
X298591*
X326682Y329875D02*
Y322000D01*
X324773Y329875D02*
X328591D01*
X332682D02*
X332136Y329500D01*
X331591Y328750*
X331318Y328000*
X331045Y326875*
Y325000*
X331318Y323875*
X331591Y323125*
X332136Y322375*
X332682Y322000*
X333773*
X334318Y322375*
X334864Y323125*
X335136Y323875*
X335409Y325000*
Y326875*
X335136Y328000*
X334864Y328750*
X334318Y329500*
X333773Y329875*
X332682*
X337864D02*
Y322000D01*
X341136*
X106545Y305875D02*
X109545D01*
X107909Y302875*
X108727*
X109273Y302500*
X109545Y302125*
X109818Y301000*
Y300250*
X109545Y299125*
X109000Y298375*
X108182Y298000*
X107364*
X106545Y298375*
X106273Y298750*
X106000Y299500*
X112273Y304375D02*
X112818Y304750D01*
X113636Y305875*
Y298000*
X116364Y298750D02*
X116091Y298375D01*
X116364Y298000*
X116636Y298375*
X116364Y298750*
X122636Y305875D02*
X119909D01*
X119636Y302500*
X119909Y302875*
X120727Y303250*
X121545*
X122364Y302875*
X122909Y302125*
X123182Y301000*
X122909Y300250*
X122636Y299125*
X122091Y298375*
X121273Y298000*
X120455*
X119636Y298375*
X119364Y298750*
X119091Y299500*
X201636Y305875D02*
X198909Y300625D01*
X203000*
X201636Y305875D02*
Y298000D01*
X232000Y304000D02*
X244000D01*
X238000Y298000D02*
Y310000D01*
X264636Y305875D02*
X266818Y302125D01*
Y298000*
X269000Y305875D02*
X266818Y302125D01*
X271455Y305875D02*
Y298000D01*
Y305875D02*
X275000D01*
X271455Y302125D02*
X273636D01*
X271455Y298000D02*
X275000D01*
X281273Y304750D02*
X280727Y305500D01*
X279909Y305875*
X278818*
X278000Y305500*
X277455Y304750*
Y304000*
X277727Y303250*
X278000Y302875*
X278545Y302500*
X280182Y301750*
X280727Y301375*
X281000Y301000*
X281273Y300250*
Y299125*
X280727Y298375*
X279909Y298000*
X278818*
X278000Y298375*
X277455Y299125*
X317818Y304750D02*
Y298000D01*
X315364Y301375D02*
X320273D01*
X327636Y307375D02*
X322727Y295375D01*
X330091Y301375D02*
X335000D01*
X339091Y305875D02*
X338273Y305500D01*
X337727Y304375*
X337455Y302500*
Y301375*
X337727Y299500*
X338273Y298375*
X339091Y298000*
X339636*
X340455Y298375*
X341000Y299500*
X341273Y301375*
Y302500*
X341000Y304375*
X340455Y305500*
X339636Y305875*
X339091*
X344000Y298750D02*
X343727Y298375D01*
X344000Y298000*
X344273Y298375*
X344000Y298750*
X348364Y305875D02*
X347545Y305500D01*
X347000Y304375*
X346727Y302500*
Y301375*
X347000Y299500*
X347545Y298375*
X348364Y298000*
X348909*
X349727Y298375*
X350273Y299500*
X350545Y301375*
Y302500*
X350273Y304375*
X349727Y305500*
X348909Y305875*
X348364*
X106545Y281875D02*
X109545D01*
X107909Y278875*
X108727*
X109273Y278500*
X109545Y278125*
X109818Y277000*
Y276250*
X109545Y275125*
X109000Y274375*
X108182Y274000*
X107364*
X106545Y274375*
X106273Y274750*
X106000Y275500*
X116091Y281875D02*
X113364Y274000D01*
X112273Y281875D02*
X116091D01*
X197136Y280375D02*
X197682Y280750D01*
X198500Y281875*
Y274000*
X201500Y281875D02*
X204500D01*
X202864Y278875*
X203682*
X204227Y278500*
X204500Y278125*
X204773Y277000*
Y276250*
X204500Y275125*
X203955Y274375*
X203136Y274000*
X202318*
X201500Y274375*
X201227Y274750*
X200955Y275500*
X232000Y274000D02*
X244000Y286000D01*
X232000D02*
X244000Y274000D01*
X264636Y281875D02*
X266818Y278125D01*
Y274000*
X269000Y281875D02*
X266818Y278125D01*
X271455Y281875D02*
Y274000D01*
Y281875D02*
X275000D01*
X271455Y278125D02*
X273636D01*
X271455Y274000D02*
X275000D01*
X281273Y280750D02*
X280727Y281500D01*
X279909Y281875*
X278818*
X278000Y281500*
X277455Y280750*
Y280000*
X277727Y279250*
X278000Y278875*
X278545Y278500*
X280182Y277750*
X280727Y277375*
X281000Y277000*
X281273Y276250*
Y275125*
X280727Y274375*
X279909Y274000*
X278818*
X278000Y274375*
X277455Y275125*
X317818Y280750D02*
Y274000D01*
X315364Y277375D02*
X320273D01*
X327636Y283375D02*
X322727Y271375D01*
X330091Y277375D02*
X335000D01*
X339091Y281875D02*
X338273Y281500D01*
X337727Y280375*
X337455Y278500*
Y277375*
X337727Y275500*
X338273Y274375*
X339091Y274000*
X339636*
X340455Y274375*
X341000Y275500*
X341273Y277375*
Y278500*
X341000Y280375*
X340455Y281500*
X339636Y281875*
X339091*
X344000Y274750D02*
X343727Y274375D01*
X344000Y274000*
X344273Y274375*
X344000Y274750*
X348364Y281875D02*
X347545Y281500D01*
X347000Y280375*
X346727Y278500*
Y277375*
X347000Y275500*
X347545Y274375*
X348364Y274000*
X348909*
X349727Y274375*
X350273Y275500*
X350545Y277375*
Y278500*
X350273Y280375*
X349727Y281500*
X348909Y281875*
X348364*
X106000Y256375D02*
X106545Y256750D01*
X107364Y257875*
Y250000*
X113636Y257875D02*
X110909Y250000D01*
X109818Y257875D02*
X113636D01*
X116364Y250750D02*
X116091Y250375D01*
X116364Y250000*
X116636Y250375*
X116364Y250750*
X122909Y257875D02*
X120182Y250000D01*
X119091Y257875D02*
X122909D01*
X125636Y256000D02*
Y256375D01*
X125909Y257125*
X126182Y257500*
X126727Y257875*
X127818*
X128364Y257500*
X128636Y257125*
X128909Y256375*
Y255625*
X128636Y254875*
X128091Y253750*
X125364Y250000*
X129182*
X137909Y255250D02*
X140909Y250000D01*
Y255250D02*
X137909Y250000D01*
X152909Y256750D02*
X152636Y257500D01*
X151818Y257875*
X151273*
X150455Y257500*
X149909Y256375*
X149636Y254500*
Y252625*
X149909Y251125*
X150455Y250375*
X151273Y250000*
X151545*
X152364Y250375*
X152909Y251125*
X153182Y252250*
Y252625*
X152909Y253750*
X152364Y254500*
X151545Y254875*
X151273*
X150455Y254500*
X149909Y253750*
X149636Y252625*
X155636Y256375D02*
X156182Y256750D01*
X157000Y257875*
Y250000*
X159727Y250750D02*
X159455Y250375D01*
X159727Y250000*
X160000Y250375*
X159727Y250750*
X164091Y257875D02*
X163273Y257500D01*
X162727Y256375*
X162455Y254500*
Y253375*
X162727Y251500*
X163273Y250375*
X164091Y250000*
X164636*
X165455Y250375*
X166000Y251500*
X166273Y253375*
Y254500*
X166000Y256375*
X165455Y257500*
X164636Y257875*
X164091*
X169000Y256000D02*
Y256375D01*
X169273Y257125*
X169545Y257500*
X170091Y257875*
X171182*
X171727Y257500*
X172000Y257125*
X172273Y256375*
Y255625*
X172000Y254875*
X171455Y253750*
X168727Y250000*
X172545*
X199318Y256000D02*
Y256375D01*
X199591Y257125*
X199864Y257500*
X200409Y257875*
X201500*
X202045Y257500*
X202318Y257125*
X202591Y256375*
Y255625*
X202318Y254875*
X201773Y253750*
X199045Y250000*
X202864*
X232000D02*
X244000D01*
Y262000*
X232000*
Y250000*
X238000Y256000D02*
Y262000D01*
X264636Y257875D02*
X266818Y254125D01*
Y250000*
X269000Y257875D02*
X266818Y254125D01*
X271455Y257875D02*
Y250000D01*
Y257875D02*
X275000D01*
X271455Y254125D02*
X273636D01*
X271455Y250000D02*
X275000D01*
X281273Y256750D02*
X280727Y257500D01*
X279909Y257875*
X278818*
X278000Y257500*
X277455Y256750*
Y256000*
X277727Y255250*
X278000Y254875*
X278545Y254500*
X280182Y253750*
X280727Y253375*
X281000Y253000*
X281273Y252250*
Y251125*
X280727Y250375*
X279909Y250000*
X278818*
X278000Y250375*
X277455Y251125*
X317818Y256750D02*
Y250000D01*
X315364Y253375D02*
X320273D01*
X327636Y259375D02*
X322727Y247375D01*
X330091Y253375D02*
X335000D01*
X339091Y257875D02*
X338273Y257500D01*
X337727Y256375*
X337455Y254500*
Y253375*
X337727Y251500*
X338273Y250375*
X339091Y250000*
X339636*
X340455Y250375*
X341000Y251500*
X341273Y253375*
Y254500*
X341000Y256375*
X340455Y257500*
X339636Y257875*
X339091*
X344000Y250750D02*
X343727Y250375D01*
X344000Y250000*
X344273Y250375*
X344000Y250750*
X348364Y257875D02*
X347545Y257500D01*
X347000Y256375*
X346727Y254500*
Y253375*
X347000Y251500*
X347545Y250375*
X348364Y250000*
X348909*
X349727Y250375*
X350273Y251500*
X350545Y253375*
Y254500*
X350273Y256375*
X349727Y257500*
X348909Y257875*
X348364*
X106273Y232000D02*
Y232375D01*
X106545Y233125*
X106818Y233500*
X107364Y233875*
X108455*
X109000Y233500*
X109273Y233125*
X109545Y232375*
Y231625*
X109273Y230875*
X108727Y229750*
X106000Y226000*
X109818*
X115818Y233875D02*
X113091D01*
X112818Y230500*
X113091Y230875*
X113909Y231250*
X114727*
X115545Y230875*
X116091Y230125*
X116364Y229000*
X116091Y228250*
X115818Y227125*
X115273Y226375*
X114455Y226000*
X113636*
X112818Y226375*
X112545Y226750*
X112273Y227500*
X119091Y226750D02*
X118818Y226375D01*
X119091Y226000*
X119364Y226375*
X119091Y226750*
X125364Y233875D02*
X122636D01*
X122364Y230500*
X122636Y230875*
X123455Y231250*
X124273*
X125091Y230875*
X125636Y230125*
X125909Y229000*
X125636Y228250*
X125364Y227125*
X124818Y226375*
X124000Y226000*
X123182*
X122364Y226375*
X122091Y226750*
X121818Y227500*
X131909Y231250D02*
X131636Y230125D01*
X131091Y229375*
X130273Y229000*
X130000*
X129182Y229375*
X128636Y230125*
X128364Y231250*
Y231625*
X128636Y232750*
X129182Y233500*
X130000Y233875*
X130273*
X131091Y233500*
X131636Y232750*
X131909Y231250*
Y229375*
X131636Y227500*
X131091Y226375*
X130273Y226000*
X129727*
X128909Y226375*
X128636Y227125*
X199318Y232000D02*
Y232375D01*
X199591Y233125*
X199864Y233500*
X200409Y233875*
X201500*
X202045Y233500*
X202318Y233125*
X202591Y232375*
Y231625*
X202318Y230875*
X201773Y229750*
X199045Y226000*
X202864*
X238000D02*
X244000Y232000D01*
X238000Y238000*
X232000Y232000*
X238000Y226000*
Y232000D02*
Y238000D01*
X267636Y233875D02*
Y226000D01*
Y233875D02*
X271455Y226000D01*
Y233875D02*
Y226000D01*
X275545Y233875D02*
X275000Y233500D01*
X274455Y232750*
X274182Y232000*
X273909Y230875*
Y229000*
X274182Y227875*
X274455Y227125*
X275000Y226375*
X275545Y226000*
X276636*
X277182Y226375*
X277727Y227125*
X278000Y227875*
X278273Y229000*
Y230875*
X278000Y232000*
X277727Y232750*
X277182Y233500*
X276636Y233875*
X275545*
X317818Y232750D02*
Y226000D01*
X315364Y229375D02*
X320273D01*
X327636Y235375D02*
X322727Y223375D01*
X330091Y229375D02*
X335000D01*
X339091Y233875D02*
X338273Y233500D01*
X337727Y232375*
X337455Y230500*
Y229375*
X337727Y227500*
X338273Y226375*
X339091Y226000*
X339636*
X340455Y226375*
X341000Y227500*
X341273Y229375*
Y230500*
X341000Y232375*
X340455Y233500*
X339636Y233875*
X339091*
X344000Y226750D02*
X343727Y226375D01*
X344000Y226000*
X344273Y226375*
X344000Y226750*
X348364Y233875D02*
X347545Y233500D01*
X347000Y232375*
X346727Y230500*
Y229375*
X347000Y227500*
X347545Y226375*
X348364Y226000*
X348909*
X349727Y226375*
X350273Y227500*
X350545Y229375*
Y230500*
X350273Y232375*
X349727Y233500*
X348909Y233875*
X348364*
X108727Y209875D02*
X106000Y204625D01*
X110091*
X108727Y209875D02*
Y202000D01*
X116364Y209875D02*
X113636Y202000D01*
X112545Y209875D02*
X116364D01*
X119091Y202750D02*
X118818Y202375D01*
X119091Y202000*
X119364Y202375*
X119091Y202750*
X122091Y208000D02*
Y208375D01*
X122364Y209125*
X122636Y209500*
X123182Y209875*
X124273*
X124818Y209500*
X125091Y209125*
X125364Y208375*
Y207625*
X125091Y206875*
X124545Y205750*
X121818Y202000*
X125636*
X130818Y209875D02*
X128091Y204625D01*
X132182*
X130818Y209875D02*
Y202000D01*
X199318Y208000D02*
Y208375D01*
X199591Y209125*
X199864Y209500*
X200409Y209875*
X201500*
X202045Y209500*
X202318Y209125*
X202591Y208375*
Y207625*
X202318Y206875*
X201773Y205750*
X199045Y202000*
X202864*
X232000D02*
X244000D01*
X232000Y214000*
X244000*
X232000Y202000*
X264636Y209875D02*
X266818Y206125D01*
Y202000*
X269000Y209875D02*
X266818Y206125D01*
X271455Y209875D02*
Y202000D01*
Y209875D02*
X275000D01*
X271455Y206125D02*
X273636D01*
X271455Y202000D02*
X275000D01*
X281273Y208750D02*
X280727Y209500D01*
X279909Y209875*
X278818*
X278000Y209500*
X277455Y208750*
Y208000*
X277727Y207250*
X278000Y206875*
X278545Y206500*
X280182Y205750*
X280727Y205375*
X281000Y205000*
X281273Y204250*
Y203125*
X280727Y202375*
X279909Y202000*
X278818*
X278000Y202375*
X277455Y203125*
X317818Y208750D02*
Y202000D01*
X315364Y205375D02*
X320273D01*
X327636Y211375D02*
X322727Y199375D01*
X330091Y205375D02*
X335000D01*
X339091Y209875D02*
X338273Y209500D01*
X337727Y208375*
X337455Y206500*
Y205375*
X337727Y203500*
X338273Y202375*
X339091Y202000*
X339636*
X340455Y202375*
X341000Y203500*
X341273Y205375*
Y206500*
X341000Y208375*
X340455Y209500*
X339636Y209875*
X339091*
X344000Y202750D02*
X343727Y202375D01*
X344000Y202000*
X344273Y202375*
X344000Y202750*
X348364Y209875D02*
X347545Y209500D01*
X347000Y208375*
X346727Y206500*
Y205375*
X347000Y203500*
X347545Y202375*
X348364Y202000*
X348909*
X349727Y202375*
X350273Y203500*
X350545Y205375*
Y206500*
X350273Y208375*
X349727Y209500*
X348909Y209875*
X348364*
X106545Y185875D02*
X109545D01*
X107909Y182875*
X108727*
X109273Y182500*
X109545Y182125*
X109818Y181000*
Y180250*
X109545Y179125*
X109000Y178375*
X108182Y178000*
X107364*
X106545Y178375*
X106273Y178750*
X106000Y179500*
X115818Y185875D02*
X113091D01*
X112818Y182500*
X113091Y182875*
X113909Y183250*
X114727*
X115545Y182875*
X116091Y182125*
X116364Y181000*
X116091Y180250*
X115818Y179125*
X115273Y178375*
X114455Y178000*
X113636*
X112818Y178375*
X112545Y178750*
X112273Y179500*
X197136Y184375D02*
X197682Y184750D01*
X198500Y185875*
Y178000*
X202318Y185875D02*
X201500Y185500D01*
X201227Y184750*
Y184000*
X201500Y183250*
X202045Y182875*
X203136Y182500*
X203955Y182125*
X204500Y181375*
X204773Y180625*
Y179500*
X204500Y178750*
X204227Y178375*
X203409Y178000*
X202318*
X201500Y178375*
X201227Y178750*
X200955Y179500*
Y180625*
X201227Y181375*
X201773Y182125*
X202591Y182500*
X203682Y182875*
X204227Y183250*
X204500Y184000*
Y184750*
X204227Y185500*
X203409Y185875*
X202318*
X232000Y178000D02*
X244000Y190000D01*
Y178000*
X232000Y190000*
Y178000*
X264636Y185875D02*
X266818Y182125D01*
Y178000*
X269000Y185875D02*
X266818Y182125D01*
X271455Y185875D02*
Y178000D01*
Y185875D02*
X275000D01*
X271455Y182125D02*
X273636D01*
X271455Y178000D02*
X275000D01*
X281273Y184750D02*
X280727Y185500D01*
X279909Y185875*
X278818*
X278000Y185500*
X277455Y184750*
Y184000*
X277727Y183250*
X278000Y182875*
X278545Y182500*
X280182Y181750*
X280727Y181375*
X281000Y181000*
X281273Y180250*
Y179125*
X280727Y178375*
X279909Y178000*
X278818*
X278000Y178375*
X277455Y179125*
X317818Y184750D02*
Y178000D01*
X315364Y181375D02*
X320273D01*
X327636Y187375D02*
X322727Y175375D01*
X330091Y181375D02*
X335000D01*
X339091Y185875D02*
X338273Y185500D01*
X337727Y184375*
X337455Y182500*
Y181375*
X337727Y179500*
X338273Y178375*
X339091Y178000*
X339636*
X340455Y178375*
X341000Y179500*
X341273Y181375*
Y182500*
X341000Y184375*
X340455Y185500*
X339636Y185875*
X339091*
X344000Y178750D02*
X343727Y178375D01*
X344000Y178000*
X344273Y178375*
X344000Y178750*
X348364Y185875D02*
X347545Y185500D01*
X347000Y184375*
X346727Y182500*
Y181375*
X347000Y179500*
X347545Y178375*
X348364Y178000*
X348909*
X349727Y178375*
X350273Y179500*
X350545Y181375*
Y182500*
X350273Y184375*
X349727Y185500*
X348909Y185875*
X348364*
X106000Y160375D02*
X106545Y160750D01*
X107364Y161875*
Y154000*
X113364Y159250D02*
X113091Y158125D01*
X112545Y157375*
X111727Y157000*
X111455*
X110636Y157375*
X110091Y158125*
X109818Y159250*
Y159625*
X110091Y160750*
X110636Y161500*
X111455Y161875*
X111727*
X112545Y161500*
X113091Y160750*
X113364Y159250*
Y157375*
X113091Y155500*
X112545Y154375*
X111727Y154000*
X111182*
X110364Y154375*
X110091Y155125*
X116091Y154750D02*
X115818Y154375D01*
X116091Y154000*
X116364Y154375*
X116091Y154750*
X122091Y160750D02*
X121818Y161500D01*
X121000Y161875*
X120455*
X119636Y161500*
X119091Y160375*
X118818Y158500*
Y156625*
X119091Y155125*
X119636Y154375*
X120455Y154000*
X120727*
X121545Y154375*
X122091Y155125*
X122364Y156250*
Y156625*
X122091Y157750*
X121545Y158500*
X120727Y158875*
X120455*
X119636Y158500*
X119091Y157750*
X118818Y156625*
X128364Y159250D02*
X128091Y158125D01*
X127545Y157375*
X126727Y157000*
X126455*
X125636Y157375*
X125091Y158125*
X124818Y159250*
Y159625*
X125091Y160750*
X125636Y161500*
X126455Y161875*
X126727*
X127545Y161500*
X128091Y160750*
X128364Y159250*
Y157375*
X128091Y155500*
X127545Y154375*
X126727Y154000*
X126182*
X125364Y154375*
X125091Y155125*
X137091Y159250D02*
X140091Y154000D01*
Y159250D02*
X137091Y154000D01*
X152364Y161875D02*
X149636D01*
X149364Y158500*
X149636Y158875*
X150455Y159250*
X151273*
X152091Y158875*
X152636Y158125*
X152909Y157000*
X152636Y156250*
X152364Y155125*
X151818Y154375*
X151000Y154000*
X150182*
X149364Y154375*
X149091Y154750*
X148818Y155500*
X158909Y161875D02*
X156182D01*
X155909Y158500*
X156182Y158875*
X157000Y159250*
X157818*
X158636Y158875*
X159182Y158125*
X159455Y157000*
X159182Y156250*
X158909Y155125*
X158364Y154375*
X157545Y154000*
X156727*
X155909Y154375*
X155636Y154750*
X155364Y155500*
X162182Y154750D02*
X161909Y154375D01*
X162182Y154000*
X162455Y154375*
X162182Y154750*
X164909Y160375D02*
X165455Y160750D01*
X166273Y161875*
Y154000*
X169000Y160000D02*
Y160375D01*
X169273Y161125*
X169545Y161500*
X170091Y161875*
X171182*
X171727Y161500*
X172000Y161125*
X172273Y160375*
Y159625*
X172000Y158875*
X171455Y157750*
X168727Y154000*
X172545*
X199318Y160000D02*
Y160375D01*
X199591Y161125*
X199864Y161500*
X200409Y161875*
X201500*
X202045Y161500*
X202318Y161125*
X202591Y160375*
Y159625*
X202318Y158875*
X201773Y157750*
X199045Y154000*
X202864*
X232000Y160000D02*
X244000D01*
X238000Y154000D02*
Y166000D01*
X242745Y169300D02*
X241000Y163000D01*
X242745Y169300D02*
X244491Y163000D01*
X241655Y165100D02*
X243836D01*
X264636Y161875D02*
X266818Y158125D01*
Y154000*
X269000Y161875D02*
X266818Y158125D01*
X271455Y161875D02*
Y154000D01*
Y161875D02*
X275000D01*
X271455Y158125D02*
X273636D01*
X271455Y154000D02*
X275000D01*
X281273Y160750D02*
X280727Y161500D01*
X279909Y161875*
X278818*
X278000Y161500*
X277455Y160750*
Y160000*
X277727Y159250*
X278000Y158875*
X278545Y158500*
X280182Y157750*
X280727Y157375*
X281000Y157000*
X281273Y156250*
Y155125*
X280727Y154375*
X279909Y154000*
X278818*
X278000Y154375*
X277455Y155125*
X317818Y160750D02*
Y154000D01*
X315364Y157375D02*
X320273D01*
X327636Y163375D02*
X322727Y151375D01*
X330091Y157375D02*
X335000D01*
X339091Y161875D02*
X338273Y161500D01*
X337727Y160375*
X337455Y158500*
Y157375*
X337727Y155500*
X338273Y154375*
X339091Y154000*
X339636*
X340455Y154375*
X341000Y155500*
X341273Y157375*
Y158500*
X341000Y160375*
X340455Y161500*
X339636Y161875*
X339091*
X344000Y154750D02*
X343727Y154375D01*
X344000Y154000*
X344273Y154375*
X344000Y154750*
X348364Y161875D02*
X347545Y161500D01*
X347000Y160375*
X346727Y158500*
Y157375*
X347000Y155500*
X347545Y154375*
X348364Y154000*
X348909*
X349727Y154375*
X350273Y155500*
X350545Y157375*
Y158500*
X350273Y160375*
X349727Y161500*
X348909Y161875*
X348364*
X109545Y137875D02*
X106818D01*
X106545Y134500*
X106818Y134875*
X107636Y135250*
X108455*
X109273Y134875*
X109818Y134125*
X110091Y133000*
X109818Y132250*
X109545Y131125*
X109000Y130375*
X108182Y130000*
X107364*
X106545Y130375*
X106273Y130750*
X106000Y131500*
X116091Y135250D02*
X115818Y134125D01*
X115273Y133375*
X114455Y133000*
X114182*
X113364Y133375*
X112818Y134125*
X112545Y135250*
Y135625*
X112818Y136750*
X113364Y137500*
X114182Y137875*
X114455*
X115273Y137500*
X115818Y136750*
X116091Y135250*
Y133375*
X115818Y131500*
X115273Y130375*
X114455Y130000*
X113909*
X113091Y130375*
X112818Y131125*
X118818Y130750D02*
X118545Y130375D01*
X118818Y130000*
X119091Y130375*
X118818Y130750*
X123182Y137875D02*
X122364Y137500D01*
X121818Y136375*
X121545Y134500*
Y133375*
X121818Y131500*
X122364Y130375*
X123182Y130000*
X123727*
X124545Y130375*
X125091Y131500*
X125364Y133375*
Y134500*
X125091Y136375*
X124545Y137500*
X123727Y137875*
X123182*
X131091Y136750D02*
X130818Y137500D01*
X130000Y137875*
X129455*
X128636Y137500*
X128091Y136375*
X127818Y134500*
Y132625*
X128091Y131125*
X128636Y130375*
X129455Y130000*
X129727*
X130545Y130375*
X131091Y131125*
X131364Y132250*
Y132625*
X131091Y133750*
X130545Y134500*
X129727Y134875*
X129455*
X128636Y134500*
X128091Y133750*
X127818Y132625*
X200273Y136375D02*
X200818Y136750D01*
X201636Y137875*
Y130000*
X232000Y136000D02*
X244000D01*
X238000Y130000D02*
Y142000D01*
X241000Y145300D02*
Y139000D01*
Y145300D02*
X242964D01*
X243618Y145000*
X243836Y144700*
X244055Y144100*
Y143500*
X243836Y142900*
X243618Y142600*
X242964Y142300*
X241000D02*
X242964D01*
X243618Y142000*
X243836Y141700*
X244055Y141100*
Y140200*
X243836Y139600*
X243618Y139300*
X242964Y139000*
X241000*
X267636Y137875D02*
Y130000D01*
Y137875D02*
X271455Y130000D01*
Y137875D02*
Y130000D01*
X275545Y137875D02*
X275000Y137500D01*
X274455Y136750*
X274182Y136000*
X273909Y134875*
Y133000*
X274182Y131875*
X274455Y131125*
X275000Y130375*
X275545Y130000*
X276636*
X277182Y130375*
X277727Y131125*
X278000Y131875*
X278273Y133000*
Y134875*
X278000Y136000*
X277727Y136750*
X277182Y137500*
X276636Y137875*
X275545*
X317818Y136750D02*
Y130000D01*
X315364Y133375D02*
X320273D01*
X327636Y139375D02*
X322727Y127375D01*
X330091Y133375D02*
X335000D01*
X339091Y137875D02*
X338273Y137500D01*
X337727Y136375*
X337455Y134500*
Y133375*
X337727Y131500*
X338273Y130375*
X339091Y130000*
X339636*
X340455Y130375*
X341000Y131500*
X341273Y133375*
Y134500*
X341000Y136375*
X340455Y137500*
X339636Y137875*
X339091*
X344000Y130750D02*
X343727Y130375D01*
X344000Y130000*
X344273Y130375*
X344000Y130750*
X348364Y137875D02*
X347545Y137500D01*
X347000Y136375*
X346727Y134500*
Y133375*
X347000Y131500*
X347545Y130375*
X348364Y130000*
X348909*
X349727Y130375*
X350273Y131500*
X350545Y133375*
Y134500*
X350273Y136375*
X349727Y137500*
X348909Y137875*
X348364*
X106000Y112375D02*
X106545Y112750D01*
X107364Y113875*
Y106000*
X109818Y112375D02*
X110364Y112750D01*
X111182Y113875*
Y106000*
X113909Y106750D02*
X113636Y106375D01*
X113909Y106000*
X114182Y106375*
X113909Y106750*
X118000Y113875D02*
X117182Y113500D01*
X116909Y112750*
Y112000*
X117182Y111250*
X117727Y110875*
X118818Y110500*
X119636Y110125*
X120182Y109375*
X120455Y108625*
Y107500*
X120182Y106750*
X119909Y106375*
X119091Y106000*
X118000*
X117182Y106375*
X116909Y106750*
X116636Y107500*
Y108625*
X116909Y109375*
X117455Y110125*
X118273Y110500*
X119364Y110875*
X119909Y111250*
X120182Y112000*
Y112750*
X119909Y113500*
X119091Y113875*
X118000*
X122909Y112375D02*
X123455Y112750D01*
X124273Y113875*
Y106000*
X197273Y113875D02*
X196455Y113500D01*
X196182Y112750*
Y112000*
X196455Y111250*
X197000Y110875*
X198091Y110500*
X198909Y110125*
X199455Y109375*
X199727Y108625*
Y107500*
X199455Y106750*
X199182Y106375*
X198364Y106000*
X197273*
X196455Y106375*
X196182Y106750*
X195909Y107500*
Y108625*
X196182Y109375*
X196727Y110125*
X197545Y110500*
X198636Y110875*
X199182Y111250*
X199455Y112000*
Y112750*
X199182Y113500*
X198364Y113875*
X197273*
X202455Y112000D02*
Y112375D01*
X202727Y113125*
X203000Y113500*
X203545Y113875*
X204636*
X205182Y113500*
X205455Y113125*
X205727Y112375*
Y111625*
X205455Y110875*
X204909Y109750*
X202182Y106000*
X206000*
X232000Y112000D02*
X244000D01*
X238000Y106000D02*
Y118000D01*
X244273Y119800D02*
X244055Y120400D01*
X243618Y121000*
X243182Y121300*
X242309*
X241873Y121000*
X241436Y120400*
X241218Y119800*
X241000Y118900*
Y117400*
X241218Y116500*
X241436Y115900*
X241873Y115300*
X242309Y115000*
X243182*
X243618Y115300*
X244055Y115900*
X244273Y116500*
X264636Y113875D02*
X266818Y110125D01*
Y106000*
X269000Y113875D02*
X266818Y110125D01*
X271455Y113875D02*
Y106000D01*
Y113875D02*
X275000D01*
X271455Y110125D02*
X273636D01*
X271455Y106000D02*
X275000D01*
X281273Y112750D02*
X280727Y113500D01*
X279909Y113875*
X278818*
X278000Y113500*
X277455Y112750*
Y112000*
X277727Y111250*
X278000Y110875*
X278545Y110500*
X280182Y109750*
X280727Y109375*
X281000Y109000*
X281273Y108250*
Y107125*
X280727Y106375*
X279909Y106000*
X278818*
X278000Y106375*
X277455Y107125*
X317818Y112750D02*
Y106000D01*
X315364Y109375D02*
X320273D01*
X327636Y115375D02*
X322727Y103375D01*
X330091Y109375D02*
X335000D01*
X339091Y113875D02*
X338273Y113500D01*
X337727Y112375*
X337455Y110500*
Y109375*
X337727Y107500*
X338273Y106375*
X339091Y106000*
X339636*
X340455Y106375*
X341000Y107500*
X341273Y109375*
Y110500*
X341000Y112375*
X340455Y113500*
X339636Y113875*
X339091*
X344000Y106750D02*
X343727Y106375D01*
X344000Y106000*
X344273Y106375*
X344000Y106750*
X348364Y113875D02*
X347545Y113500D01*
X347000Y112375*
X346727Y110500*
Y109375*
X347000Y107500*
X347545Y106375*
X348364Y106000*
X348909*
X349727Y106375*
X350273Y107500*
X350545Y109375*
Y110500*
X350273Y112375*
X349727Y113500*
X348909Y113875*
X348364*
G74*
X0Y0D02*
M02*
