M48
;FILE_FORMAT=2:4
INCH,LZ
FMAT,2
ICI,OFF
;TYPE=PLATED
T1C.01181
T2C.01772
T3C.01969
T5C.0315
T6C.035
T7C.037
T8C.04724
;TYPE=NON_PLATED
T4C.02559
T9C.05906
%
M72
G90
G93X0Y0
T1C.01181F0S0
X014644Y036647
X013874Y03737
X014429Y037989
X016306Y038832
X013874Y039413
X014453Y039997
X015613Y041054
X013886Y041635
X014412Y042236
X015947Y042989
X013862Y044632
X014458Y045234
X015976Y046032
X013886Y048179
X014418Y048717
X016012Y049557
X013886Y05143
X014459Y051973
X01645Y05239
X017364Y050511
X018682Y04862
X018279Y043858
X01846Y042293
X018158Y040322
X016406Y040297
X017625Y039182
X017921Y038633
X019637Y037116
X023723Y037134
X023593Y038571
X021367Y039614
X019453Y042492
X023745Y042627
X020644Y043395
X019434Y044857
X022984Y045283
X01946Y04901
X023738Y049125
X020616Y049893
X01943Y05134
X022508Y051721
X027146Y052208
X023993Y052192
X02578Y050276
X026804Y048748
X027869Y048737
X023897Y045699
X027117Y045519
X025774Y043749
X027799Y042326
X02677Y042233
X024742Y036231
X033463Y035698
X030565Y035725
X033417Y037842
X031028Y038442
X033631Y04363
X033619Y044342
X033011Y045447
X032172Y046089
X037884Y047971
X037652Y047518
X036651Y047414
X036372Y045789
X034684Y041709
X036779Y040539
X037295Y040395
X038074Y038792
X036324Y037606
X038786Y037206
X04109Y035402
X040039Y036872
X039146Y038719
X0394Y040634
X040633Y044094
X040807Y044667
X040377Y047491
X040173Y047935
X039622Y047935
X03942Y048511
X044687Y0383
X044887Y037409
T2C.01772F0S0
X045499Y03558G85X045499Y036014
X043274Y03558G85X043274Y036014
T3C.01969F0S0
X029057Y035548G85X029057Y035902
X026931Y035587G85X026931Y035941
T4C.02559F0S0
X043599Y036643
X045174Y036643
T5C.0315F0S0
X043494Y051167
X043494Y05367
X044479Y05367
X044478Y051167
T6C.035F0S0
X043387Y04113
X043387Y04213
X043387Y04313
X043387Y04413
X043387Y04513
X043387Y04613
X043387Y04713
X043387Y04813
X043387Y04913
X044387Y04913
X044387Y04813
X044387Y04713
X044387Y04613
X044387Y04513
X044387Y04413
X044387Y04313
X044387Y04213
X044387Y04113
T7C.037F0S0
X022137Y03588
X023137Y03688
X025519Y053525
X025111Y049973
X025008Y047163
X025061Y043617
X024137Y03588
X03222Y039547
X032197Y041399
X041387Y04063
X040387Y03963
X043612Y039012
X041387Y03863
T8C.04724F0S0
X036936Y053264
X040085Y053264
T9C.05906F0S0
X027876Y038776
M30
