*
*
G04 PADS VX.2 Build Number: 5060570 generated Gerber (RS-274-X) file*
G04 PC Version=2.1*
*
%IN "board.pcb"*%
*
%MOIN*%
*
%FSLAX35Y35*%
*
*
*
*
G04 PC Standard Apertures*
*
*
G04 Thermal Relief Aperture macro.*
%AMTER*
1,1,$1,0,0*
1,0,$1-$2,0,0*
21,0,$3,$4,0,0,45*
21,0,$3,$4,0,0,135*
%
*
*
G04 Annular Aperture macro.*
%AMANN*
1,1,$1,0,0*
1,0,$2,0,0*
%
*
*
G04 Odd Aperture macro.*
%AMODD*
1,1,$1,0,0*
1,0,$1-0.005,0,0*
%
*
*
G04 PC Custom Aperture Macros*
*
*
*
*
*
*
G04 PC Aperture Table*
*
%ADD010C,0.001*%
%ADD044C,0.01*%
%ADD048R,0.04X0.048*%
%ADD049O,0.05331X0.03362*%
%ADD050R,0.05331X0.03362*%
%ADD051R,0.048X0.04*%
%ADD052R,0.07299X0.07299*%
%ADD053C,0.07299*%
%ADD054R,0.10843X0.06906*%
%ADD055R,0.05331X0.06906*%
%ADD056R,0.049X0.049*%
%ADD057R,0.05724X0.049*%
%ADD058O,0.084X0.034*%
%ADD059R,0.07X0.07*%
%ADD060C,0.07*%
%ADD061R,0.02575X0.06315*%
%ADD062R,0.0848X0.0848*%
%ADD063R,0.09661X0.08874*%
%ADD064C,0.03559*%
%ADD065R,0.03756X0.08087*%
%ADD066R,0.07299X0.06512*%
%ADD067R,0.05724X0.09661*%
%ADD068C,0.05724*%
%ADD069R,0.04937X0.03362*%
%ADD070O,0.06118X0.09661*%
%ADD071R,0.0848X0.06906*%
%ADD072C,0.06906*%
%ADD073R,0.08874X0.01984*%
%ADD074R,0.01984X0.08874*%
%ADD075R,0.07693X0.01984*%
%ADD076O,0.07693X0.01984*%
*
*
*
*
G04 PC Circuitry*
G04 Layer Name board.pcb - circuitry*
%LPD*%
*
*
G04 PC Custom Flashes*
G04 Layer Name board.pcb - flashes*
%LPD*%
*
*
G04 PC Circuitry*
G04 Layer Name board.pcb - circuitry*
%LPD*%
*
G54D10*
G54D44*
G01X126365Y533797D02*
Y346297D01*
X461365*
Y556297*
X148865*
X126365Y533797*
G54D48*
X203069Y370725D03*
Y364525D03*
X188865Y431897D03*
Y425697D03*
X243865Y506897D03*
Y500697D03*
X233865Y443197D03*
Y449397D03*
X392882Y399428D03*
Y393228D03*
X243865Y424397D03*
Y418197D03*
X233865Y431897D03*
Y425697D03*
Y496897D03*
Y490697D03*
X138865Y384397D03*
Y378197D03*
Y404397D03*
Y398197D03*
Y426897D03*
Y420697D03*
Y456897D03*
Y450697D03*
Y491897D03*
Y485697D03*
X178865Y450697D03*
Y456897D03*
X138865Y524397D03*
Y518197D03*
X383865Y365697D03*
Y371897D03*
X243865Y489397D03*
Y483197D03*
X178865Y515697D03*
Y521897D03*
X366365Y463197D03*
Y469397D03*
X243865Y456897D03*
Y450697D03*
Y441897D03*
Y435697D03*
X178865Y439397D03*
Y433197D03*
Y424397D03*
Y418197D03*
X243865Y521897D03*
Y515697D03*
X233865Y508197D03*
Y514397D03*
X188865Y496897D03*
Y490697D03*
X178865Y489397D03*
Y483197D03*
Y504397D03*
Y498197D03*
X171365Y391897D03*
Y385697D03*
X221365Y391897D03*
Y385697D03*
X231365Y391897D03*
Y385697D03*
X376365Y463197D03*
Y469397D03*
X381365Y393197D03*
Y399397D03*
G54D49*
X148865Y403797D03*
Y426297D03*
Y383797D03*
Y456297D03*
Y523797D03*
Y491297D03*
G54D50*
Y399860D03*
Y395923D03*
X159889D03*
Y399860D03*
Y403797D03*
X148865Y422360D03*
Y418423D03*
X159889D03*
Y422360D03*
Y426297D03*
X148865Y379860D03*
Y375923D03*
X159889D03*
Y379860D03*
Y383797D03*
X148865Y452360D03*
Y448423D03*
X159889D03*
Y452360D03*
Y456297D03*
X148865Y519860D03*
Y515923D03*
X159889D03*
Y519860D03*
Y523797D03*
X148865Y487360D03*
Y483423D03*
X159889D03*
Y487360D03*
Y491297D03*
G54D51*
X340717Y454307D03*
X334517D03*
X336965Y536297D03*
X330765D03*
X275330Y426936D03*
X281530D03*
X275743Y491717D03*
X281943D03*
X275765Y511297D03*
X281965D03*
X275765Y478797D03*
X281965D03*
X402098Y450854D03*
X408298D03*
X340765Y421297D03*
X346965D03*
X185765Y371297D03*
X191965D03*
X440765Y378797D03*
X446965D03*
X340765Y436297D03*
X346965D03*
Y443797D03*
X340765D03*
X301965Y413797D03*
X295765D03*
X301965Y486297D03*
X295765D03*
X301965Y511297D03*
X295765D03*
X301965Y518797D03*
X295765D03*
X275765D03*
X281965D03*
X301965Y421297D03*
X295765D03*
X275765Y413797D03*
X281965D03*
X174465Y371297D03*
X168265D03*
X150765Y366297D03*
X156965D03*
X346965Y428797D03*
X340765D03*
X336965Y526297D03*
X330765D03*
X336965Y516297D03*
X330765D03*
X336965Y506297D03*
X330765D03*
X336965Y496297D03*
X330765D03*
X301965Y446297D03*
X295765D03*
X301965Y453797D03*
X295765D03*
X275765Y446297D03*
X281965D03*
X275765Y453797D03*
X281965D03*
X301965Y478797D03*
X295765D03*
G54D52*
X434944Y536699D03*
X434936Y511670D03*
G54D53*
X444787Y536699D03*
X444778Y511670D03*
G54D54*
X371365Y376277D03*
Y361316D03*
X418865Y368777D03*
Y353816D03*
G54D55*
X310352Y356757D03*
X324919D03*
X310352Y378804D03*
X324919D03*
X339473Y356611D03*
X354040D03*
X339473Y378658D03*
X354040D03*
G54D56*
X257550Y449481D03*
Y441881D03*
X257827Y514732D03*
Y507132D03*
X263515Y414997D03*
Y422597D03*
Y479997D03*
Y487597D03*
G54D57*
X266456Y445681D03*
X266733Y510932D03*
X254609Y418797D03*
Y483797D03*
G54D58*
X222665D03*
Y488797D03*
Y493797D03*
Y498797D03*
Y503797D03*
Y508797D03*
Y513797D03*
X200065D03*
Y508797D03*
Y503797D03*
Y498797D03*
Y493797D03*
Y488797D03*
Y483797D03*
X222665Y418797D03*
Y423797D03*
Y428797D03*
Y433797D03*
Y438797D03*
Y443797D03*
Y448797D03*
X200065D03*
Y443797D03*
Y438797D03*
Y433797D03*
Y428797D03*
Y423797D03*
Y418797D03*
X207665Y381297D03*
Y386297D03*
Y391297D03*
Y396297D03*
X185065D03*
Y391297D03*
Y386297D03*
Y381297D03*
G54D59*
X241365Y358797D03*
X413865Y406297D03*
X433865Y491297D03*
G54D60*
X231365Y368797D03*
X221365Y358797D03*
X403865Y396297D03*
X413865Y386297D03*
X443865Y491297D03*
Y481297D03*
X433865D03*
X443865Y471297D03*
X433865D03*
X443865Y461297D03*
X433865D03*
X443865Y451297D03*
X433865D03*
X443865Y441297D03*
X433865D03*
X443865Y431297D03*
X433865D03*
X443865Y421297D03*
X433865D03*
X443865Y411297D03*
X433865D03*
G54D61*
X438747Y368797D03*
X441306D03*
X443865D03*
X446424D03*
X448983D03*
G54D62*
X439141Y357970D03*
X448590D03*
G54D63*
X454987D03*
X432743D03*
G54D64*
X435991Y366434D03*
X451739D03*
G54D65*
X372704Y491297D03*
X377035D03*
X381365D03*
X385696D03*
X390027D03*
X394358D03*
X398688D03*
X403019D03*
X407350D03*
G54D66*
X413649Y493265D03*
X354397D03*
G54D67*
X411483Y531060D03*
X351247D03*
G54D68*
X369358Y532635D03*
X400854D03*
G54D69*
X404771Y364860D03*
Y368797D03*
Y372734D03*
X392960D03*
Y364860D03*
G54D70*
X290569Y357247D03*
X269309Y357641D03*
G54D71*
X292341Y368074D03*
Y387956D03*
X265963Y383625D03*
Y391696D03*
G54D72*
X278758Y387759D03*
G54D73*
X360165Y442123D03*
Y440155D03*
Y438186D03*
Y436218D03*
Y434249D03*
Y432281D03*
Y430312D03*
Y428344D03*
Y426375D03*
Y424407D03*
Y422438D03*
Y420470D03*
X397566D03*
Y422438D03*
Y424407D03*
Y426375D03*
Y428344D03*
Y430312D03*
Y432281D03*
Y434249D03*
Y436218D03*
Y438186D03*
Y440155D03*
Y442123D03*
G54D74*
X368039Y412596D03*
X370007D03*
X371976D03*
X373944D03*
X375913D03*
X377881D03*
X379850D03*
X381818D03*
X383787D03*
X385755D03*
X387724D03*
X389692D03*
Y449997D03*
X387724D03*
X385755D03*
X383787D03*
X381818D03*
X379850D03*
X377881D03*
X375913D03*
X373944D03*
X371976D03*
X370007D03*
X368039D03*
G54D75*
X345027Y462360D03*
G54D76*
Y464328D03*
Y466297D03*
Y468265D03*
Y470234D03*
X327704D03*
Y468265D03*
Y466297D03*
Y464328D03*
Y462360D03*
X0Y0D02*
M02*
